SplineFontDB: 3.2
FontName: Myna-Bold
FullName: Myna Bold
FamilyName: Myna
Weight: Bold
Copyright: Copyright (c) 2025 Irfan Ali
Version: 2.0
ItalicAngle: 0
UnderlinePosition: -100
UnderlineWidth: 50
Ascent: 750
Descent: 250
InvalidEm: 0
sfntRevision: 0x000209ba
LayerCount: 2
Layer: 0 0 "Back" 1
Layer: 1 0 "Fore" 0
XUID: [1021 748 -90522492 5160351]
UniqueID: 4192369
BaseHoriz: 2 'ideo' 'romn'
BaseScript: 'DFLT' 1  -170 0
BaseScript: 'cyrl' 1  -170 0
BaseScript: 'grek' 1  -170 0
BaseScript: 'latn' 1  -170 0
StyleMap: 0x0040
FSType: 0
OS2Version: 3
OS2_WeightWidthSlopeOnly: 0
OS2_UseTypoMetrics: 0
CreationTime: 1610046839
ModificationTime: 1765725305
PfmFamily: 17
TTFWeight: 700
TTFWidth: 5
LineGap: 0
VLineGap: 0
Panose: 2 11 7 9 3 4 3 2 2 4
OS2TypoAscent: 750
OS2TypoAOffset: 0
OS2TypoDescent: -250
OS2TypoDOffset: 0
OS2TypoLinegap: 0
OS2WinAscent: 984
OS2WinAOffset: 0
OS2WinDescent: 273
OS2WinDOffset: 0
HheadAscent: 984
HheadAOffset: 0
HheadDescent: -273
HheadDOffset: 0
OS2SubXSize: 650
OS2SubYSize: 600
OS2SubXOff: 0
OS2SubYOff: 75
OS2SupXSize: 650
OS2SupYSize: 600
OS2SupXOff: 0
OS2SupYOff: 350
OS2StrikeYSize: 50
OS2StrikeYPos: 291
OS2CapHeight: 660
OS2XHeight: 486
OS2Vendor: 'IRFN'
OS2CodePages: 6000019f.00000000
OS2UnicodeRanges: 200002f7.02003803.00000000.00000000
Lookup: 6 0 0 "'ccmp' Glyph Composition/Decomposition lookup 0" { "'ccmp' Glyph Composition/Decomposition lookup 0 contextual 0"  "'ccmp' Glyph Composition/Decomposition lookup 0 contextual 1"  "'ccmp' Glyph Composition/Decomposition lookup 0 contextual 2"  } ['ccmp' ('DFLT' <'dflt' > 'cyrl' <'SRB ' 'dflt' > 'grek' <'dflt' > 'latn' <'ATH ' 'NSM ' 'SKS ' 'dflt' > ) ]

StartChar: .notdef
Encoding: 1114112 -1 0
Width: 486
GlyphClass: 1
Flags: HMW
HStem: -1.76707 153.612
VStem: 161.134 163.731
LayerCount: 2
Fore
SplineSet
242.999023438 159.343255891 m 0
 294.799042351 159.343255891 332.363763704 122.234436746 332.363763704 75.4990234375 c 0
 332.363763704 54.1059156873 325.036484177 33.0681189504 306.602509377 15.359392645 c 0
 289.543594649 -1.0304614759 267.987631992 -9.26610745405 242.999023438 -9.26610745405 c 0
 227.235974763 -9.26610745405 201.053630319 -5.89696938639 177.816656921 17.3400040113 c 0
 161.846230468 33.310430464 153.636236296 53.0250081261 153.636236296 75.4990234375 c 0
 153.636236296 94.494527235 159.530265954 116.420607689 179.966878785 135.282670121 c 0
 197.277522021 151.26254109 218.609309695 159.343255891 242.999023438 159.343255891 c 0
EndSplineSet
EndChar

StartChar: exclam
Encoding: 33 33 2
Width: 486
GlyphClass: 2
Flags: HMW
HStem: -29.627 146.26 692 20G
VStem: 177.185 131.631 195.662 92.3379 205.485 73.6758
LayerCount: 2
Fore
SplineSet
169.686040983 43.50390625 m 0
 169.686040983 88.2743499796 201.71058971 124.131341829 243 124.131341829 c 0
 285.166169965 124.131341829 316.313959017 88.396002649 316.313959017 43.50390625 c 0
 316.313959017 -2.48910818706 285.143038333 -37.1254824541 243 -37.1254824541 c 0
 201.724355825 -37.1254824541 169.686040983 -2.35715328412 169.686040983 43.50390625 c 0
196.125540909 212.501470671 m 1
 192.731569492 731.498529329 l 1
 290.92160926 731.498529329 l 1
 288.142072371 212.501470671 l 1
 196.125540909 212.501470671 l 1
EndSplineSet
EndChar

StartChar: quotedbl
Encoding: 34 34 3
Width: 486
GlyphClass: 2
Flags: HMW
HStem: 463 277<104.276 187.293 104.276 187.293 104.276 298.709 298.709 381.724>
VStem: 104.277 83.0162 298.708 83.0162
LayerCount: 2
Fore
SplineSet
389.222162141 455.501470671 m 1
 291.210455046 455.501470671 l 1
 291.210455046 747.498529329 l 1
 389.222162141 747.498529329 l 1
 389.222162141 455.501470671 l 1
194.791498079 455.501470671 m 1
 96.7778378589 455.501470671 l 1
 96.7778378589 747.498529329 l 1
 194.791498079 747.498529329 l 1
 194.791498079 455.501470671 l 1
EndSplineSet
EndChar

StartChar: numbersign
Encoding: 35 35 4
Width: 486
GlyphClass: 2
Flags: HW
LayerCount: 2
Fore
SplineSet
283.220681513 226.303216829 m 1
 303.306625849 422.275884733 l 1
 205.89817192 422.275884733 l 1
 186.768355546 226.303216829 l 1
 283.220681513 226.303216829 l 1
-4.04640243867 148.809087859 m 1
 1.5723924363 224.656732454 l 1
 105.726677105 224.656732454 l 1
 124.86094606 421.010259733 l 1
 10.8571273971 421.010259733 l 1
 15.0436296082 498.379388704 l 1
 131.973948829 498.379388704 l 1
 152.941481513 714.439488728 l 1
 236.2070037 717.730370664 l 1
 214.113260959 500.909662141 l 1
 310.49358016 500.909662141 l 1
 331.477650624 712.078645465 l 1
 415.713179819 713.716019748 l 1
 394.692998952 503.440912141 l 1
 490.3099474 503.440912141 l 1
 481.973418903 425.023931609 l 1
 386.448416357 425.023931609 l 1
 366.379329855 231.096185579 l 1
 470.213855421 231.096185579 l 1
 463.193442113 155.220220671 l 1
 359.172461255 155.220220671 l 1
 336.13851832 -73.5865355716 l 1
 252.840826622 -80.1690813709 l 1
 276.028838521 150.199712859 l 1
 178.595040972 150.199712859 l 1
 156.560704543 -74.0660502545 l 1
 75.481698777 -75.7221443304 l 1
 97.5522065857 148.809087859 l 1
 -4.04640243867 148.809087859 l 1
EndSplineSet
EndChar

StartChar: dollar
Encoding: 36 36 5
Width: 486
GlyphClass: 2
Flags: HMW
HStem: 0 66.0713 609.146 67.0479
VStem: 61.3975 77.5176 220.789 69.2109 367.988 79.2617
LayerCount: 2
Fore
SplineSet
297.498529329 79.5270305465 m 1
 340.634132527 92.1087616932 360.489751921 123.622260675 360.489751921 187.7109375 c 0
 360.489751921 235.495858112 350.789882365 268.066491875 297.498529329 296.284022069 c 1
 297.498529329 79.5270305465 l 1
213.290533171 597.927246254 m 1
 191.312482973 592.350907556 146.413568391 574.807241896 146.413568391 514.322265625 c 0
 146.413568391 476.967252133 158.656736218 450.652035794 213.290533171 424.471963251 c 1
 213.290533171 597.927246254 l 1
53.8989316084 513.3671875 m 0
 53.8989316084 592.343146024 106.979211808 668.594389213 213.289565691 682.842792109 c 1
 213.271863874 804.498529329 l 1
 297.498529329 804.498529329 l 1
 297.498529329 682.816353704 l 1
 376.379816419 671.932735731 422.210515108 627.205806718 449.691698676 599.932056672 c 1
 395.32210317 537.794010003 l 1
 367.100492942 566.376144121 340.918640472 592.164456543 297.498529329 600.357626127 c 1
 297.498529329 396.953816269 l 1
 377.283625631 367.016674912 454.748529329 313.595349022 454.748529329 188.669921875 c 0
 454.748529329 133.856455685 438.276267168 81.7159155181 400.957746936 44.3973952867 c 0
 375.836050487 19.275698838 341.534688268 1.23208927982 297.498529329 -6.39372822105 c 1
 297.498529329 -127.498529329 l 1
 213.501470671 -127.498529329 l 1
 213.501470671 -6.98194737131 l 1
 174.252451664 -3.67377958847 98.2056763827 12.2379051713 33.2564911268 82.0344891688 c 2
 28.8165256668 86.8058257291 l 1
 81.9784221741 152.279500583 l 1
 103.617329419 128.484789765 144.804065685 83.1947726723 213.290533171 74.402416028 c 1
 213.290533171 325.211885509 l 1
 127.598416027 357.585983244 53.8989316084 411.053619096 53.8989316084 513.3671875 c 0
EndSplineSet
EndChar

StartChar: percent
Encoding: 37 37 6
Width: 486
GlyphClass: 2
Flags: HW
LayerCount: 2
Fore
SplineSet
352.349609375 62.8334902666 m 0
 389.70255706 62.8334902666 396.240728483 112.5901927 396.240728483 147.419921875 c 0
 396.240728483 196.174385604 384.401243053 229.171392546 352.349609375 229.171392546 c 0
 334.573229802 229.171392546 307.648919954 217.589423285 307.648919954 147.419921875 c 0
 307.648919954 109.943914378 316.830395399 85.1495161864 329.077853622 72.9020579631 c 0
 335.93401634 66.0458952448 343.707881154 62.8334902666 352.349609375 62.8334902666 c 0
352.349609375 -18.4184512041 m 0
 270.75490531 -18.4184512041 221.280767546 59.2607798716 221.280767546 147.419921875 c 0
 221.280767546 236.666207923 270.971312932 311.368646517 352.349609375 311.368646517 c 0
 434.410068353 311.368646517 483.419427767 236.827247336 483.419427767 147.419921875 c 0
 483.419427767 59.1084457621 434.636926044 -18.4184512041 352.349609375 -18.4184512041 c 0
133.650390625 425.713373079 m 0
 151.211164556 425.713373079 177.541509733 437.665420108 177.541509733 509.354492188 c 0
 177.541509733 551.881706148 168.355932586 592.051275359 133.650390625 592.051275359 c 0
 104.184436632 592.051275359 88.9487246416 558.833758089 88.9487246416 509.354492188 c 0
 88.9487246416 472.603807086 98.0699076395 448.046369836 110.283003749 435.833273727 c 0
 117.160284937 428.955992539 124.971860089 425.713373079 133.650390625 425.713373079 c 0
133.650390625 344.461431609 m 0
 52.0331342865 344.461431609 2.58057223345 422.176378708 2.58057223345 509.354492188 c 0
 2.58057223345 599.59195988 52.2990884302 674.248529329 133.650390625 674.248529329 c 0
 215.677435683 674.248529329 264.719232454 599.76119268 264.719232454 509.354492188 c 0
 264.719232454 422.032955771 215.963652384 344.461431609 133.650390625 344.461431609 c 0
8.94208695965 15.4783469173 m 1
 404.869644384 681.144232865 l 1
 467.338186477 633.736496833 l 1
 71.4106290528 -31.9293891143 l 1
 8.94208695965 15.4783469173 l 1
EndSplineSet
EndChar

StartChar: ampersand
Encoding: 38 38 7
Width: 486
GlyphClass: 2
Flags: HW
LayerCount: 2
Fore
SplineSet
99.6399227116 187.46570719 m 0
 100.23137333 119.102933822 140.472232424 74.6987246416 191.646484375 74.6987246416 c 0
 209.031951486 74.6987246416 237.671361176 81.5265446602 270.192968642 116.582683006 c 1
 224.042100927 170.205367633 180.954874281 233.881247091 146.370404823 299.98683884 c 1
 127.963136286 273.977451725 115.816137242 236.61918236 107.519833557 210.55101823 c 0
 104.517638924 201.117696412 102.048301525 193.24591678 99.6399227116 187.46570719 c 0
175.37782131 435.502284957 m 1
 215.174900037 473.240608935 243.175298796 509.51595316 243.175298796 558.599609375 c 0
 243.175298796 583.196826275 237.984275179 621.451665983 205.69140625 621.451665983 c 0
 174.312954856 621.451665983 157.467279329 581.69520814 157.467279329 534.450195312 c 0
 157.467279329 503.82348006 163.851986383 470.329582773 175.37782131 435.502284957 c 1
332.132057792 53.3354588107 m 1
 296.442402325 13.0934605814 248.818501767 -20.0981387041 183.384765625 -20.0981387041 c 0
 81.4063312681 -20.0981387041 9.35889254595 63.7771164045 9.35889254595 180.904296875 c 0
 9.35889254595 271.948241601 57.9459949827 331.285511999 108.539310579 378.878794717 c 1
 87.0334031367 433.118112205 74.6303769209 487.333103814 74.6303769209 535.833984375 c 0
 74.6303769209 633.461537898 127.318932034 708.898919954 205.69140625 708.898919954 c 0
 277.669610872 708.898919954 322.705560579 650.353941454 322.705560579 561.700195312 c 0
 322.705560579 472.135215691 264.071506918 413.182061832 209.208342921 360.31985356 c 1
 240.19185132 300.475871023 281.077697339 242.282528141 323.79815215 193.862983894 c 1
 351.805577399 248.761056108 370.022126378 309.443549294 385.093632355 383.967279329 c 1
 472.922655474 383.967279329 l 1
 461.629099606 333.278551684 437.913383054 228.705343929 385.425874668 130.659456407 c 1
 416.676140764 101.528105349 443.840247324 84.1885907769 471.896314889 73.1443032501 c 2
 478.132794748 70.6893092786 l 1
 452.550786685 -24.0323884468 l 1
 427.446606669 -14.3867019558 388.247972401 0.674444705106 332.132057792 53.3354588107 c 1
EndSplineSet
EndChar

StartChar: quotesingle
Encoding: 39 39 8
Width: 486
GlyphClass: 2
Flags: HMW
HStem: 463 277<201.492 284.508 201.492 284.508>
VStem: 201.492 83.0162
LayerCount: 2
Fore
SplineSet
292.006341829 455.501470671 m 1
 193.993658171 455.501470671 l 1
 193.993658171 747.498529329 l 1
 292.006341829 747.498529329 l 1
 292.006341829 455.501470671 l 1
EndSplineSet
EndChar

StartChar: parenleft
Encoding: 40 40 9
Width: 486
GlyphClass: 2
Flags: HMW
VStem: 98.5352 76.1982
LayerCount: 2
Fore
SplineSet
182.231927767 304.038085938 m 0
 182.231927767 186.001413191 229.902792155 78.0220620052 306.311335397 1.61351876383 c 0
 334.688647125 -26.7637929648 360.477064585 -45.1587618716 390.444870104 -62.8847416919 c 1
 366.044933921 -150.325253027 l 1
 333.774037756 -133.648605422 289.001364868 -110.511408232 237.821245671 -59.3312890348 c 0
 145.971982599 32.5179740367 91.0366269209 162.432794569 91.0366269209 300.872070312 c 0
 91.0366269209 440.586061053 147.351507634 575.053004769 241.853580092 669.555077227 c 0
 293.842843518 721.544340653 339.008783823 744.741585267 371.71337977 761.43653059 c 1
 396.29475871 676.16275225 l 1
 374.461150817 663.510299602 343.657986617 645.660039656 307.337388149 609.339441188 c 0
 229.190327098 531.192380136 182.231927767 419.947719073 182.231927767 304.038085938 c 0
EndSplineSet
EndChar

StartChar: parenright
Encoding: 41 41 10
Width: 486
GlyphClass: 2
Flags: HMW
VStem: 311.267 76.1982
LayerCount: 2
Fore
SplineSet
303.768072233 307.206054688 m 0
 303.768072233 425.242858663 256.096528157 533.222353753 179.687949677 609.630932232 c 0
 151.310848046 638.008033863 125.522670115 656.402942489 95.5551991805 674.128864495 c 1
 119.953985813 761.569447238 l 1
 152.225087429 744.892693474 196.998019013 721.755362615 248.178467433 670.574914194 c 0
 340.027690082 578.725691545 394.963373079 448.811104068 394.963373079 310.372070312 c 0
 394.963373079 170.658430094 338.648775871 36.191804518 244.147117464 -58.3098538896 c 0
 199.733998515 -102.722972838 162.591034872 -125.500996523 114.290547903 -150.200598797 c 1
 89.7051465573 -64.9186665239 l 1
 111.538880689 -52.2661407225 142.34201337 -34.4158990435 178.662611851 1.90469943741 c 0
 256.809672903 80.0517604887 303.768072233 191.296421552 303.768072233 307.206054688 c 0
EndSplineSet
EndChar

StartChar: asterisk
Encoding: 42 42 11
Width: 486
GlyphClass: 2
Flags: HW
LayerCount: 2
Fore
SplineSet
209.925271201 568.498529329 m 1
 276.074728799 568.498529329 l 1
 283.965636574 384.374786473 l 1
 430.605122953 438.035929911 l 1
 452.122439506 369.29931224 l 1
 308.901929711 300.538392203 l 1
 404.708156902 137.904908409 l 1
 348.383078667 93.2039243211 l 1
 243 248.351181171 l 1
 137.616921333 93.2039243211 l 1
 81.2918430978 137.904908409 l 1
 177.098070289 300.538392203 l 1
 33.877560494 369.29931224 l 1
 55.3948770469 438.035929911 l 1
 202.034363426 384.374786473 l 1
 209.925271201 568.498529329 l 1
EndSplineSet
EndChar

StartChar: plus
Encoding: 43 43 12
Width: 486
GlyphClass: 2
Flags: HW
LayerCount: 2
Fore
SplineSet
283.168451204 288.401861296 m 1
 283.168451204 73.9018612959 l 1
 202.831548796 73.9018612959 l 1
 202.831548796 288.401861296 l 1
 22.6518612959 288.401861296 l 1
 22.6518612959 371.598138704 l 1
 202.831548796 371.598138704 l 1
 202.831548796 586.098138704 l 1
 283.168451204 586.098138704 l 1
 283.168451204 371.598138704 l 1
 463.348138704 371.598138704 l 1
 463.348138704 288.401861296 l 1
 283.168451204 288.401861296 l 1
EndSplineSet
EndChar

StartChar: comma
Encoding: 44 44 13
Width: 486
GlyphClass: 2
Flags: HMW
HStem: -134.332 305.148
VStem: 179.225 127.551
LayerCount: 2
Fore
SplineSet
223.620551101 179.510046584 m 1
 315.441425195 163.293013878 l 1
 262.379460531 -143.025579628 l 1
 170.558563293 -126.809706597 l 1
 223.620551101 179.510046584 l 1
EndSplineSet
EndChar

StartChar: hyphen
Encoding: 45 45 14
Width: 486
GlyphClass: 2
Flags: HW
LayerCount: 2
Fore
SplineSet
22.6518612959 288.401861296 m 1
 22.6518612959 371.598138704 l 1
 463.348138704 371.598138704 l 1
 463.348138704 288.401861296 l 1
 22.6518612959 288.401861296 l 1
EndSplineSet
EndChar

StartChar: period
Encoding: 46 46 15
Width: 486
GlyphClass: 2
Flags: HMW
HStem: 3.14598 145.548
VStem: 171.513 142.974
LayerCount: 2
Fore
SplineSet
243 1.64697848345 m 0
 199.603892423 1.64697848345 164.014165983 37.8792038446 164.014165983 81.919921875 c 0
 164.014165983 125.961506042 199.60474422 162.192865267 243 162.192865267 c 0
 286.397111583 162.192865267 321.985834017 125.960604131 321.985834017 81.919921875 c 0
 321.985834017 37.8774208354 286.39532291 1.64697848345 243 1.64697848345 c 0
EndSplineSet
EndChar

StartChar: slash
Encoding: 47 47 16
Width: 486
GlyphClass: 2
Flags: HW
LayerCount: 2
Fore
SplineSet
107.588282445 -112.4883877 m 1
 27.3375152757 -69.0164445585 l 1
 379.308111494 738.784451353 l 1
 458.591982364 693.1549106 l 1
 107.588282445 -112.4883877 l 1
EndSplineSet
EndChar

StartChar: zero
Encoding: 48 48 17
Width: 486
GlyphClass: 2
Flags: HMW
HStem: -12 71<219.931 280.68 219.931 300.51> 601 68<205.319 266.484>
VStem: 57.5107 63.3936 363.969 64.5205
LayerCount: 2
Fore
SplineSet
149.373573874 169.227997815 m 1
 157.242177439 143.760984137 184.032426537 66.4985293291 243 66.4985293291 c 0
 314.845873818 66.4985293291 356.469244109 183.008959457 356.469244109 331.6328125 c 0
 356.469244109 349.800601147 355.876901799 367.292230119 354.718634861 384.01685244 c 1
 149.373573874 169.227997815 l 1
243 -19.4985293291 m 0
 129.470657753 -19.4985293291 50.0122128584 97.1733900068 50.0122128584 332 c 0
 50.0122128584 475.920229665 79.4297717904 577.168082509 133.821603 631.559913719 c 0
 163.509529322 661.247840041 200.588763503 676.498529329 243 676.498529329 c 0
 285.411236497 676.498529329 322.490470678 661.247840041 352.178397 631.559913719 c 0
 406.570228209 577.16808251 435.987787141 475.920229665 435.987787141 332 c 0
 435.987787141 186.826910327 405.518841941 81.1920856163 349.383046006 25.0562896808 c 0
 320.257330137 -4.06942618811 284.176357954 -19.4985293291 243 -19.4985293291 c 0
336.990905251 489.892203919 m 1
 327.998477666 520.217569237 301.759507756 593.501470671 242.999023438 593.501470671 c 0
 170.766146224 593.501470671 128.401849641 481.278129425 128.401849641 331.6328125 c 0
 128.401849641 311.646334228 129.150401342 292.392013866 130.606866371 274.01726024 c 1
 336.990905251 489.892203919 l 1
EndSplineSet
EndChar

StartChar: one
Encoding: 49 49 18
Width: 486
GlyphClass: 2
Flags: HW
HStem: 0 64.7324<84.5947 228.754 300.196 422.668>
VStem: 228.754 71.4424<64.7324 564.638>
LayerCount: 2
Fore
SplineSet
235.34870276 658.131341829 m 1
 307.694818391 658.131341829 l 1
 307.694818391 72.2309512041 l 1
 430.166498079 72.2309512041 l 1
 430.166498079 -7.49852932905 l 1
 77.0961972334 -7.49852932905 l 1
 77.0961972334 72.2309512041 l 1
 221.255376921 72.2309512041 l 1
 221.255376921 550.524801268 l 1
 91.7486873291 463.093386123 l 1
 53.4996602759 532.955496345 l 1
 235.34870276 658.131341829 l 1
EndSplineSet
EndChar

StartChar: two
Encoding: 50 50 19
Width: 486
GlyphClass: 2
Flags: HW
LayerCount: 2
Fore
SplineSet
237.471679688 668.525873079 m 0
 352.442976012 668.525873079 421.449701204 586.835314199 421.449701204 479.587890625 c 0
 421.449701204 359.78457045 354.701447934 264.118445866 169.465479379 75.0659121416 c 1
 436.112826646 75.0659121416 l 1
 425.201131827 -7.49852932905 l 1
 62.8501034834 -7.49852932905 l 1
 62.8501034834 67.7013065278 l 1
 222.509057724 237.89690346 283.76510502 314.919058851 310.541674509 376.506091054 c 0
 324.312118411 408.179535084 331.183111296 441.518754974 331.183111296 476.751953125 c 0
 331.183111296 503.972523635 326.043252587 537.876798225 301.640422262 562.27962855 c 0
 285.026159052 578.89389176 262.924851008 587.378423796 234.069335938 587.378423796 c 0
 170.966697537 587.378423796 143.810646406 560.772333091 108.939554215 514.509419833 c 1
 48.2730207339 566.809563699 l 1
 84.8097988089 616.21170349 134.250214755 668.525873079 237.471679688 668.525873079 c 0
EndSplineSet
EndChar

StartChar: three
Encoding: 51 51 20
Width: 486
GlyphClass: 2
Flags: HW
LayerCount: 2
Fore
SplineSet
235.983398438 668.525873079 m 0
 351.113074635 668.525873079 423.362787141 590.718798513 423.362787141 498.487304688 c 0
 423.362787141 425.199267378 380.783733857 371.173448194 331.379781994 348.797413407 c 1
 387.545077517 332.578115934 442.073724641 281.673647102 442.073724641 187.583007812 c 0
 442.073724641 71.261715903 357.186781958 -18.3657168291 231.305664062 -18.3657168291 c 0
 195.995892036 -18.3657168291 105.171153143 -9.85982312024 45.3728186797 71.6409151883 c 2
 41.3727672565 77.092691516 l 1
 100.484772352 130.565829135 l 1
 112.273552022 115.169242596 128.580992153 93.8711167311 161.412342094 78.1088297421 c 0
 183.435272694 67.535200719 206.077502828 62.3090762041 229.604492188 62.3090762041 c 0
 308.68888979 62.3090762041 352.232915983 111.412299781 352.232915983 187.583007812 c 0
 352.232915983 267.810377411 312.958346403 303.405767546 238.53515625 303.405767546 c 2
 180.566034932 303.405767546 l 1
 191.627916383 381.246576204 l 1
 232.581054688 381.246576204 l 2
 281.44199415 381.246576204 336.498540983 410.306347497 336.498540983 487.147460938 c 0
 336.498540983 558.329535855 286.245536567 590.214361296 233.432617188 590.214361296 c 0
 176.165074748 590.214361296 144.546500458 563.371089195 108.767972375 526.415624428 c 1
 59.717334557 586.777813883 l 1
 81.8268948147 609.881535951 137.947744162 668.525873079 235.983398438 668.525873079 c 0
EndSplineSet
EndChar

StartChar: four
Encoding: 52 52 21
Width: 486
GlyphClass: 2
Flags: HW
LayerCount: 2
Fore
SplineSet
368.931146517 413.848138704 m 1
 368.931146517 229.101068391 l 1
 444.625482454 229.101068391 l 1
 444.625482454 150.788580046 l 1
 368.931146517 150.788580046 l 1
 368.931146517 -7.49852932905 l 1
 285.062583341 -7.49852932905 l 1
 284.637778654 150.788580046 l 1
 41.3745175459 150.788580046 l 1
 41.3745175459 217.336460438 l 1
 216.571926119 671.231035864 l 1
 289.683228615 636.997139777 l 1
 135.422678886 229.101068391 l 1
 285.82192342 229.101068391 l 1
 294.752587483 413.848138704 l 1
 368.931146517 413.848138704 l 1
EndSplineSet
EndChar

StartChar: five
Encoding: 53 53 22
Width: 486
GlyphClass: 2
Flags: HW
LayerCount: 2
Fore
SplineSet
229.604492188 62.3090762041 m 0
 298.526432779 62.3090762041 344.577642546 106.506284185 344.577642546 208.373046875 c 0
 344.577642546 279.93827478 323.550670109 304.192807366 313.652585715 314.09089176 c 0
 296.565395022 331.178082453 274.619033469 339.788580046 246.615234375 339.788580046 c 0
 217.946586111 339.788580046 198.452239316 335.370848346 156.685285921 318.054205046 c 1
 90.2788144209 318.054205046 l 1
 90.2788144209 658.131341829 l 1
 416.647438209 658.131341829 l 1
 403.498525612 579.818853483 l 1
 173.315912141 579.818853483 l 1
 173.315912141 395.125325831 l 1
 192.512918761 405.347045128 220.745288364 417.628412141 267.026367188 417.628412141 c 0
 364.306155837 417.628412141 434.419427767 343.960534052 434.419427767 206.009765625 c 0
 434.419427767 71.0142929037 353.252077389 -18.3657168291 228.75390625 -18.3657168291 c 0
 137.012922391 -18.3657168291 83.9450724902 29.9342873917 48.8129834964 67.5745764568 c 1
 103.54611239 126.050688991 l 1
 123.483853185 102.826361335 158.267341457 62.3090762041 229.604492188 62.3090762041 c 0
EndSplineSet
EndChar

StartChar: six
Encoding: 54 54 23
Width: 486
GlyphClass: 2
Flags: HW
LayerCount: 2
Fore
SplineSet
133.600894981 264.677317345 m 1
 137.545214185 107.671707087 178.69523686 60.8911074541 247.677734375 60.8911074541 c 0
 275.151970337 60.8911074541 303.67329359 69.3977425402 324.335183948 100.750150844 c 0
 342.200055078 127.85791134 351.594244109 166.405052202 351.594244109 216.876953125 c 0
 351.594244107 293.177844817 330.458555914 317.426623074 320.865836924 327.019342063 c 0
 304.933753495 342.951425492 283.51533758 351.128423796 255.33203125 351.128423796 c 0
 226.484949285 351.128423796 197.515318959 341.464953864 168.698913211 312.648548118 c 0
 155.595575745 299.545210652 143.876714723 283.577934291 133.600894981 264.677317345 c 1
133.718973337 361.945809808 m 1
 155.141090249 390.459889096 194.805440512 431.331537141 266.388671875 431.331537141 c 0
 305.23129906 431.331537141 376.68954604 418.917139087 416.884531999 335.180247628 c 0
 432.241435876 303.186697885 439.734857454 264.311418898 439.734857454 218.767578125 c 0
 439.734857454 65.5597944798 349.408043292 -18.3657168291 248.102539062 -18.3657168291 c 0
 186.199114923 -18.3657168291 128.900683153 3.77988288555 93.132108813 68.1788320416 c 0
 61.576903517 124.992694907 46.2651425459 204.836467009 46.2651425459 307.59765625 c 0
 46.2651425459 357.883922979 49.0979245885 534.778283607 149.809898591 623.428008118 c 0
 183.88830403 653.42472921 224.742322075 668.525873079 271.4921875 668.525873079 c 0
 316.096908708 668.525873079 356.357741153 655.378519602 391.618882041 629.25934342 c 2
 396.772660711 625.441756986 l 1
 361.852745713 558.425554646 l 1
 343.787148842 570.681311112 316.387895548 589.269048796 270.215820312 589.269048796 c 0
 233.758935394 589.269048796 180.736657192 570.400565665 151.5280314 472.241717199 c 0
 142.077194663 440.4819191 136.111758918 403.711628586 133.718973337 361.945809808 c 1
EndSplineSet
EndChar

StartChar: seven
Encoding: 55 55 24
Width: 486
GlyphClass: 2
Flags: HW
LayerCount: 2
Fore
SplineSet
62.2124081709 576.983892546 m 1
 62.2124081709 658.131341829 l 1
 423.787591829 658.131341829 l 1
 423.787591829 588.262386134 l 1
 187.208686588 -18.3876186165 l 1
 106.160858996 9.14441116382 l 1
 333.34270212 576.983892546 l 1
 62.2124081709 576.983892546 l 1
EndSplineSet
EndChar

StartChar: eight
Encoding: 56 56 25
Width: 486
GlyphClass: 2
Flags: HW
LayerCount: 2
Fore
SplineSet
240.874023438 60.8911074541 m 0
 320.854771574 60.8911074541 359.675298796 111.474180302 359.675298796 173.408203125 c 0
 359.675298796 214.620568189 345.76646862 234.776043469 329.98077069 250.561741398 c 0
 316.482136294 264.060375794 302.025193153 276.717324754 210.72748787 311.673278819 c 1
 185.352310778 298.22636938 165.083936958 280.856854718 149.806040418 259.529152243 c 0
 134.369705042 237.979002724 126.324701204 209.190202925 126.324701204 172.462890625 c 0
 126.324701204 128.006874687 142.597996243 60.8911074541 240.874023438 60.8911074541 c 0
265.481429827 377.30689168 m 1
 319.264840015 411.344280692 340.538580046 440.62122336 340.538580046 492.817382812 c 0
 340.538580046 518.811309608 334.706402545 546.11671207 314.05436807 566.768746545 c 0
 297.38106818 583.442046435 274.139435769 592.104009733 243 592.104009733 c 0
 212.866357635 592.104009733 188.608364159 583.932110025 171.019687756 565.590259073 c 0
 154.233244869 548.08588416 145.461419954 523.463089488 145.461419954 490.455078125 c 0
 145.461419954 472.490955289 146.086501258 431.331392063 195.60661611 405.937134261 c 0
 211.098402124 397.992839119 234.477615159 388.385103976 265.481429827 377.30689168 c 1
332.416310804 350.06630238 m 1
 380.244282433 325.669719192 449.940912141 273.164197609 449.940912141 174.352539062 c 0
 449.940912141 67.8982814645 373.748105158 -18.3657168291 241.298828125 -18.3657168291 c 0
 107.692668095 -18.3657168291 36.0590878584 69.3908984609 36.0590878584 172.935546875 c 0
 36.0590878584 236.35220933 64.5867022866 297.288322418 145.34544235 342.717670742 c 1
 82.331452374 380.235791249 59.8735409834 427.733247913 59.8735409834 491.400390625 c 0
 59.8735409834 542.332236606 75.3523125211 581.945697288 108.667536217 615.260920984 c 0
 123.022189406 629.615574173 139.512458657 641.023856648 158.036341445 649.428922309 c 0
 185.97404905 662.105893947 214.362576279 668.525873079 243 668.525873079 c 0
 278.701792929 668.525873079 353.604424737 659.754439325 399.538714453 591.993783392 c 0
 417.381379254 565.670352192 426.126459017 533.347016391 426.126459017 495.65234375 c 0
 426.126459017 445.651134661 405.872161153 398.305274448 332.416310804 350.06630238 c 1
EndSplineSet
EndChar

StartChar: nine
Encoding: 57 57 26
Width: 486
GlyphClass: 2
Flags: HW
LayerCount: 2
Fore
SplineSet
351.352983467 388.744816705 m 1
 349.265648977 541.373914175 311.314085074 588.323736296 242.362304688 588.323736296 c 0
 184.514182551 588.323736296 134.192865267 556.034358795 134.192865267 443.677734375 c 0
 134.192865267 387.794806824 146.210929242 309.426263704 233.432617188 309.426263704 c 0
 262.028955014 309.426263704 303.069336307 317.081874045 351.352983467 388.744816705 c 1
45.2026425459 446.512695312 m 0
 45.2026425459 595.715449419 137.859153138 667.581537141 242.362304688 667.581537141 c 0
 301.317054195 667.581537141 380.943166994 645.651604351 419.097281599 538.81745487 c 0
 433.642268959 498.094295853 440.797357454 449.828736245 440.797357454 394.064453125 c 0
 440.797357454 252.372908871 414.645729197 130.030535335 307.668201311 55.5026837872 c 0
 258.045446682 20.9317506842 196.194480723 -4.78504804677 115.974030114 -29.2726715912 c 1
 95.4263196666 45.6587777071 l 1
 240.972134114 90.5809818497 331.961756138 148.547177527 347.789815376 292.516393852 c 1
 322.455768447 263.964079047 281.454514023 231.113775359 220.249023438 231.113775359 c 0
 119.794475392 231.113775359 45.2026425459 310.917118467 45.2026425459 446.512695312 c 0
EndSplineSet
EndChar

StartChar: colon
Encoding: 58 58 27
Width: 486
GlyphClass: 2
Flags: HMW
HStem: 9.64693 145.548 302.965 145.548
VStem: 171.513 142.974
LayerCount: 2
Fore
SplineSet
164.014165983 82.4208984375 m 0
 164.014165983 126.462493402 199.604762438 162.692865267 243 162.692865267 c 0
 286.397596892 162.692865267 321.985834017 126.461079501 321.985834017 82.4208984375 c 0
 321.985834017 38.3783973979 286.39532291 2.14795504595 243 2.14795504595 c 0
 199.603892423 2.14795504595 164.014165983 38.3801804071 164.014165983 82.4208984375 c 0
243 295.467290983 m 0
 199.603407105 295.467290983 164.014165983 331.699040978 164.014165983 375.739257812 c 0
 164.014165983 419.780841979 199.60474422 456.012201204 243 456.012201204 c 0
 286.397111583 456.012201204 321.985834017 419.779940068 321.985834017 375.739257812 c 0
 321.985834017 331.696745995 286.395304697 295.467290983 243 295.467290983 c 0
EndSplineSet
EndChar

StartChar: semicolon
Encoding: 59 59 28
Width: 486
GlyphClass: 2
Flags: HMW
HStem: 297.594 145.548
VStem: 178.173 142.974
LayerCount: 2
Fore
SplineSet
243 295.501470671 m 0
 199.602874353 295.501470671 164.015142546 331.733748394 164.015142546 375.774414062 c 0
 164.015142546 419.817423559 199.605179347 456.047357454 243 456.047357454 c 0
 286.398129641 456.047357454 321.984857454 419.815043971 321.984857454 375.774414062 c 0
 321.984857454 331.730487687 286.394887795 295.501470671 243 295.501470671 c 0
209.24939341 187.859573241 m 1
 301.070318993 171.643695205 l 1
 248.009368793 -134.67599135 l 1
 156.189473363 -118.460089717 l 1
 209.24939341 187.859573241 l 1
EndSplineSet
EndChar

StartChar: less
Encoding: 60 60 29
Width: 486
GlyphClass: 2
Flags: HW
LayerCount: 2
Fore
SplineSet
450.653966183 66.6501147498 m 1
 390.730937861 0.387379892118 l 1
 75.2195219754 330.402327252 l 1
 390.785403024 660.476345691 l 1
 450.613593055 593.484402863 l 1
 197.514662202 330.39243912 l 1
 450.653966183 66.6501147498 l 1
EndSplineSet
EndChar

StartChar: equal
Encoding: 61 61 30
Width: 486
GlyphClass: 2
Flags: HW
LayerCount: 2
Fore
SplineSet
468.865716829 170.053228483 m 1
 17.1342831709 170.053228483 l 1
 17.1342831709 257.371576204 l 1
 468.865716829 257.371576204 l 1
 468.865716829 170.053228483 l 1
468.865716829 402.628423796 m 1
 17.1342831709 402.628423796 l 1
 17.1342831709 489.946771517 l 1
 468.865716829 489.946771517 l 1
 468.865716829 402.628423796 l 1
EndSplineSet
EndChar

StartChar: greater
Encoding: 62 62 31
Width: 486
GlyphClass: 2
Flags: HW
LayerCount: 2
Fore
SplineSet
411.074439026 330.40232725 m 1
 95.6194377716 0.447432990101 l 1
 35.0207524942 66.5949842309 l 1
 288.211921849 330.392440026 l 1
 35.0623465749 593.538229068 l 1
 95.5650651946 660.416195399 l 1
 411.074439026 330.40232725 l 1
EndSplineSet
EndChar

StartChar: question
Encoding: 63 63 32
Width: 486
GlyphClass: 2
Flags: HMW
HStem: -28.4883 139.295 638.832 74.168
VStem: 164.883 125.362 187.414 78.5859 352.055 82.3301
LayerCount: 2
Fore
SplineSet
157.384283171 41.16015625 m 0
 157.384283171 84.0069216057 188.050957994 118.305169954 227.5625 118.305169954 c 0
 267.902307388 118.305169954 297.743646517 84.1323483028 297.743646517 41.16015625 c 0
 297.743646517 -2.86179449266 267.878634453 -35.9868105791 227.5625 -35.9868105791 c 0
 188.065814085 -35.9868105791 157.384283171 -2.72669986037 157.384283171 41.16015625 c 0
344.556158171 545.27734375 m 0
 344.556158171 601.770192035 298.255935148 631.333501921 241.661132812 631.333501921 c 0
 200.24795583 631.333501921 152.814831273 608.679559227 114.843986949 557.449684117 c 2
 110.072409289 551.011920301 l 1
 43.3137314328 607.586070105 l 1
 65.8017964913 636.880372836 129.992112284 720.498529329 250 720.498529329 c 0
 369.030632041 720.498529329 441.883294954 636.912460322 441.883294954 550.474609375 c 0
 441.883294954 380.728714564 273.498529329 369.106600419 273.498529329 221.344726562 c 2
 273.498529329 210.501470671 l 1
 179.915533171 210.501470671 l 1
 179.915533171 226.541992188 l 2
 179.915533171 397.031344675 344.556158171 432.764802009 344.556158171 545.27734375 c 0
EndSplineSet
EndChar

StartChar: at
Encoding: 64 64 33
Width: 486
GlyphClass: 2
Flags: HW
LayerCount: 2
Fore
SplineSet
279.9765625 637.474126921 m 0
 179.243944769 637.474126921 89.7172793291 528.036396722 89.7172793291 312.4921875 c 0
 89.7172793291 178.257205676 124.652430395 82.6995271445 176.52734789 30.8246096498 c 0
 207.232605516 0.119352023638 243.833499088 -15.5307675459 283.541015625 -15.5307675459 c 0
 350.98086057 -15.5307675459 381.626181007 10.8009988254 412.595604617 37.4112484658 c 1
 449.775035227 -31.6367877965 l 1
 418.748581703 -56.4527967568 367.357502972 -97.5571230791 281.758789062 -97.5571230791 c 0
 134.951667947 -97.5571230791 9.58740817095 46.1369879258 9.58740817095 315.543945312 c 0
 9.58740817095 471.315309107 50.663315868 583.975919508 117.066672758 650.379276398 c 0
 162.824825971 696.137429611 220.436874254 719.498529329 283.541015625 719.498529329 c 0
 410.00993584 719.498529329 476.412591829 613.364495067 476.412591829 464.024414062 c 2
 476.412591829 148.354009733 l 1
 409.124036806 148.354009733 l 1
 404.401103574 193.16096459 l 1
 389.992039432 177.033969094 347.957903533 136.110845671 292.451171875 136.110845671 c 0
 222.989982037 136.110845671 165.512212859 192.46784812 165.512212859 282.248046875 c 0
 165.512212859 403.805893904 272.412404046 447.908353703 400.737798796 467.50858872 c 1
 400.737798796 470.76953125 l 2
 400.737798796 519.703876855 389.374365459 637.474126921 279.9765625 637.474126921 c 0
395.392095671 389.268532965 m 1
 274.108433196 367.658515092 248.316888704 330.046633914 248.316888704 285.743164062 c 0
 248.316888704 265.529680485 254.3860013 221.222162141 307.598632812 221.222162141 c 0
 332.69854605 221.222162141 363.523602572 238.40026125 395.392095671 278.968052822 c 1
 395.392095671 389.268532965 l 1
EndSplineSet
EndChar

StartChar: A
Encoding: 65 65 34
Width: 486
GlyphClass: 2
Flags: HW
LayerCount: 2
Fore
SplineSet
200.427526613 663.498529329 m 1
 289.814783761 663.498529329 l 1
 474.144591276 -7.49852932905 l 1
 385.295864099 -7.49852932905 l 1
 334.767543787 191.501470671 l 1
 153.819739218 191.501470671 l 1
 102.475989218 -7.49852932905 l 1
 16.082735778 -7.49852932905 l 1
 200.427526613 663.498529329 l 1
313.340643297 275.498529329 m 1
 259.159653619 488.705966457 259.159653619 488.705966457 244.18628306 555.722369726 c 1
 224.3912458 469.332937082 222.426554213 461.580310333 175.269207251 275.498529329 c 1
 313.340643297 275.498529329 l 1
EndSplineSet
EndChar

StartChar: B
Encoding: 66 66 35
Width: 486
GlyphClass: 2
Flags: HW
LayerCount: 2
Fore
SplineSet
344.164318196 352.404507606 m 1
 374.809488573 343.360389803 454.168451204 312.992841393 454.168451204 192.413085938 c 0
 454.168451204 129.959221337 435.476290154 81.5493668783 401.962960005 48.0360367299 c 0
 364.43356704 10.5066437648 309.353377988 -7.49852932905 244.108398438 -7.49852932905 c 2
 72.6909237959 -7.49852932905 l 1
 72.6909237959 663.498529329 l 1
 231.75 663.498529329 l 2
 289.44775087 663.498529329 424.198724641 652.885028517 424.198724641 495.489257812 c 0
 424.198724641 465.665151647 416.941172062 387.398639513 344.164318196 352.404507606 c 1
370.951665983 196.474609375 m 0
 370.951665983 261.428652412 337.829246904 301.501470671 234.221679688 301.501470671 c 2
 156.719232454 301.501470671 l 1
 156.719232454 79.4985293291 l 1
 234.22265625 79.4985293291 l 2
 336.981089507 79.4985293291 370.951665983 125.983617791 370.951665983 196.474609375 c 0
340.981939421 488.470703125 m 0
 340.981939421 546.630789968 311.860773198 576.501470671 223.650390625 576.501470671 c 2
 156.718255891 576.501470671 l 1
 156.718255891 388.498529329 l 1
 220.41015625 388.498529329 l 2
 312.488662287 388.498529329 340.981939421 424.733382218 340.981939421 488.470703125 c 0
EndSplineSet
EndChar

StartChar: C
Encoding: 67 67 36
Width: 486
GlyphClass: 2
Flags: HW
LayerCount: 2
Fore
SplineSet
292.985351562 585.501470671 m 0
 192.258647797 585.501470671 131.608880891 483.082447044 131.608880891 329.9921875 c 0
 131.608880891 228.450034814 157.522832358 151.854249148 199.97814855 109.398932956 c 0
 225.347717691 84.0293638151 256.636701451 70.4985293291 292.984375 70.4985293291 c 0
 355.891488205 70.4985293291 390.110567935 117.253563952 413.26620208 149.244044807 c 1
 461.854236151 84.1544370753 l 1
 435.59798908 46.752520519 384.892041516 -19.4985293291 286.442382812 -19.4985293291 c 0
 150.584224081 -19.4985293291 45.1518612959 107.804667482 45.1518612959 328 c 0
 45.1518612959 454.105197289 80.4795611574 552.403964355 140.110451816 612.034855014 c 0
 181.210359684 653.134762882 233.746437564 675.498529329 292.985351562 675.498529329 c 0
 320.707248363 675.498529329 390.154828817 667.213923581 445.691157731 591.433864644 c 2
 448.903908287 587.05002381 l 1
 400.623524538 519.834646993 l 1
 381.893959319 544.317427194 350.387765089 585.501470671 292.985351562 585.501470671 c 0
EndSplineSet
EndChar

StartChar: D
Encoding: 68 68 37
Width: 486
GlyphClass: 2
Flags: HW
LayerCount: 2
Fore
SplineSet
205.872070312 -7.49852932905 m 2
 62.9711972334 -7.49852932905 l 1
 62.9711972334 663.498529329 l 1
 202.58984375 663.498529329 l 2
 273.530123546 663.498529329 331.288485919 641.354762395 373.771259299 598.871989015 c 0
 430.424816116 542.218432198 459.028802767 450.820402804 459.028802767 330.991210938 c 0
 459.028802767 208.502812038 429.437236927 114.157970747 371.536989614 56.2577234328 c 0
 329.859650164 14.5803839835 273.907148437 -7.49852932905 205.872070312 -7.49852932905 c 2
372.571783171 330.98828125 m 0
 372.571783171 459.669283033 335.322203386 578.501470671 197.73046875 578.501470671 c 2
 146.998529329 578.501470671 l 1
 146.998529329 77.4985293291 l 1
 197.73046875 77.4985293291 l 2
 245.21788029 77.4985293291 282.126305626 92.2749787632 309.768343669 119.917016806 c 0
 351.094216007 161.242889144 372.571783171 233.05856732 372.571783171 330.98828125 c 0
EndSplineSet
EndChar

StartChar: E
Encoding: 69 69 38
Width: 486
GlyphClass: 2
Flags: HW
LayerCount: 2
Fore
SplineSet
440.398919954 -7.49852932905 m 1
 84.8413144209 -7.49852932905 l 1
 84.8413144209 663.498529329 l 1
 432.298334017 663.498529329 l 1
 432.298334017 576.501470671 l 1
 169.678216829 576.501470671 l 1
 169.678216829 388.498529329 l 1
 391.798334017 388.498529329 l 1
 391.798334017 300.501470671 l 1
 169.678216829 300.501470671 l 1
 169.678216829 78.4985293291 l 1
 440.398919954 78.4985293291 l 1
 440.398919954 -7.49852932905 l 1
EndSplineSet
EndChar

StartChar: F
Encoding: 70 70 39
Width: 486
GlyphClass: 2
Flags: HW
LayerCount: 2
Fore
SplineSet
185.068841829 -7.49852932905 m 1
 100.231939421 -7.49852932905 l 1
 100.231939421 663.498529329 l 1
 445.259271517 663.498529329 l 1
 445.259271517 576.501470671 l 1
 185.068841829 576.501470671 l 1
 185.068841829 372.498529329 l 1
 405.568841829 372.498529329 l 1
 405.568841829 285.501470671 l 1
 185.068841829 285.501470671 l 1
 185.068841829 -7.49852932905 l 1
EndSplineSet
EndChar

StartChar: G
Encoding: 71 71 40
Width: 486
GlyphClass: 2
Flags: HW
LayerCount: 2
Fore
SplineSet
279.228515625 70.4985293291 m 0
 290.776514498 70.4985293291 334.88430104 72.6501182098 363.661626921 104.055678124 c 1
 363.661626921 262.501470671 l 1
 256.908697233 262.501470671 l 1
 256.908697233 348.498529329 l 1
 442.828607454 348.498529329 l 1
 442.828607454 61.7916848493 l 1
 434.955683646 51.8630774031 430.528379274 47.2145009953 425.867439677 42.5535613981 c 0
 390.339941998 7.02606371923 337.792929477 -19.4985293291 275.135742188 -19.4985293291 c 0
 137.304328789 -19.4985293291 35.4301816084 107.043457744 35.4301816084 328 c 0
 35.4301816084 455.109597023 70.4133276394 553.549754368 129.810012767 612.946439495 c 0
 170.391350868 653.527777597 222.252035654 675.498529329 280.864257812 675.498529329 c 0
 370.416576798 675.498529329 418.917257517 612.601255837 438.457944302 587.172251582 c 1
 390.078998189 519.818098744 l 1
 367.573714893 549.339373133 340.005858608 585.501470671 280.864257812 585.501470671 c 0
 182.699741865 585.501470671 122.697748079 483.160466568 122.697748079 329.9921875 c 0
 122.697748079 226.795231918 146.536664619 149.480648233 188.501280081 107.516032771 c 0
 212.621538031 83.3957748213 242.788048225 70.4985293291 279.228515625 70.4985293291 c 0
EndSplineSet
EndChar

StartChar: H
Encoding: 72 72 41
Width: 486
GlyphClass: 2
Flags: HW
LayerCount: 2
Fore
SplineSet
141.328607454 -7.49852932905 m 1
 56.4907284834 -7.49852932905 l 1
 56.4907284834 663.498529329 l 1
 141.328607454 663.498529329 l 1
 141.328607454 389.498529329 l 1
 348.271001921 389.498529329 l 1
 348.271001921 663.498529329 l 1
 433.108880891 663.498529329 l 1
 433.108880891 -7.49852932905 l 1
 348.271001921 -7.49852932905 l 1
 348.271001921 300.501470671 l 1
 141.328607454 300.501470671 l 1
 141.328607454 -7.49852932905 l 1
EndSplineSet
EndChar

StartChar: I
Encoding: 73 73 42
Width: 486
GlyphClass: 2
Flags: HW
LayerCount: 2
Fore
SplineSet
420.148919954 -7.49852932905 m 1
 69.4516659834 -7.49852932905 l 1
 69.4516659834 78.4985293291 l 1
 201.848150359 78.4985293291 l 1
 201.848150359 576.501470671 l 1
 69.4516659834 576.501470671 l 1
 69.4516659834 663.498529329 l 1
 420.148919954 663.498529329 l 1
 420.148919954 576.501470671 l 1
 287.751459017 576.501470671 l 1
 287.751459017 78.4985293291 l 1
 420.148919954 78.4985293291 l 1
 420.148919954 -7.49852932905 l 1
EndSplineSet
EndChar

StartChar: J
Encoding: 74 74 43
Width: 486
GlyphClass: 2
Flags: HW
LayerCount: 2
Fore
SplineSet
223.779296875 70.4985293291 m 0
 287.367499453 70.4985293291 326.597173796 102.975573167 326.597173796 217.408203125 c 2
 326.597173796 577.501470671 l 1
 102.047369109 577.501470671 l 1
 102.047369109 664.498529329 l 1
 410.624505891 664.498529329 l 1
 410.624505891 210.334960938 l 2
 410.624505891 153.502631103 403.560772249 -19.4985293291 225.423828125 -19.4985293291 c 0
 196.719523428 -19.4985293291 109.989654366 -10.3245547971 58.8646205762 94.8701428123 c 2
 56.7560032295 99.2088267743 l 1
 110.505890602 164.291288529 l 1
 120.671465422 144.279313372 130.986621604 123.972871983 150.988979054 103.970514533 c 0
 173.767088228 81.1924053594 199.059614107 70.4985293291 223.779296875 70.4985293291 c 0
EndSplineSet
EndChar

StartChar: K
Encoding: 75 75 44
Width: 486
GlyphClass: 2
Flags: HW
LayerCount: 2
Fore
SplineSet
156.718255891 -7.49852932905 m 1
 71.8813534834 -7.49852932905 l 1
 71.8813534834 663.498529329 l 1
 156.718255891 663.498529329 l 1
 156.718255891 349.63007053 l 1
 371.706262341 663.498529329 l 1
 469.051947482 663.498529329 l 1
 293.515963691 405.957661489 l 1
 485.731093485 -7.49852932905 l 1
 390.964863825 -7.49852932905 l 1
 239.08812636 327.865825382 l 1
 156.718255891 207.34380512 l 1
 156.718255891 -7.49852932905 l 1
EndSplineSet
EndChar

StartChar: L
Encoding: 76 76 45
Width: 486
GlyphClass: 2
Flags: HW
LayerCount: 2
Fore
SplineSet
449.309076204 -7.49852932905 m 1
 101.041509733 -7.49852932905 l 1
 101.041509733 663.498529329 l 1
 184.259271517 663.498529329 l 1
 184.259271517 78.4985293291 l 1
 449.309076204 78.4985293291 l 1
 449.309076204 -7.49852932905 l 1
EndSplineSet
EndChar

StartChar: M
Encoding: 77 77 46
Width: 486
GlyphClass: 2
Flags: HW
LayerCount: 2
Fore
SplineSet
357.181158171 -7.49852932905 m 1
 357.181158171 327.825195312 l 2
 357.181158171 368.648721054 360.116008336 422.858413801 363.285303656 474.619451163 c 1
 352.606975129 429.200979143 l 1
 273.92633904 165.880376921 l 1
 212.365719825 165.880376921 l 1
 186.680177049 253.731699475 160.976559374 341.564947132 135.302448191 429.42770128 c 1
 125.728601061 469.096386288 l 1
 128.562779858 419.570456536 130.797357454 365.559368074 130.797357454 327.825195312 c 2
 130.797357454 -7.49852932905 l 1
 50.8208066084 -7.49852932905 l 1
 50.8208066084 663.498529329 l 1
 148.259226283 663.498529329 l 1
 149.75059334 657.958696759 l 1
 149.75059334 657.958696759 225.132981013 377.949317459 225.169904773 377.800031102 c 0
 244.695900395 298.854531147 244.695900395 298.854531147 244.695900395 298.854531147 c 1
 263.659547369 377.992873807 l 1
 341.357578928 663.498529329 l 1
 438.778802767 663.498529329 l 1
 438.778802767 -7.49852932905 l 1
 357.181158171 -7.49852932905 l 1
EndSplineSet
EndChar

StartChar: N
Encoding: 78 78 47
Width: 486
GlyphClass: 2
Flags: HW
LayerCount: 2
Fore
SplineSet
355.702449379 156.789805446 m 1
 349.17889 275.738822868 349.081548796 277.513719047 349.081548796 316.244140625 c 2
 349.081548796 663.498529329 l 1
 430.678216829 663.498529329 l 1
 430.678216829 -7.49852932905 l 1
 342.106267627 -7.49852932905 l 1
 168.289869821 408.442180985 l 1
 133.890563541 499.15679037 l 1
 140.518060579 379.710547237 140.518060579 379.710547237 140.518060579 342.744140625 c 2
 140.518060579 -7.49852932905 l 1
 58.9213925459 -7.49852932905 l 1
 58.9213925459 663.498529329 l 1
 147.413263623 663.498529329 l 1
 321.228187601 247.56134587 l 1
 355.702449379 156.789805446 l 1
EndSplineSet
EndChar

StartChar: O
Encoding: 79 79 48
Width: 486
GlyphClass: 2
Flags: HMW
HStem: -3.67773 72.0527 599.02 72.9629
VStem: 45.8652 68.9014 370.851 69.2842
LayerCount: 2
Fore
SplineSet
363.352056609 372.107335847 m 1
 362.098069086 447.5959433 346.155176955 591.521001921 242.805664062 591.521001921 c 0
 216.352392788 591.521001921 173.705766486 580.52318339 147.812057331 517.064751815 c 0
 131.822000151 477.85580108 123.20136067 427.314718908 122.265130891 372.124596726 c 2
 122.265130891 296.194697054 l 2
 123.220396577 239.853187965 135.302187467 75.8735293291 243.592773438 75.8735293291 c 0
 312.184300182 75.8735293291 360.810584304 143.092239979 363.352056609 296.17486572 c 1
 363.352056609 372.107335847 l 1
447.632840514 296.014787119 m 1
 445.901222927 138.135865441 383.163121401 -11.1762637041 243.588867188 -11.1762637041 c 0
 100.63361087 -11.1762637041 40.013001735 146.598766162 38.3667050464 296.101493649 c 1
 38.3667055523 296.101493649 38.3671640087 371.36746017 38.3671640087 371.36746017 c 1
 39.9745877184 517.199115152 97.2285477763 679.480951204 242.803710938 679.480951204 c 0
 382.781630836 679.480951204 445.898109699 529.267326616 447.633294954 371.275459118 c 1
 447.633294454 371.275459118 447.632840514 296.014787119 447.632840514 296.014787119 c 1
EndSplineSet
EndChar

StartChar: P
Encoding: 80 80 49
Width: 486
GlyphClass: 2
Flags: HW
LayerCount: 2
Fore
SplineSet
243.900390625 663.498529329 m 2
 350.84148904 663.498529329 450.928216829 624.845800097 450.928216829 462.487304688 c 0
 450.928216829 393.495375819 431.156950583 341.1921702 395.846385223 305.88160484 c 0
 358.928629269 268.963848886 305.989294271 251.501470671 243.900390625 251.501470671 c 2
 159.148919954 251.501470671 l 1
 159.148919954 -7.49852932905 l 1
 75.1215878584 -7.49852932905 l 1
 75.1215878584 663.498529329 l 1
 243.900390625 663.498529329 l 2
366.091314421 462.482421875 m 0
 366.091314421 549.089714491 328.047291707 579.501470671 235.799804688 579.501470671 c 2
 159.148919954 579.501470671 l 1
 159.148919954 336.498529329 l 1
 235.799804688 336.498529329 l 2
 327.400675471 336.498529329 366.091314421 375.873451164 366.091314421 462.482421875 c 0
EndSplineSet
EndChar

StartChar: Q
Encoding: 81 81 50
Width: 486
GlyphClass: 2
Flags: HMW
HStem: -0.207031 72.0537 602.49 72.9629
VStem: 35.1836 69.6719 369.488 69.6748
LayerCount: 2
Fore
SplineSet
112.353998079 308.201171875 m 2
 112.353998079 256.592452275 120.846303947 79.3452090166 237.513671875 79.3452090166 c 0
 294.20894504 79.3452090166 359.044343051 120.748005477 361.989751921 308.242806887 c 1
 361.989751921 366.981819475 l 2
 361.039027698 427.495781341 353.888507349 594.991705046 237.119140625 594.991705046 c 0
 120.350371408 594.991705046 112.353998079 416.068875884 112.353998079 367.041015625 c 2
 112.353998079 308.201171875 l 2
446.661197146 308.038675202 m 2
 446.080308153 252.824053236 436.48005912 123.056877521 363.48700728 45.9077465169 c 1
 460.797839492 -48.6030963898 l 1
 402.679640603 -113.368909769 l 1
 288.227018629 -0.435980728307 l 1
 273.0657388 -5.05225401752 256.278741726 -7.70556057905 237.513671875 -7.70556057905 c 0
 192.978635362 -7.70556057905 123.711720234 8.41585872489 76.236532466 96.0696883182 c 0
 46.2930769408 151.363222687 28.5863434423 223.674908488 27.6850644216 308.178627234 c 1
 27.6850650148 308.178627234 27.6854932655 366.229915745 27.6854932655 366.229915745 c 2
 28.204973107 414.986165238 36.8810592512 554.042236792 115.48215513 633.051669087 c 0
 144.191585985 661.761099942 183.860628446 682.951654329 237.120117188 682.951654329 c 0
 382.508569784 682.951654329 444.963232141 525.623726565 446.661615266 366.10066933 c 1
 446.661614689 366.10066933 446.661197146 308.038675202 446.661197146 308.038675202 c 2
EndSplineSet
EndChar

StartChar: R
Encoding: 82 82 51
Width: 486
GlyphClass: 2
Flags: HW
LayerCount: 2
Fore
SplineSet
442.828607454 471.5625 m 0
 442.828607454 412.451422742 426.161172005 318.005509545 326.586894666 281.163402518 c 1
 463.997564928 -7.49852932905 l 1
 368.355636358 -7.49852932905 l 1
 239.335128545 268.501470671 l 1
 157.528802767 268.501470671 l 1
 157.528802767 -7.49852932905 l 1
 73.5014706709 -7.49852932905 l 1
 73.5014706709 663.498529329 l 1
 247.9296875 663.498529329 l 2
 344.739941768 663.498529329 442.828607454 625.512546754 442.828607454 471.5625 c 0
358.745611296 471.479492188 m 0
 358.745611296 547.472084342 322.393817866 579.501470671 238.130859375 579.501470671 c 2
 157.528802767 579.501470671 l 1
 157.528802767 353.498529329 l 1
 238.130859375 353.498529329 l 2
 310.629435097 353.498529329 358.745611296 385.779870363 358.745611296 471.479492188 c 0
EndSplineSet
EndChar

StartChar: S
Encoding: 83 83 52
Width: 486
GlyphClass: 2
Flags: HW
LayerCount: 2
Fore
SplineSet
72.1528378584 493.576171875 m 0
 72.1528378584 598.001960435 148.921176479 675.498529329 255.69921875 675.498529329 c 0
 289.043959455 675.498529329 365.844213486 666.418737671 427.113432355 590.779554301 c 2
 430.566444848 586.516678914 l 1
 385.558868788 518.323635981 l 1
 361.481394121 544.592236237 323.984494928 585.501470671 253.243164062 585.501470671 c 0
 222.196006566 585.501470671 197.458727432 575.878415174 181.064608616 559.484296358 c 0
 166.335114732 544.754802474 157.800287141 524.131946291 157.800287141 498.313476562 c 0
 157.800287141 445.973422058 195.21669107 425.299750166 239.937296277 401.934584329 c 0
 245.960846902 398.787461014 245.960846902 398.787461014 324.188868288 357.382233941 c 0
 387.832033039 325.515675347 446.340326204 279.1095878 446.340326204 175.380859375 c 0
 446.340326204 66.723859329 370.941395237 -19.4985293291 249.150390625 -19.4985293291 c 0
 202.848768044 -19.4985293291 118.844231444 -5.68464737397 48.4363587099 81.2370640789 c 2
 44.8875601277 85.6182168448 l 1
 95.4460239017 158.022871818 l 1
 105.712057446 145.349030331 110.33166153 139.645938711 119.755136979 130.222463262 c 0
 156.259348199 93.7182520415 202.250084342 70.4985293291 252.424804688 70.4985293291 c 0
 289.380875821 70.4985293291 317.241331978 81.6904479929 335.34200354 99.7911195543 c 0
 351.754324333 116.203440347 360.692876921 138.766478779 360.692876921 165.66015625 c 0
 360.692876921 228.419543317 326.600836108 246.383443052 268.978860047 276.745820189 c 2
 268.978860047 276.745820189 195.667357517 315.673247256 192.177785113 317.526161086 c 0
 144.75692477 340.385116721 72.1528378584 387.918343541 72.1528378584 493.576171875 c 0
EndSplineSet
EndChar

StartChar: T
Encoding: 84 84 53
Width: 486
GlyphClass: 2
Flags: HW
LayerCount: 2
Fore
SplineSet
26.5210019209 576.501470671 m 1
 26.5210019209 663.498529329 l 1
 463.078607454 663.498529329 l 1
 463.078607454 576.501470671 l 1
 287.534452161 576.501470671 l 1
 288.126249037 -7.49852932907 l 1
 203.297251214 -7.49852932907 l 1
 202.088266838 576.501470671 l 1
 26.5210019209 576.501470671 l 1
EndSplineSet
EndChar

StartChar: U
Encoding: 85 85 54
Width: 486
GlyphClass: 2
Flags: HMW
HStem: -12 75<213.667 277.549 213.667 298.142> 636 20G<63.9893 133.83 133.83 133.83 358.2 425.61 425.61 425.61>
VStem: 63.9893 69.8408 358.2 67.4102
LayerCount: 2
Fore
SplineSet
245.606445312 70.4985293291 m 0
 297.418820688 70.4985293291 350.701665983 104.893902329 350.701665983 246.381835938 c 2
 350.701665983 663.498529329 l 1
 433.108880891 663.498529329 l 1
 433.108880891 248.220703125 l 2
 433.108880891 140.618256409 408.834251449 68.9489924084 366.655943981 26.7706849411 c 0
 334.497212732 -5.38804630804 292.535384434 -19.4985293291 245.606445312 -19.4985293291 c 0
 153.150971378 -19.4985293291 56.4907284834 34.8482066176 56.4907284834 248.220703125 c 2
 56.4907284834 663.498529329 l 1
 141.328607454 663.498529329 l 1
 141.328607454 246.381835938 l 2
 141.328607454 155.740762211 163.227898726 70.4985293291 245.606445312 70.4985293291 c 0
EndSplineSet
EndChar

StartChar: V
Encoding: 86 86 55
Width: 486
GlyphClass: 2
Flags: HW
LayerCount: 2
Fore
SplineSet
25.1318110809 663.498529329 m 1
 113.878807721 663.498529507 l 1
 207.340644249 281.998529682 207.340644249 281.998529682 222.027221308 218.382142421 c 0
 229.952508189 184.052964332 237.723037943 150.395190846 246.729488177 113.992561322 c 1
 258.723215733 162.100406769 258.959730993 163.04908928 291.55076004 304.27872897 c 1
 378.725194478 663.498529329 l 1
 465.043236656 663.498529329 l 1
 291.52739124 -7.49852932905 l 1
 199.467743591 -7.49852932905 l 1
 25.1318110809 663.498529329 l 1
EndSplineSet
EndChar

StartChar: W
Encoding: 87 87 56
Width: 486
GlyphClass: 2
Flags: HW
LayerCount: 2
Fore
SplineSet
-0.383753381702 664.498529329 m 1
 92.9032302931 664.49852954 l 1
 137.001542148 198.865768102 137.001542148 198.865768102 139.473755463 163.210791481 c 1
 144.109652608 190.865659042 148.007148361 215.169190373 154.824715361 246.818581257 c 0
 208.823458903 497.498529329 208.823458903 497.498529329 208.823458903 497.498529329 c 1
 287.579635021 497.498529358 l 1
 349.225873017 202.116261637 349.225873017 202.116261637 355.923342978 160.548706413 c 1
 358.369713047 202.867048142 358.369713047 202.867048142 400.166091653 664.498529329 c 1
 490.199600563 664.498529329 l 1
 410.421125554 -7.49852932905 l 1
 311.853669878 -7.49852992652 l 1
 249.506947436 305.236226062 249.506947436 305.236226062 245.316021226 331.101567054 c 1
 241.95876368 308.494616882 238.284784547 285.988527144 233.480016401 262.617895656 c 0
 233.471091411 262.573816102 180.829625776 -1.47487778223 180.829625776 -1.47487778223 c 1
 179.628731095 -7.49852932905 l 1
 82.7179091367 -7.49852932905 l 1
 -0.383753381702 664.498529329 l 1
EndSplineSet
EndChar

StartChar: X
Encoding: 88 88 57
Width: 486
GlyphClass: 2
Flags: HW
LayerCount: 2
Fore
SplineSet
31.9112433966 -7.49852932905 m 1
 195.240074829 338.968848186 l 1
 42.4489554283 663.498529329 l 1
 135.696659653 663.498535989 l 1
 212.985326219 490.605970793 l 2
 225.065760531 464.492622472 235.909402366 440.649852453 249.802553767 409.891979327 c 1
 269.334104051 460.156497905 269.334104051 460.156497905 358.260018391 663.498529329 c 1
 448.246049792 663.498529329 l 1
 295.49987537 335.025456042 l 1
 458.92331074 -7.49852932905 l 1
 365.64392609 -7.49852932905 l 1
 285.410399222 168.341452272 274.114369629 193.097856649 241.739330259 265.126154421 c 1
 228.472486953 231.479181055 216.720274882 202.420481664 204.092416944 174.463068775 c 0
 121.903652913 -7.49852932905 121.903652913 -7.49852932905 121.903652913 -7.49852932905 c 1
 31.9112433966 -7.49852932905 l 1
EndSplineSet
EndChar

StartChar: Y
Encoding: 89 89 58
Width: 486
GlyphClass: 2
Flags: HW
LayerCount: 2
Fore
SplineSet
471.191848528 663.498529329 m 1
 287.952630891 232.528675161 l 1
 287.952630891 -7.49852932905 l 1
 202.669439421 -7.49852932905 l 1
 202.669439421 232.528751654 l 1
 19.4402290044 663.498529329 l 1
 109.069601332 663.498529329 l 1
 198.307234535 447.868515684 198.307234535 447.868515684 218.313290394 396.997242049 c 0
 227.567769718 373.462115636 236.921469031 349.678814397 246.866746852 325.337440436 c 1
 247.428475569 326.728016738 295.421176335 443.855338623 303.546564651 464.18921142 c 2
 383.107057975 663.498529329 l 1
 471.191848528 663.498529329 l 1
EndSplineSet
EndChar

StartChar: Z
Encoding: 90 90 59
Width: 486
GlyphClass: 2
Flags: HW
LayerCount: 2
Fore
SplineSet
447.687982454 -7.49852932905 m 1
 45.1518612959 -7.49852932905 l 1
 45.1518612959 53.0619224919 l 1
 337.436167107 577.501470671 l 1
 71.0717831709 577.501470671 l 1
 71.0717831709 664.498529329 l 1
 443.638177767 664.498529329 l 1
 443.638177767 603.760325296 l 1
 150.555429813 78.4985293291 l 1
 447.687982454 78.4985293291 l 1
 447.687982454 -7.49852932905 l 1
EndSplineSet
EndChar

StartChar: bracketleft
Encoding: 91 91 60
Width: 486
GlyphClass: 2
Flags: HMW
HStem: -130.17 69.1699 668 67.1699
VStem: 187.1 66.1611 187.1 231.801
LayerCount: 2
Fore
SplineSet
426.398919954 742.668451204 m 1
 426.398919954 660.501470671 l 1
 260.759271517 660.501470671 l 1
 260.759271517 -53.5014706709 l 1
 426.398919954 -53.5014706709 l 1
 426.398919954 -137.668451204 l 1
 179.595656208 -137.668450215 l 1
 179.915325865 742.668451204 l 1
 426.398919954 742.668451204 l 1
EndSplineSet
EndChar

StartChar: backslash
Encoding: 92 92 61
Width: 486
GlyphClass: 2
Flags: HW
LayerCount: 2
Fore
SplineSet
107.588282445 738.587997075 m 1
 458.591982364 -67.0553012248 l 1
 379.308111494 -112.684841978 l 1
 27.3375152757 695.116053934 l 1
 107.588282445 738.587997075 l 1
EndSplineSet
EndChar

StartChar: bracketright
Encoding: 93 93 62
Width: 486
GlyphClass: 2
Flags: HMW
VStem: 67.0996 231.801
LayerCount: 2
Fore
SplineSet
59.6010800459 -137.668451204 m 1
 59.6010800459 -53.5014706709 l 1
 225.240728483 -53.5014706709 l 1
 225.240728483 660.501470671 l 1
 59.6010800459 660.501470671 l 1
 59.6010800459 742.668451204 l 1
 306.081975651 742.668450216 l 1
 306.401643315 -137.668451204 l 1
 59.6010800459 -137.668451204 l 1
EndSplineSet
EndChar

StartChar: asciicircum
Encoding: 94 94 63
Width: 486
GlyphClass: 2
Flags: HMW
HStem: 419.069 293.66
LayerCount: 2
Fore
SplineSet
236.641336569 720.228021517 m 1
 266.712890625 720.228021517 l 1
 270.967456555 720.228021517 l 1
 437.651158237 441.705182236 l 1
 360.947574683 409.697672315 l 1
 248.536532817 589.104393079 l 1
 121.136130777 409.80719023 l 1
 47.9233210021 440.894471899 l 1
 236.641336569 720.228021517 l 1
EndSplineSet
EndChar

StartChar: underscore
Encoding: 95 95 64
Width: 486
GlyphClass: 2
Flags: HW
LayerCount: 2
Fore
SplineSet
41.1010800459 -147.498529329 m 1
 41.1010800459 -61.5014706709 l 1
 444.898919954 -61.5014706709 l 1
 444.898919954 -147.498529329 l 1
 41.1010800459 -147.498529329 l 1
EndSplineSet
EndChar

StartChar: grave
Encoding: 96 96 65
Width: 486
GlyphClass: 2
Flags: HMW
HStem: 444.919 279.081
VStem: 139.809 206.383
LayerCount: 2
Fore
SplineSet
361.645944062 539.06350492 m 1
 292.244151764 476.579553718 l 1
 96.8696475783 693.588902306 l 1
 166.271506507 756.071750053 l 1
 361.645944062 539.06350492 l 1
EndSplineSet
EndChar

StartChar: a
Encoding: 97 97 66
Width: 486
GlyphClass: 2
Flags: HMW
LayerCount: 2
Fore
SplineSet
341.835429705 311.175555139 m 1
 341.792934898 406.765535963 288.727998543 426.434087859 238.76953125 426.434087859 c 0
 195.460408347 426.434087859 156.292051937 419.714890968 126.598783164 409.405148808 c 2
 117.903170476 406.385962021 l 1
 107.724872515 483.311844442 l 1
 128.66972204 492.7618019 145.0172981 495.843768669 164.218292242 499.084695503 c 0
 189.566167528 503.364051891 216.646573867 505.498529329 245.455078125 505.498529329 c 0
 272.157716373 505.498529329 388.529105362 505.465334941 416.338280184 392.149769186 c 0
 422.108943299 368.630950267 424.986763394 342.987489231 424.986763388 315.278962604 c 2
 423.875028153 0.70072337231 l 1
 330.470606953 -16.9215027061 300.542213169 -19.4985293291 254.8671875 -19.4985293291 c 0
 162.133116043 -19.4985293291 106.387260029 6.30848671713 77.478149695 61.1078407194 c 0
 66.4439005965 82.0314334423 61.0131894209 108.52036249 61.0131894209 140.545898438 c 0
 61.0131894209 167.419992489 65.0357651658 207.71909548 101.976987147 244.660317461 c 0
 123.244102827 265.927433141 150.666892021 280.096797005 182.968380183 287.681053863 c 0
 205.807247068 293.042543906 228.832350959 295.727044954 252.001953125 295.727044954 c 0
 282.350585749 295.727044954 312.502866385 291.537427516 341.031778641 284.749405389 c 1
 341.835429705 311.175555139 l 1
261.548828125 220.101080046 m 0
 217.157701346 220.101080046 185.248482163 210.379301701 165.80756861 190.938388148 c 0
 154.744457878 179.875277416 147.025873079 164.971563547 147.025873079 143.559570312 c 0
 147.025873079 117.311841393 154.10915354 93.5960756043 174.931026965 80.583126159 c 0
 193.698286311 68.8526902523 219.276181972 62.8588808916 252.001953125 62.8588808916 c 0
 284.427440549 62.8588808916 315.438530479 65.0869648061 340.745611296 69.6815928765 c 1
 340.745611296 209.371374535 l 1
 319.040724473 215.972707504 290.248726997 220.101080046 261.548828125 220.101080046 c 0
EndSplineSet
EndChar

StartChar: b
Encoding: 98 98 67
Width: 486
GlyphClass: 2
Flags: HMW
HStem: -11.8779 65.5234<188.948 218.331 183.546 238.263> 413.536 74.8711<216.526 239.962> 692 20G<55.3125 123.3 123.3 123.3>
VStem: 55.5586 67.9873<11.8857 373.686> 337.2 69.8418<204.074 259.158>
LayerCount: 2
Fore
SplineSet
329.701665983 233.590820312 m 0
 329.701665983 270.048862447 326.181089362 406.037603483 217.8671875 406.037603483 c 0
 200.475223072 406.037603483 183.720756971 402.223734305 167.453456905 394.526384396 c 0
 151.298305097 386.879203475 139.991103015 379.256864577 131.044427767 370.579450673 c 1
 131.044427767 70.7418181736 l 1
 151.114182475 65.238195338 173.586419675 61.1440371416 196.557617188 61.1440371416 c 0
 230.350189435 61.1440371416 266.552730903 70.4001501756 294.109409062 103.768297902 c 0
 317.653625716 132.278386826 329.701665983 175.494352916 329.701665983 233.590820312 c 0
131.031391449 469.36679668 m 1
 161.404412244 487.155323028 193.335670885 495.905755891 227.130859375 495.905755891 c 0
 343.314503908 495.905755891 414.540521517 392.123841082 414.540521517 238.265625 c 0
 414.540521517 81.7530071413 332.364199117 -19.3764590166 205.822265625 -19.3764590166 c 0
 171.661159087 -19.3764590166 141.156093438 -16.5797136265 114.300450451 -10.9505788521 c 0
 80.7060975101 -3.90942528856 64.4015900583 1.03952811764 48.0638822035 6.47402426141 c 1
 47.8113140619 719.498529329 l 1
 130.791135018 719.498529329 l 1
 131.031391449 469.36679668 l 1
EndSplineSet
EndChar

StartChar: c
Encoding: 99 99 68
Width: 486
GlyphClass: 2
Flags: HW
LayerCount: 2
Fore
SplineSet
135.130365267 242.005859375 m 0
 135.130365267 137.646743758 191.354459766 65.4985293291 279.493164062 65.4985293291 c 0
 325.417221315 65.4985293291 363.928306557 90.8173890089 396.249960017 124.735269398 c 2
 403.231931348 132.062050151 l 1
 441.82142335 63.816912996 l 1
 423.735240516 43.9689169417 365.901500822 -19.4985293291 274.578125 -19.4985293291 c 0
 146.2446529 -19.4985293291 49.4838925459 76.2442679715 49.4838925459 242.00390625 c 0
 49.4838925459 409.264924765 153.91777144 505.498529329 278.674804688 505.498529329 c 0
 310.941321086 505.498529329 373.617769305 498.126706001 429.487902344 430.875063982 c 2
 432.952618122 426.704538292 l 1
 390.63774 359.175299826 l 1
 367.708102901 383.94557448 333.868614032 420.501470671 281.130859375 420.501470671 c 0
 193.148961924 420.501470671 135.130365267 347.558151401 135.130365267 242.005859375 c 0
EndSplineSet
EndChar

StartChar: d
Encoding: 100 100 69
Width: 486
GlyphClass: 2
Flags: HMW
HStem: -11.8779 66.5518<237.371 272.656 237.371 273.963> 413.536 74.8711<234.249 246.712 221.243 253.991> 692 20G<338.812 406.8 406.8 406.8>
VStem: 55.5586 69.8408<205.427 272.637 205.427 294.936> 339.054 67.9883<11.9209 373.686>
LayerCount: 2
Fore
SplineSet
256.77734375 -19.3764590166 m 0
 129.9734382 -19.3764590166 48.0600644209 82.060836532 48.0600644209 238.265625 c 0
 48.0600644209 269.836958592 48.488101184 416.236613792 156.417662999 476.569772364 c 0
 179.478419453 489.461787232 205.922678475 495.905755891 235.46875 495.905755891 c 0
 258.632214676 495.905755891 279.116198495 492.774738397 296.857110783 486.439215312 c 0
 311.310031207 481.277990248 322.851288414 475.877310277 331.540931135 470.099788263 c 1
 331.306931822 719.498529329 l 1
 414.29311948 719.498528413 l 1
 414.542432155 6.45774407134 l 1
 336.655087048 -18.6448591683 287.453970663 -19.3764590166 256.77734375 -19.3764590166 c 0
331.555181609 370.579142603 m 1
 328.210258431 373.8227186 293.754310774 406.037603483 244.733398438 406.037603483 c 0
 165.359605535 406.037603483 132.897943391 331.757224507 132.897943391 233.590820312 c 0
 132.897943391 155.397411941 156.264692863 116.141307927 178.47688266 93.9291181297 c 0
 199.689720148 72.7162806413 225.618495963 62.1723574541 256.77734375 62.1723574541 c 0
 285.379523182 62.1723574541 312.079088296 65.1621512759 331.555181609 70.7364580649 c 1
 331.555181609 370.579142603 l 1
EndSplineSet
EndChar

StartChar: e
Encoding: 101 101 70
Width: 486
GlyphClass: 5
Flags: HMW
HStem: -15 69<235.124 300.212 235.124 300.494> 215.5 67<124.408 375.209 124.408 435.336 122.699 375.209> 427 68<225.698 291.614>
VStem: 52.6504 70.0488
LayerCount: 2
Fore
SplineSet
45.1518612959 240.994140625 m 0
 45.1518612959 403.113805605 147.345903435 502.498529329 259 502.498529329 c 0
 309.895794888 502.498529329 351.864809306 485.193629906 382.925647063 454.132792149 c 0
 424.76707313 412.291366082 446.248529329 346.567576505 446.248529329 266.724609375 c 0
 446.248529329 244.605135424 444.436300661 227.808278264 441.953695775 208.001470671 c 1
 130.935814752 208.001470671 l 1
 136.167530457 159.905214014 152.936010764 124.072060171 177.044922249 99.9631486866 c 0
 202.546578256 74.4614926796 236.750007753 61.4985293291 276.153320312 61.4985293291 c 0
 335.323701717 61.4985293291 372.943544453 91.0544843569 400.31024032 112.555074829 c 1
 432.107650011 41.8967340855 l 1
 408.577180691 22.529693714 353.41633395 -22.4985293291 267.921875 -22.4985293291 c 0
 143.603339264 -22.4985293291 45.1518612959 74.4311932142 45.1518612959 240.994140625 c 0
367.138285386 289.998529329 m 1
 362.651520338 342.286750635 343.117415952 419.501470671 259 419.501470671 c 0
 199.389653961 419.501470671 147.230045836 373.377970828 133.12761376 289.998529329 c 1
 367.138285386 289.998529329 l 1
EndSplineSet
EndChar

StartChar: f
Encoding: 102 102 71
Width: 486
GlyphClass: 2
Flags: HW
LayerCount: 2
Fore
SplineSet
337.083984375 635.501470671 m 0
 274.271764511 635.501470671 244.223138704 607.424027495 244.223138704 529 c 2
 244.223138704 493.498529329 l 1
 410.504388704 493.498529329 l 1
 410.504388704 409.501470671 l 1
 244.241881881 409.501470671 l 1
 245.282897506 -7.49852932905 l 1
 162.888376505 -7.49852932905 l 1
 161.13642338 409.501470671 l 1
 33.903488916 409.501470671 l 1
 33.3803958268 493.50329238 l 1
 161.104986296 493.461761328 l 1
 161.104986296 526 l 2
 161.104986296 620.396313568 193.691167146 719.498529329 330.53515625 719.498529329 c 0
 350.125093987 719.498529329 391.097497739 719.498529329 453.788878867 687.53030394 c 1
 434.108491988 608.247358446 l 1
 405.412281803 624.189697438 384.520933252 635.501470671 337.083984375 635.501470671 c 0
EndSplineSet
EndChar

StartChar: g
Encoding: 103 103 72
Width: 486
GlyphClass: 5
Flags: HMW
HStem: -199.85 67.2832<199.79 253.776> 0.304688 66.8994<233.162 255.705> 411.022 77.5068<242.654 273.501>
VStem: 64.416 73.0781<205.914 260.18 205.914 278.291> 350.431 71.1533<101.683 397.88 397.88 397.88>
LayerCount: 2
Fore
SplineSet
342.932134733 392.574576428 m 1
 317.853484464 400.99341629 292.760865494 403.523931609 262.529296875 403.523931609 c 0
 221.898766424 403.523931609 194.971798773 385.795505587 176.840817723 357.750511371 c 0
 155.712460298 326.884309386 144.992669954 285.598444278 144.992669954 233.760742188 c 0
 144.992669954 196.203759264 150.288305837 138.225027855 188.521004705 99.9923289868 c 0
 204.152525308 84.3608083836 223.980790014 74.7026308916 250.719726562 74.7026308916 c 0
 264.3171017 74.7026308916 304.967990766 77.2733472219 342.932134733 105.397060265 c 1
 342.932134733 392.574576428 l 1
56.9174862959 240.065429688 m 0
 56.9174862959 397.031013999 143.121013428 496.027826204 261.622070312 496.027826204 c 0
 298.179801147 496.027826204 330.291449668 492.972665826 357.892871637 486.8390165 c 0
 379.923198727 481.865697616 400.341413486 476.962134284 429.082513704 468.217638468 c 1
 429.082513704 16.232421875 l 2
 429.082513704 -72.3820360329 406.818812241 -124.222376661 375.812026218 -155.043945554 c 0
 340.139658761 -189.953889466 288.049491395 -207.348138704 220.743164062 -207.348138704 c 0
 200.149589645 -207.348138704 149.847632202 -207.348138704 79.7151145954 -180.627874769 c 1
 95.1852108159 -96.9863010898 l 1
 116.785119738 -106.521679514 158.796685198 -125.067876921 222.560546875 -125.067876921 c 0
 302.990450937 -125.067876921 342.934087859 -91.3150332687 342.934087859 6.203125 c 2
 342.934087859 18.8604960913 l 1
 333.342302482 13.4622551514 322.802980947 8.69250221982 306.61698689 2.84258311089 c 0
 288.53750066 -3.87634748808 267.755002302 -7.19384182905 244.36328125 -7.19384182905 c 0
 147.569913133 -7.19384182905 56.9174862959 66.5359175258 56.9174862959 240.065429688 c 0
EndSplineSet
EndChar

StartChar: h
Encoding: 104 104 73
Width: 486
GlyphClass: 2
Flags: HMW
HStem: 0 21G<73.7773 144.512 73.7773 73.7773 342.701 412.471 342.701 342.701> 429.463 67.8838<223.956 252.358> 704 20G<73.5293 144.264 144.264 144.264>
VStem: 73.7773 70.7344<0 410.496> 342.701 69.7695<0 256.169 256.169 275.448 0 287.068>
LayerCount: 2
Fore
SplineSet
232.0390625 421.964361296 m 0
 228.108606405 421.964361296 186.786234955 421.583067277 152.010248079 405.775393769 c 1
 152.010248079 -7.49852932905 l 1
 66.2839777647 -7.49852843087 l 1
 66.0281714525 731.498529329 l 1
 151.754684387 731.498529329 l 1
 151.998754628 488.145124712 l 1
 176.010332664 497.993946129 208.824720728 504.845209017 239.75 504.845209017 c 0
 364.575480116 504.845209017 419.969232454 428.989326264 419.969232454 275.448242188 c 2
 419.969232454 -7.49852932905 l 1
 335.202642546 -7.49852932905 l 1
 335.202642546 256.168945312 l 2
 335.202642546 357.403667092 313.9574836 386.556553923 302.061790103 398.452247419 c 0
 286.55619836 413.957839163 263.375179217 421.964361296 232.0390625 421.964361296 c 0
EndSplineSet
EndChar

StartChar: i
Encoding: 105 105 74
Width: 486
GlyphClass: 2
Flags: HW
LayerCount: 2
Fore
SplineSet
282.780273438 723.498529329 m 0
 317.089880046 723.498529329 344.638177767 694.073508459 344.638177767 651 c 0
 344.638177767 606.872130687 317.014755784 578.501470671 282.780273438 578.501470671 c 0
 248.543958696 578.501470671 220.921392546 606.873115159 220.921392546 651 c 0
 220.921392546 694.073798734 248.470951614 723.498529329 282.780273438 723.498529329 c 0
248.461431609 409.501470671 m 1
 65.4018612959 409.501470671 l 1
 65.4018612959 493.498529329 l 1
 331.678216829 493.498529329 l 1
 331.678216829 -7.49852932905 l 1
 248.461431609 -7.49852932905 l 1
 248.461431609 409.501470671 l 1
EndSplineSet
EndChar

StartChar: j
Encoding: 106 106 75
Width: 486
GlyphClass: 2
Flags: HW
LayerCount: 2
Fore
SplineSet
260.376953125 723.498529329 m 0
 294.686559734 723.498529329 322.234857454 694.073508459 322.234857454 651 c 0
 322.234857454 606.871131462 294.61153895 578.501470671 260.376953125 578.501470671 c 0
 226.13803835 578.501470671 198.501470671 606.876634489 198.501470671 651 c 0
 198.501470671 694.073675849 226.068035498 723.498529329 260.376953125 723.498529329 c 0
157.577148438 -140.501470671 m 0
 226.32050273 -140.501470671 250.493658171 -104.451473454 250.493658171 -17 c 2
 250.493658171 409.501470671 l 1
 65.6333066084 409.501470671 l 1
 65.6333066084 493.498529329 l 1
 333.710443391 493.498529329 l 1
 333.710443391 -11 l 2
 333.710443391 -113.668746347 306.91397485 -224.498529329 158.40625 -224.498529329 c 0
 114.667786732 -224.498529329 73.4765231591 -209.608350149 40.6860974082 -189.88588087 c 2
 35.4131873149 -186.714381723 l 1
 63.1135517547 -109.455302703 l 1
 81.0017787694 -120.181832439 114.888069161 -140.501470671 157.577148438 -140.501470671 c 0
EndSplineSet
EndChar

StartChar: k
Encoding: 107 107 76
Width: 486
GlyphClass: 2
Flags: HW
LayerCount: 2
Fore
SplineSet
161.578607454 -7.49852932905 m 1
 78.3618222334 -7.49852932905 l 1
 78.3618222334 719.498529329 l 1
 161.578607454 719.498529329 l 1
 161.578607454 248.330555994 l 1
 366.364719093 493.498529329 l 1
 464.59529822 493.498529329 l 1
 298.996584228 294.02228295 l 1
 482.678828499 -7.49852932905 l 1
 388.372293306 -7.49852932905 l 1
 245.904661969 231.423902742 l 1
 161.578607454 129.900343243 l 1
 161.578607454 -7.49852932905 l 1
EndSplineSet
EndChar

StartChar: l
Encoding: 108 108 77
Width: 486
GlyphClass: 2
Flags: HMW
HStem: -1.125 68.0049 644.821 67.5986
VStem: 181.08 67.4414
LayerCount: 2
Fore
SplineSet
402.298334017 -8.62352932905 m 1
 173.581571469 -8.62352932905 l 1
 173.581571469 -1.12502284689 l 2
 173.581571469 211.69090468 173.579618344 424.506832206 173.579618344 637.322759733 c 1
 27.3012753584 637.322759733 l 1
 27.3012753584 719.918451204 l 1
 256.020013704 719.918451204 l 1
 256.020013704 74.3784121416 l 1
 402.298334017 74.3784121416 l 1
 402.298334017 -8.62352932905 l 1
EndSplineSet
EndChar

StartChar: m
Encoding: 109 109 78
Width: 486
GlyphClass: 2
Flags: HMW
HStem: 0 21G<33.9551 100.05 33.9551 33.9551 208.85 275.94 208.85 208.85 385.737 451.837 385.737 385.737> 427.785 70.2148<143.101 161.856>
VStem: 33.9551 66.0947<0 0> 208.85 67.0908<0 0> 385.737 66.0996<0 0>
LayerCount: 2
Fore
SplineSet
324.478515625 420.285650359 m 0
 315.179655497 420.285650359 311.11208516 418.35410527 300.393374409 413.264169166 c 0
 292.712713307 409.61689524 285.228799975 403.554147309 277.796083571 395.049532689 c 1
 281.492422506 379.253692677 283.646965437 361.903285022 283.646965437 342.692679394 c 2
 283.43440901 -7.49852932905 l 1
 201.324775286 -7.49852932896 l 1
 202.559405231 345.070464464 l 2
 202.559405231 356.581440052 201.247805863 392.788244084 185.336516508 408.699533438 c 0
 177.827749497 416.208300449 166.358734425 420.286626921 150.607421875 420.286626921 c 0
 138.423606254 420.286626921 122.982472725 416.534355582 107.754748037 410.775506683 c 1
 107.544566991 -7.49852932903 l 1
 26.4498867491 -7.49852782622 l 1
 26.6667366013 477.000289778 l 1
 45.8013984307 485.524974725 90.6343999148 505.498529329 143.532226562 505.498529329 c 0
 185.015767525 505.498529329 219.636068643 492.745697044 242.776130167 470.064211611 c 1
 271.575726007 493.581137522 302.596920884 505.497552767 335.599609375 505.497552767 c 0
 360.018834271 505.497552767 394.206290977 497.607819933 422.259928928 461.299569965 c 0
 445.387098024 434.085943734 459.543449812 393.918834617 459.543449812 342.691702818 c 2
 459.330893371 -7.49852932898 l 1
 378.229581829 -7.49852645094 l 1
 378.447759733 344.77734375 l 2
 378.447759733 377.838248405 368.989187403 394.991464938 357.679213363 406.301438978 c 0
 348.299129214 415.681523127 337.348740027 420.285650359 324.478515625 420.285650359 c 0
EndSplineSet
EndChar

StartChar: n
Encoding: 110 110 79
Width: 486
GlyphClass: 2
Flags: HMW
HStem: 0 21G<78.5859 147.273 78.5859 78.5859 339.73 407.482 339.73 339.73> 432.08 65.9199<217.739 249.389>
VStem: 78.5859 68.6875<0 0> 339.73 67.752<0 0>
LayerCount: 2
Fore
SplineSet
332.161626921 277.3203125 m 2
 332.161626921 386.884902537 300.839240922 424.581548796 232.201171875 424.581548796 c 0
 206.3100734 424.581548796 178.403150684 420.510005295 154.704597677 415.748159487 c 1
 154.773182016 -7.49852932907 l 1
 71.0895825896 -7.49852916894 l 1
 71.0182066114 480.907794664 l 1
 138.19070058 498.821340095 189.138373242 505.498529329 235.9453125 505.498529329 c 0
 290.401488266 505.498529329 337.43835007 490.95117143 369.860678753 454.547347938 c 0
 400.136163334 420.554277736 414.912591623 366.630416877 414.912591623 292.921685242 c 2
 414.982701358 -7.49852932905 l 1
 332.235792458 -7.49852932905 l 1
 332.161626921 277.3203125 l 2
EndSplineSet
EndChar

StartChar: o
Encoding: 111 111 80
Width: 486
GlyphClass: 2
Flags: HW
LayerCount: 2
Fore
SplineSet
244.799804688 420.501470671 m 0
 171.996470043 420.501470671 126.748529329 345.892793899 126.748529329 242.005859375 c 0
 126.748529329 176.129156515 145.161280051 124.495974406 174.864005171 94.7932492858 c 0
 193.818905879 75.838348578 217.390846113 65.4985293291 244.799804688 65.4985293291 c 0
 317.647918117 65.4985293291 362.851080046 139.100057539 362.851080046 242.005859375 c 0
 362.851080046 308.866146262 344.222869184 361.326100933 314.220701945 391.328268171 c 0
 295.338280932 410.210689185 271.946902401 420.501470671 244.799804688 420.501470671 c 0
244.799804688 505.498529329 m 0
 353.578329639 505.498529329 448.498529329 409.686128217 448.498529329 242.00390625 c 0
 448.498529329 76.3608920046 353.607915004 -19.4985293291 244.799804688 -19.4985293291 c 0
 135.981400042 -19.4985293291 41.1010800459 76.3732130316 41.1010800459 242.00390625 c 0
 41.1010800459 409.702735948 136.03606535 505.498529329 244.799804688 505.498529329 c 0
EndSplineSet
EndChar

StartChar: p
Encoding: 112 112 81
Width: 486
GlyphClass: 2
Flags: HMW
HStem: -212.66 21G<64.416 135.568 64.416 64.416> -31.7686 70.168<227.879 240.093 220.774 268.856> 410.052 77.4072<201.465 237.026>
VStem: 64.416 71.1523<-212.66 4.45996 78.6338 397.88> 348.504 73.0801<188.282 252.429>
LayerCount: 2
Fore
SplineSet
429.082513704 227.298828125 m 0
 429.082513704 65.2229127138 350.815273451 -39.2670840166 238.912109375 -39.2670840166 c 0
 216.128985809 -39.2670840166 195.996680105 -36.0177775549 178.516860532 -29.3961936775 c 0
 164.011156365 -24.0147503563 152.091822742 -18.1433690888 143.066888704 -11.615906056 c 1
 143.066888704 -220.158685579 l 1
 56.9174862959 -220.158685579 l 1
 56.9174862959 468.212656445 l 1
 83.7208327598 476.867053114 103.494116911 481.489772804 126.246585348 486.317370974 c 0
 153.813937289 492.084449019 184.480892539 494.957513704 218.017578125 494.957513704 c 0
 337.414757991 494.957513704 429.082513704 395.537465671 429.082513704 227.298828125 c 0
143.066888704 81.7406273315 m 1
 144.422428842 80.4268821254 180.518274979 45.8979433916 229.82421875 45.8979433916 c 0
 250.045774501 45.8979433916 273.441211628 50.3496405189 295.809848868 72.7182777586 c 0
 325.965714324 102.874143215 341.005376921 155.292289138 341.005376921 223.154296875 c 0
 341.005376921 259.441281675 336.901468565 326.877811869 291.415657865 372.363622569 c 0
 271.211856959 392.567423475 246.935352445 402.553228483 218.017578125 402.553228483 c 0
 185.977345384 402.553228483 163.682796534 400.173213506 143.066888704 392.719131181 c 1
 143.066888704 81.7406273315 l 1
EndSplineSet
EndChar

StartChar: q
Encoding: 113 113 82
Width: 486
GlyphClass: 2
Flags: HMW
HStem: -212.66 21G<350.162 421.584 350.162 350.162> -31.7686 70.1689<235.45 258.404> 410.053 77.4062<249.88 279.251>
VStem: 64.416 73.0791<196.571 252.435 196.571 268.467> 351.394 70.1904<78.6338 397.88 397.88 397.88>
LayerCount: 2
Fore
SplineSet
56.9174862959 227.298828125 m 0
 56.9174862959 397.442378652 150.112683433 494.957513704 268.891601562 494.957513704 c 0
 313.352152049 494.957513704 352.288193247 490.55249398 429.082513704 467.164255415 c 1
 429.082513704 -220.158685579 l 1
 342.654225654 -220.158685579 l 1
 342.914845261 -11.1134325921 l 1
 333.472742132 -17.2219785939 321.301485064 -23.0760114886 306.684108261 -28.8191503701 c 0
 289.2218867 -35.8005167142 269.614117271 -39.2670840166 247.99609375 -39.2670840166 c 0
 130.471298955 -39.2670840166 56.9174862959 75.0596715969 56.9174862959 227.298828125 c 0
343.895025359 392.714872533 m 1
 323.345770001 400.086421527 299.377796139 402.554205046 268.890625 402.554205046 c 0
 235.383178268 402.554205046 205.534146272 389.133979022 181.304461045 356.148686782 c 0
 157.331828842 324.983987661 144.993646517 280.698365467 144.993646517 223.155273438 c 0
 144.993646517 170.920320658 155.170985176 127.035612379 173.651919673 96.2295225172 c 0
 190.37713791 66.9551806796 216.510650573 45.8989199541 257.081054688 45.8989199541 c 0
 274.041421613 45.8989199541 290.381034161 49.6689113139 306.369532775 57.3445157651 c 0
 322.833904541 64.9498765452 334.622764565 72.7530590004 343.895025359 81.7405125722 c 1
 343.895025359 392.714872533 l 1
EndSplineSet
EndChar

StartChar: r
Encoding: 114 114 83
Width: 486
GlyphClass: 2
Flags: HMW
HStem: 0 21G<118 186.519 118 118> 434.371 63.6289<289.036 329.69>
VStem: 118 68.5186<0 0>
LayerCount: 2
Fore
SplineSet
309 426.872564421 m 0
 271.676369644 426.872564421 232.943273196 420.71246062 194.76369661 409.728326802 c 1
 194.003432868 -7.49852932906 l 1
 110.489194045 -7.49852932906 l 1
 111.266805666 467.855956314 l 1
 141.213595108 479.089666887 212.928334663 505.498529329 309 505.498529329 c 0
 371.295115299 505.498529329 392.337558557 502.506843538 430.533831599 493.140010328 c 1
 415.40269104 411.316970716 l 1
 380.64929773 421.763502462 361.495425259 426.872564421 309 426.872564421 c 0
EndSplineSet
EndChar

StartChar: s
Encoding: 115 115 84
Width: 486
GlyphClass: 2
Flags: HW
LayerCount: 2
Fore
SplineSet
242.90234375 424.501470671 m 0
 227.714317111 424.501470671 159.702630891 424.191501029 159.702630891 363.309570312 c 0
 159.702630891 331.165726216 181.186147648 313.469254224 268.80396279 290.889448645 c 0
 398.968817905 256.495500923 438.522943391 214.950746957 438.522943391 133.345703125 c 0
 438.522943391 50.3184265888 372.764859107 -19.4985293291 254.374023438 -19.4985293291 c 0
 173.502757328 -19.4985293291 102.833051411 16.9137861974 53.6967723896 59.0686276319 c 2
 48.9934307791 63.1037036237 l 1
 88.3761562842 132.196671983 l 1
 119.558256589 104.699236116 169.417196293 61.4985293291 262.568359375 61.4985293291 c 0
 298.210232891 61.4985293291 322.605084443 71.703285014 337.103855825 86.2020563965 c 0
 348.773239263 97.8714398344 354.495611296 112.651537923 354.495611296 128.6640625 c 0
 354.495611296 156.732412078 347.861141148 182.341160334 236.762790978 210.018963551 c 0
 147.201484651 232.549254895 75.6762753584 272.250669677 75.6762753584 359.623046875 c 0
 75.6762753584 441.278885006 134.579279045 505.498529329 248.638671875 505.498529329 c 0
 312.387735884 505.498529329 373.998325386 475.170510894 414.324563958 440.943659831 c 2
 419.224702976 436.784672177 l 1
 377.886734079 369.164666355 l 1
 357.908475781 386.156580396 312.824436367 424.501470671 242.90234375 424.501470671 c 0
EndSplineSet
EndChar

StartChar: t
Encoding: 116 116 85
Width: 486
GlyphClass: 2
Flags: HMW
HStem: 0 69.0107 431.36 67
VStem: 177.406 64.7998
LayerCount: 2
Fore
SplineSet
331 -19.4985293291 m 0
 225.00024189 -19.4985293291 166.597618238 44.9922625909 166.597618238 187.131118786 c 0
 166.597618238 191.073713114 166.597618238 191.073713114 169.798225965 411.861822233 c 1
 35.5014706709 411.861822233 l 1
 35.5014706709 493.858880891 l 1
 170.306498313 493.858880891 l 1
 169.5828655 675.498529329 l 1
 249.379848769 675.498529329 l 1
 250.103481582 493.858880891 l 1
 449.498529329 493.858880891 l 1
 449.498529329 411.861822233 l 1
 249.716583837 411.861822233 l 1
 250.064925881 194.012106228 l 2
 250.216526745 99.3915098636 277.985525467 64.5092715166 345.184570312 64.5092715166 c 0
 382.301653318 64.5092715166 411.041508629 73.3609965307 439.666723915 86.4869898685 c 2
 447.936670813 90.2791453791 l 1
 466.577178078 13.5803663616 l 1
 435.643250109 -0.305833747087 392.043790205 -19.4985293291 331 -19.4985293291 c 0
EndSplineSet
EndChar

StartChar: u
Encoding: 117 117 86
Width: 486
GlyphClass: 2
Flags: HMW
HStem: -10.5029 66.6777<228.73 256.388 228.73 259.307> 466 20G<70.1113 138.632 138.632 138.632>
VStem: 70.1113 68.5205<208.231 227.139 227.139 486> 332.921 69.4648<12.541 67.0244>
LayerCount: 2
Fore
SplineSet
248.06640625 63.6733340166 m 0
 277.720283861 63.6733340166 313.087415825 69.157367486 325.421216747 72.5169585176 c 1
 325.332905316 493.499505891 l 1
 409.793575269 493.499505624 l 1
 409.88534557 6.84607997957 l 1
 323.205278583 -17.3269777905 274.965094711 -18.0014590166 240.501953125 -18.0014590166 c 0
 209.97157509 -18.0014590166 143.133705045 -15.1323427554 100.826246609 45.7723771525 c 0
 73.1183562365 85.6544019568 62.6127987959 141.163968948 62.6127987959 208.231445312 c 2
 62.6127987959 493.498529329 l 1
 146.130365267 493.498529329 l 1
 146.130365267 227.138671875 l 2
 146.130365267 129.7212897 167.419488012 100.028483187 180.122710542 87.325260657 c 0
 195.750522385 71.6974488144 218.216057251 63.6733340166 248.06640625 63.6733340166 c 0
EndSplineSet
EndChar

StartChar: v
Encoding: 118 118 87
Width: 486
GlyphClass: 2
Flags: HW
LayerCount: 2
Fore
SplineSet
115.46708204 493.498529329 m 1
 226.691341167 162.547842482 226.691341167 162.547842482 248.084705756 91.9121833173 c 1
 275.191814561 184.083201254 275.191814561 184.083201254 284.9334782 213.018464185 c 0
 284.948747553 213.064307589 375.654181325 488.355378247 375.654181325 488.355378247 c 1
 377.348797116 493.498529329 l 1
 459.125447385 493.498529329 l 1
 290.60128126 -7.49852932905 l 1
 204.104720307 -7.49852932905 l 1
 30.3708950976 493.498529329 l 1
 115.46708204 493.498529329 l 1
EndSplineSet
EndChar

StartChar: w
Encoding: 119 119 88
Width: 486
GlyphClass: 2
Flags: HMW
HStem: 0 21G<95.3535 95.3535 95.3535 179.496 308.092 308.092 308.092 392.234> 466 20G<11.2109 76.3027 76.3027 76.3027 414.461 474.789 474.789 474.789>
VStem: 212.835 65.0918 414.461 60.3281
LayerCount: 2
Fore
SplineSet
141.861627732 118.580525936 m 1
 144.092038563 132.65568995 144.092038563 132.65568995 206.619960798 463.498529329 c 1
 284.180277234 463.498530108 l 1
 332.86632989 197.020190079 332.86632989 197.020190079 338.700684778 168.439925871 c 0
 342.375646367 150.437700231 346.010345665 132.648407195 349.114287208 114.550231659 c 1
 355.431155769 166.398253906 357.031513487 179.533778536 361.020931116 205.216097529 c 2
 408.086655944 493.498529329 l 1
 483.669503013 493.498529329 l 1
 398.567330964 -7.49852932905 l 1
 301.89267394 -7.49852972621 l 1
 256.26932925 230.614494472 l 2
 251.82527702 254.403566185 247.408684554 284.801698002 243.000110628 321.87437214 c 1
 238.592470961 284.807523498 234.177315382 254.417523957 229.733395385 230.629160002 c 2
 185.736987335 -7.49852932905 l 1
 89.0408916021 -7.49852932905 l 1
 2.30182956811 493.498529329 l 1
 82.677020929 493.498530145 l 1
 135.716230269 168.626262857 135.716230269 168.626262857 141.861627732 118.580525936 c 1
EndSplineSet
EndChar

StartChar: x
Encoding: 120 120 89
Width: 486
GlyphClass: 2
Flags: HW
LayerCount: 2
Fore
SplineSet
38.2145585577 -7.49852932905 m 1
 193.745461879 251.973068461 l 1
 49.5892734411 493.498529329 l 1
 143.068920316 493.498529329 l 1
 164.886229435 456.343459792 187.286044731 419.519819606 208.525238353 382.037711398 c 0
 221.252230973 359.5776066 234.741189105 334.139817356 249.005384219 310.139162819 c 1
 269.456251644 347.754553742 279.646218004 367.003592544 288.430194478 384.09609682 c 2
 350.509860376 493.498529329 l 1
 440.653006074 493.498529329 l 1
 295.037968101 245.114641349 l 1
 451.617919123 -7.49852932905 l 1
 358.884328268 -7.49852932905 l 1
 356.68431153 -3.94670362473 l 1
 356.68431153 -3.94670362473 287.026108406 108.513257313 286.923592048 108.683818017 c 0
 272.424713363 133.55348904 256.002866008 161.563808194 240.539785671 187.074442974 c 1
 235.827939813 178.594220881 231.214342717 170.157435158 226.588464221 161.697990615 c 0
 207.492416217 126.776632461 207.492416217 126.776632461 129.211975593 -7.49852932905 c 1
 38.2145585577 -7.49852932905 l 1
EndSplineSet
EndChar

StartChar: y
Encoding: 121 121 90
Width: 486
GlyphClass: 2
Flags: HW
LayerCount: 2
Fore
SplineSet
102.893554688 -126.501470671 m 0
 127.320296049 -126.501470671 172.152159392 -117.870840485 200.915258591 -29.9174189245 c 1
 200.915258591 -29.9174189245 209.133760035 -5.79019647633 211.881672584 2.27742915295 c 1
 23.0032098417 493.498529329 l 1
 113.771965941 493.498529329 l 1
 126.469868968 458.258976014 134.81854613 435.218649755 148.231563817 398.20197063 c 0
 181.301497301 306.936966361 214.093912172 216.439055357 246.272705628 122.869482799 c 2
 246.272705628 122.869482799 249.634230143 113.123534237 253.113136163 103.037271555 c 1
 279.503286234 192.033807098 279.503286234 192.033807098 287.51270682 216.896347514 c 2
 376.212396817 493.498529329 l 1
 462.500875303 493.498529329 l 1
 283.755138629 -39.8516574457 l 1
 260.068221824 -117.073702633 213.238381946 -216.498529329 105.32421875 -216.498529329 c 0
 94.4185500415 -216.498529329 74.1742848854 -216.498529329 40.9543709041 -202.024908143 c 1
 59.2417605167 -115.701005682 l 1
 73.8623498391 -121.254402757 87.6764575087 -126.501470671 102.893554688 -126.501470671 c 0
EndSplineSet
EndChar

StartChar: z
Encoding: 122 122 91
Width: 486
GlyphClass: 2
Flags: HW
LayerCount: 2
Fore
SplineSet
440.398919954 -7.49852932905 m 1
 49.2016659834 -7.49852932905 l 1
 49.2016659834 47.5770492283 l 1
 312.525964313 409.501470671 l 1
 79.1713925459 409.501470671 l 1
 79.1713925459 493.498529329 l 1
 433.107904329 493.498529329 l 1
 433.107904329 440.865234375 l 1
 433.107904329 438.416111481 l 1
 169.001877666 76.4985293291 l 1
 440.398919954 76.4985293291 l 1
 440.398919954 -7.49852932905 l 1
EndSplineSet
EndChar

StartChar: braceleft
Encoding: 123 123 92
Width: 486
GlyphClass: 2
Flags: HMW
HStem: -146 65.9912 265.502 67.9375 677.964 66.0361
VStem: 149.806 73.3936 235.457 75.584
LayerCount: 2
Fore
SplineSet
227.958501921 198.890625 m 0
 227.958501921 240.234094532 184.918864827 258.003423796 144.75 258.003423796 c 2
 56.8579159834 258.003423796 l 1
 56.8579159834 340.937982454 l 1
 144.75 340.937982454 l 2
 172.870545703 340.937982454 198.46162441 349.342678115 213.326028724 364.20708243 c 0
 222.540069284 373.42112299 227.958501921 385.096484398 227.958501921 399.896484375 c 0
 227.958501921 412.647580698 224.145746892 426.662056176 215.790174155 442.082661824 c 0
 189.989225189 489.697522171 177.180205376 500.909308787 155.737802872 551.280867707 c 0
 146.839773397 572.185128488 142.307134733 593.690144491 142.307134733 615.537109375 c 0
 142.307134733 689.527796737 198.675945739 751.498529329 296.71484375 751.498529329 c 0
 314.382378825 751.498529329 333.750426952 749.675348507 355.070888116 746.101942841 c 0
 382.333396287 741.535773595 404.744559871 732.079816204 430.981223364 718.699187459 c 1
 403.488714861 645.206959693 l 1
 371.507722 659.981980604 348.053882783 670.465337859 297.7578125 670.465337859 c 0
 284.91525118 670.465337859 230.697748079 667.365219414 230.697748079 615.014648438 c 0
 230.697748079 589.524888044 243.859896233 566.439111141 273.595252236 515.778778948 c 0
 303.642466527 464.58713163 318.539544954 439.206875825 318.539544954 404.123046875 c 0
 318.539544954 384.794042265 313.91133879 353.592923181 285.009590186 324.691174578 c 0
 274.299691578 313.98127597 262.10788819 305.178135325 248.555898469 298.32605664 c 1
 263.601664312 291.043964284 318.539544954 259.822033544 318.539544954 192.16796875 c 0
 318.539544954 157.260341689 303.570759844 131.913002218 273.573479201 81.1172128386 c 0
 243.53796036 30.2566729442 230.697748079 7.70354608939 230.697748079 -17.4501953125 c 0
 230.697748079 -47.7303109528 252.732525872 -72.5102597334 297.7578125 -72.5102597334 c 0
 345.199333442 -72.5102597334 371.249118018 -61.4759073896 403.611796477 -47.5996538211 c 1
 431.073593412 -120.965799706 l 1
 409.219788627 -131.450394406 363.26325428 -153.498529329 296.71484375 -153.498529329 c 0
 206.073677473 -153.498529329 142.307134733 -98.4469830314 142.307134733 -17.2900390625 c 0
 142.307134733 4.60971988058 146.838437911 26.1661324581 155.737178533 47.1222492698 c 0
 177.12255834 97.4867470109 190.108492277 109.084542155 215.788502783 156.593258284 c 0
 224.14532381 172.05328439 227.958501921 186.104132915 227.958501921 198.890625 c 0
EndSplineSet
EndChar

StartChar: bar
Encoding: 124 124 93
Width: 486
GlyphClass: 2
Flags: HMW
VStem: 207.755 70.4895
LayerCount: 2
Fore
SplineSet
200.256353483 -234.073724641 m 1
 200.256353483 858.223138704 l 1
 285.743646517 858.223138704 l 1
 285.743646517 -234.073724641 l 1
 200.256353483 -234.073724641 l 1
EndSplineSet
Substitution2: "Single Substitution lookup 7 subtable" alt_bar
EndChar

StartChar: braceright
Encoding: 125 125 94
Width: 486
GlyphClass: 2
Flags: HMW
HStem: -146 65.9912 268.002 67.9375 677.964 66.0361
VStem: 174.959 75.584 262.801 73.3936
LayerCount: 2
Fore
SplineSet
258.041498079 401.993164062 m 0
 258.041498079 361.020753742 301.141531257 343.437982454 341.25 343.437982454 c 2
 429.142084017 343.437982454 l 1
 429.142084017 260.503423796 l 1
 341.25 260.503423796 l 2
 313.251837124 260.503423796 287.758986286 252.101342963 272.866792745 237.209149423 c 0
 263.541982837 227.884339514 258.041498079 216.02725567 258.041498079 200.973632812 c 0
 258.041498079 188.085587842 261.861106287 173.932705823 270.22130635 158.370814433 c 0
 295.834429804 110.701945783 308.880103437 98.9188011714 330.268972783 48.2424852434 c 0
 339.164412558 27.1689828753 343.692865267 5.49599239985 343.692865267 -16.5205078125 c 0
 343.692865267 -90.5576140404 288.049436918 -153.498529329 189.28515625 -153.498529329 c 0
 171.617923957 -153.498529329 152.248066496 -151.676360002 130.929737142 -148.105953788 c 0
 103.660164642 -143.540961733 81.2493629831 -134.09088605 55.0169562386 -120.719368156 c 1
 82.5122156703 -47.2691217232 l 1
 114.585191104 -62.0771922836 138.008941302 -72.5102597334 188.2421875 -72.5102597334 c 0
 201.084748821 -72.5102597334 255.302251921 -69.4101412885 255.302251921 -17.0595703125 c 0
 255.302251921 8.43224005043 242.133763587 31.5251627649 212.401489222 82.1808106124 c 0
 182.354748228 133.37222342 167.460455046 158.74801745 167.460455046 193.83203125 c 0
 167.460455046 213.192095117 172.102513901 244.376983281 200.989405428 273.263874808 c 0
 211.699417402 283.973886782 223.891425796 292.777113217 237.443942565 299.629230322 c 1
 222.386794716 306.917046342 167.460455046 338.138829172 167.460455046 405.787109375 c 0
 167.460455046 440.695391067 182.425689151 466.03671843 212.417906846 516.823936434 c 0
 242.466061462 567.70587503 255.302251921 590.256544619 255.302251921 615.405273438 c 0
 255.302251921 645.684099934 233.267839482 670.465337859 188.2421875 670.465337859 c 0
 140.799471109 670.465337859 114.75115676 659.423115016 82.3872275736 645.537748661 c 1
 54.9284171575 718.945215691 l 1
 76.7771505612 729.434509682 122.735523306 751.498529329 189.28515625 751.498529329 c 0
 279.96235539 751.498529329 343.692865267 696.854849237 343.692865267 616.3671875 c 0
 343.692865267 594.631717981 339.155236631 573.239305435 330.252029191 552.447841251 c 0
 308.841433346 502.444945337 295.943105504 491.114279156 270.198223769 443.88506312 c 0
 261.846866129 428.562338975 258.041498079 414.647187184 258.041498079 401.993164062 c 0
EndSplineSet
EndChar

StartChar: asciitilde
Encoding: 126 126 95
Width: 486
GlyphClass: 2
Flags: HMW
HStem: 243.425 81.8125 356.443 81.8105
LayerCount: 2
Fore
SplineSet
292.770507812 235.926275359 m 0
 274.026429146 235.926275359 245.927265934 239.670178576 228.539589486 263.086944735 c 0
 208.624238742 289.897761628 199.304595363 327.475929141 199.165142618 328.176286901 c 0
 197.416085312 336.960379771 193.575512527 346.812586905 192.277326657 348.110772775 c 0
 191.954514863 348.433584569 191.545876479 348.944830046 188.62109375 348.944830046 c 0
 186.767273953 348.690842938 181.058238558 345.988307622 173.966204116 339.771956125 c 2
 42.3582946544 230.161653143 l 1
 -7.32114866976 304.384080521 l 1
 118.260508205 413.340356778 l 2
 153.310974451 444.65292965 178.34602252 445.752435579 192.514648438 445.752435579 c 0
 220.047270808 445.752435579 242.26953066 436.697676871 256.319920703 417.420342356 c 0
 277.403307027 388.50633686 285.702895644 352.123189941 286.048813513 350.578814269 c 0
 287.791567938 342.798159453 291.838447569 334.90747614 293.050491627 333.695432083 c 0
 296.370490587 330.375433123 304.704460904 336.6432881 308.408131906 339.74473225 c 2
 442.933258723 451.503311258 l 1
 492.607543666 377.296793347 l 1
 366.939725879 268.266206433 l 2
 331.78934879 237.437203785 310.114287315 235.926275359 292.770507812 235.926275359 c 0
EndSplineSet
EndChar

StartChar: exclamdown
Encoding: 161 161 97
Width: 486
GlyphClass: 2
Flags: HMW
HStem: 534.367 146.26
VStem: 176.847 131.631 197.662 92.3379 206.662 73.6758
LayerCount: 2
Fore
SplineSet
315.976068391 607.49609375 m 0
 315.976068391 562.72565002 283.951519664 526.868658171 242.662109375 526.868658171 c 0
 200.49593941 526.868658171 169.348150359 562.603997351 169.348150359 607.49609375 c 0
 169.348150359 653.489108188 200.519071043 688.125482454 242.662109375 688.125482454 c 0
 283.93775355 688.125482454 315.976068391 653.357153284 315.976068391 607.49609375 c 0
289.536664928 438.498529329 m 1
 292.930442142 -81.4985293291 l 1
 194.740580067 -81.4985293291 l 1
 197.51995791 438.498529329 l 1
 289.536664928 438.498529329 l 1
EndSplineSet
EndChar

StartChar: cent
Encoding: 162 162 98
Width: 486
GlyphClass: 2
Flags: HMW
HStem: -12 70<233.89 304.154 233.89 304.339> 428 70<235.528 302.104>
VStem: 56.9824 70.6494
LayerCount: 2
Fore
SplineSet
274.578125 -19.4985293291 m 0
 273.988537897 -19.4985293291 273.399601302 -19.4924608258 272.811321787 -19.4924608258 c 2
 262.981321913 -107.584681129 l 1
 183.105315544 -99.7181411384 l 1
 193.640772627 -5.3039175108 l 1
 166.470743616 4.91392206096 142.05310734 20.5384434279 121.379068184 41.212482584 c 0
 76.2720578102 86.319492958 49.4838925459 154.843294398 49.4838925459 242.00390625 c 0
 49.4838925459 396.308571192 138.391424603 490.337179175 250.45276246 503.820638783 c 1
 259.018678087 580.584681129 l 1
 338.894684456 572.718141138 l 1
 330.593246462 498.324233309 l 1
 357.977798449 490.435698055 394.665379791 472.791409864 429.487902344 430.875063982 c 2
 432.952618122 426.704538292 l 1
 390.63774 359.175299826 l 1
 373.816277428 377.347076649 352.040886812 400.870449651 321.070567298 412.98608869 c 1
 282.298786492 65.5301069973 l 1
 327.167836815 66.5411631997 364.781777981 91.7130097018 396.249960017 124.735269398 c 2
 403.231931348 132.062050151 l 1
 441.82142335 63.816912996 l 1
 423.735240516 43.9689169417 365.901500822 -19.4985293291 274.578125 -19.4985293291 c 0
240.523709133 414.840744146 m 1
 176.21050224 395.942238775 135.130365267 330.909686224 135.130365267 242.005859375 c 0
 135.130365267 206.638561801 142.529422503 128.273323219 203.978866445 87.3416216307 c 1
 240.523709133 414.840744146 l 1
EndSplineSet
EndChar

StartChar: sterling
Encoding: 163 163 99
Width: 486
GlyphClass: 2
Flags: HMW
HStem: -16.7 74.55 651.1 21G
VStem: 102.512 71.6317
LayerCount: 2
Fore
SplineSet
459.944818391 -7.49852932905 m 1
 95.0141659829 -7.49852932905 l 1
 95.0141659829 342.344404655 l 1
 40.616084573 302.68265009 l 1
 -4.51653288144 369.736344868 l 1
 95.0141659829 442.304384911 l 1
 95.0141659829 709.198724641 l 1
 181.643060579 709.198724641 l 1
 181.643060579 505.465692566 l 1
 301.219852927 592.64938116 l 1
 346.352470381 525.595686382 l 1
 181.643060579 405.505712309 l 1
 181.643060579 82.3481387041 l 1
 459.944818391 82.3481387041 l 1
 459.944818391 -7.49852932905 l 1
EndSplineSet
EndChar

StartChar: currency
Encoding: 164 164 100
Width: 486
GlyphClass: 2
Flags: HMW
HStem: 131.5 66 460.5 66 561.04 20G
VStem: 83.3604 66.5596 336.08 66.5596
LayerCount: 2
Fore
SplineSet
138.802240267 328.798828125 m 0
 138.802240267 238.72257777 185.959094902 178.497552767 243 178.497552767 c 0
 300.037802678 178.497552767 347.197759733 238.718262555 347.197759733 328.798828125 c 0
 347.197759733 418.87507848 300.040905098 479.100103483 243 479.100103483 c 0
 185.962197322 479.100103483 138.802240267 418.879393695 138.802240267 328.798828125 c 0
43.9340878584 328.798828125 m 0
 43.9340878584 382.630640257 55.5924160323 430.173602392 75.8983739322 468.207545859 c 1
 -5.5841247165 572.440258752 l 1
 50.5902275798 643.370753386 l 1
 136.456238233 533.707071917 l 1
 166.941111407 559.353869822 204.073523776 573.297357454 243 573.297357454 c 0
 281.200902975 573.297357454 318.27300576 559.258356935 349.45208402 533.591706716 c 1
 435.409804365 643.37066789 l 1
 491.614887463 572.40179882 l 1
 409.23656972 468.277822815 l 1
 430.42712629 430.171087031 442.065912141 382.583046297 442.065912141 328.798828125 c 0
 442.065912141 274.878430486 429.460371624 228.400000161 409.17869839 190.657463363 c 1
 491.64531436 87.6332161719 l 1
 435.501596797 16.7436378121 l 1
 348.800681427 124.998187053 l 1
 318.2752714 98.3099362666 281.132788137 84.3002987959 243 84.3002987959 c 0
 203.917716343 84.3002987959 167.422372931 98.4214077051 136.360786392 125.066307107 c 1
 50.5446323398 16.6846227117 l 1
 -5.64530103778 87.6332447932 l 1
 76.7379726899 190.553109076 l 1
 55.5983716054 228.484326319 43.9340878584 275.029973374 43.9340878584 328.798828125 c 0
EndSplineSet
EndChar

StartChar: yen
Encoding: 165 165 101
Width: 486
GlyphClass: 2
Flags: HMW
HStem: -16.4 21G 102.25 65.1 651.4 21G
VStem: 208.411 73.8004
LayerCount: 2
Fore
SplineSet
32.9448300459 111.751470671 m 1
 32.9448300459 191.848138704 l 1
 200.911626921 191.848138704 l 1
 200.911626921 244.831493762 l 1
 8.71369092563 696.898919954 l 1
 102.006112595 696.898919954 l 1
 195.600133412 470.743755487 195.600133412 470.743755487 216.614104124 417.309659446 c 0
 226.439227908 392.322450171 236.372087984 367.067511084 246.946379853 341.20860078 c 1
 247.539416489 342.677364327 298.550329531 467.19808445 306.806325266 487.859120748 c 2
 390.250602765 696.898919954 l 1
 481.918398111 696.898919954 l 1
 289.709466829 244.831413627 l 1
 289.709466829 191.848138704 l 1
 456.183099641 191.848138704 l 1
 456.183099641 111.751470671 l 1
 289.709466829 111.751470671 l 1
 289.709466829 -6.83824602091 l 1
 200.911626921 -7.55970203244 l 1
 200.911626921 111.751470671 l 1
 32.9448300459 111.751470671 l 1
EndSplineSet
EndChar

StartChar: brokenbar
Encoding: 166 166 102
Width: 486
GlyphClass: 2
Flags: HMW
VStem: 213.03 59.9395
LayerCount: 2
Fore
SplineSet
205.531744109 283.498529329 m 1
 280.468255891 283.498529329 l 1
 280.468255891 -234.073724641 l 1
 205.531744109 -234.073724641 l 1
 205.531744109 283.498529329 l 1
205.531744109 371.501470671 m 1
 205.531744109 858.223138704 l 1
 280.468255891 858.223138704 l 1
 280.468255891 371.501470671 l 1
 205.531744109 371.501470671 l 1
EndSplineSet
EndChar

StartChar: section
Encoding: 167 167 103
Width: 486
GlyphClass: 2
Flags: HMW
HStem: -66.5 69<214.212 253.641 206.438 271.667> 617.5 69<225.89 269.073>
VStem: 71.21 62.5098 119.811 65.75 299.63 65.75 352.28 62.5098
LayerCount: 2
Fore
SplineSet
186.141319907 423.94291152 m 1
 154.739782598 402.623824812 141.218255891 379.428217193 141.218255891 348 c 0
 141.218255891 292.271595202 185.062777099 267.933556422 242.153157038 237.905204627 c 0
 261.843939713 227.548270947 282.273295264 216.827581493 301.114805728 203.823749892 c 1
 331.752119509 221.746086647 344.781744109 241.112047961 344.781744109 278 c 0
 344.781744109 336.255780737 299.58071515 361.363335212 241.906380001 391.857021817 c 0
 223.258446149 401.716585633 204.016396514 411.869831087 186.141319907 423.94291152 c 1
247.860351562 610.001470671 m 0
 230.336343779 610.001470671 193.059076204 604.42744058 193.059076204 557 c 0
 193.059076204 459.552305994 422.288568391 472.83002443 422.288568391 284 c 0
 422.288568391 216.72976873 390.806437282 178.416953769 352.440695479 151.314476743 c 1
 365.530192158 130.108766668 372.878412141 104.426389725 372.878412141 73 c 0
 372.878412141 -11.5911703233 314.76787884 -73.9985293291 232.469726562 -73.9985293291 c 0
 191.422157186 -73.9985293291 127.550828644 -61.1757841008 78.2879313487 2.53925879653 c 2
 74.463840049 7.48521517717 l 1
 128.039198528 67.0135240837 l 1
 152.02450655 39.9401051194 178.550817059 9.99852932905 232.469726562 9.99852932905 c 0
 271.092811444 9.99852932905 292.131353483 36.8047874316 292.131353483 69 c 0
 292.131353483 172.625751121 63.7114316084 152.996325022 63.7114316084 343 c 0
 63.7114316084 363.674464495 66.4077668958 426.995300739 133.570799731 475.614551161 c 1
 120.376479315 496.715839534 112.312017546 522.398877247 112.312017546 554 c 0
 112.312017546 629.368267513 158.895348987 693.998529329 244.620117188 693.998529329 c 0
 301.317438798 693.998529329 347.558273443 667.12429274 383.395787178 632.835140557 c 2
 387.763938259 628.655715659 l 1
 344.731925685 558.263451071 l 1
 319.563392225 582.024892568 289.93011252 610.001470671 247.860351562 610.001470671 c 0
EndSplineSet
EndChar

StartChar: dieresis
Encoding: 168 168 104
Width: 486
GlyphClass: 2
Flags: HMW
HStem: 585.5 117
VStem: 117.38 94.1006 274.52 94.1006
LayerCount: 2
Fore
SplineSet
401.242669954 644 m 0
 401.242669954 599.567505853 374.160479266 566.301275359 337.284179688 566.301275359 c 0
 300.407727571 566.301275359 273.324712859 599.566534703 273.324712859 644 c 0
 273.324712859 687.136892766 300.259657001 721.698724641 337.284179688 721.698724641 c 0
 374.307901898 721.698724641 401.242669954 687.137937412 401.242669954 644 c 0
212.675287141 644 m 0
 212.675287141 599.567052992 185.592697667 566.301275359 148.715820312 566.301275359 c 0
 111.840333008 566.301275359 84.7573300459 599.566515822 84.7573300459 644 c 0
 84.7573300459 687.137643912 111.691860464 721.698724641 148.715820312 721.698724641 c 0
 185.739504073 721.698724641 212.675287141 687.137928885 212.675287141 644 c 0
EndSplineSet
EndChar

StartChar: copyright
Encoding: 169 169 105
Width: 486
GlyphClass: 2
Flags: HMW
HStem: 18.4004 52.2998 131.7 62.2002 408.9 60 534.3 51.2002
VStem: 0.920898 49.5498 100.91 60.4395 437.511 47.5684
LayerCount: 2
Fore
SplineSet
242.588867188 143.703619109 m 0
 164.745337646 143.703619109 104.239751921 201.894341309 104.239751921 302.442382812 c 0
 104.239751921 403.183801261 168.487159895 462.296380891 244.884765625 462.296380891 c 0
 300.405158615 462.296380891 328.99795169 427.873532764 346.431930356 406.884775273 c 1
 309.475725992 347.909103318 l 1
 282.618798151 376.919876542 270.414397959 390.103033171 246.259765625 390.103033171 c 0
 201.782870911 390.103033171 176.797357454 351.823749028 176.797357454 302.443359375 c 0
 176.797357454 272.715824135 185.690417915 248.585546585 200.634365287 233.641599212 c 0
 211.886196645 222.389767855 226.770817185 215.896966829 245.342773438 215.896966829 c 0
 273.844169716 215.896966829 290.218839623 233.080524059 317.179286584 261.372781914 c 1
 351.338872883 200.959534276 l 1
 332.542810965 180.331560902 299.167692169 143.703619109 242.588867188 143.703619109 c 0
243.989257812 521.802251921 m 0
 144.56394863 521.802251921 62.9682558916 425.068640816 62.9682558916 301.400390625 c 0
 62.9682558916 179.909553352 144.574075101 83.1977480791 243.989257812 83.1977480791 c 0
 341.194335574 83.1977480791 425.013189421 183.021621329 425.013189421 302.5 c 0
 425.013189421 421.844513413 343.294428043 521.802251921 243.989257812 521.802251921 c 0
243 597.997552767 m 0
 381.213022208 597.997552767 493.498529329 465.378806638 493.498529329 302 c 0
 493.498529329 137.34580346 383.00014235 5.90283785845 242.010742188 5.90283785845 c 0
 101.94152454 5.90283785845 -7.49852932905 139.564706338 -7.49852932905 302 c 0
 -7.49852932905 465.496934857 102.915193188 597.997552767 243 597.997552767 c 0
EndSplineSet
EndChar

StartChar: ordfeminine
Encoding: 170 170 106
Width: 486
GlyphClass: 2
Flags: HMW
HStem: 381.009 0.991211 381.009 54.9912 668 56<228.188 265.922>
VStem: 125.885 55.2207 303.275 56.8398
LayerCount: 2
Fore
SplineSet
295.776861296 545.132834055 m 1
 199.121872923 531.727266242 188.603998079 503.774923812 188.603998079 482.5 c 0
 188.603998079 466.50427532 194.319958642 443.498529329 227.205078125 443.498529329 c 0
 250.682354763 443.498529329 271.783431944 455.305086422 295.776861296 477.790152008 c 1
 295.776861296 545.132834055 l 1
302.831664082 411.916427755 m 1
 274.672274181 392.822163869 219.735956494 373.510259733 212.935546875 373.510259733 c 0
 212.829981025 373.510259733 212.507062484 373.418950934 212.007295394 373.418950934 c 0
 211.260126711 373.418950934 210.117679236 373.623037606 208.715301154 374.641443888 c 0
 157.266383586 377.261070892 118.386236296 416.308448202 118.386236296 476.5 c 0
 118.386236296 565.550419603 202.946593388 594.031551678 295.159322478 604.432385216 c 1
 290.51205601 652.37622671 266.493796484 660.501470671 245.025390625 660.501470671 c 0
 209.78329533 660.501470671 175.639132905 636.22724079 163.341142941 627.146422148 c 0
 161.84597439 625.744177756 159.709072807 625.09956578 157.96334886 625.09956578 c 0
 154.998510452 625.09956578 153.770981045 626.327095187 152.754889991 627.343186241 c 0
 148.726577793 631.371498439 131.063132756 671.056931562 129.185328142 676.181626294 c 0
 128.790420278 677.259364752 128.282720671 677.372246898 128.282720671 680.288085938 c 2
 128.282720671 684.068044007 l 1
 142.818314738 694.835820022 192.309895834 731.498529329 253.935546875 731.498529329 c 0
 294.322288215 731.498529329 367.613763704 714.062818195 367.613763704 587.5 c 2
 367.613763704 382.501470671 l 1
 313.537713004 382.501470671 l 2
 313.128874917 382.42988683 312.704313488 382.389766206 312.268449551 382.389766206 c 0
 307.605550079 382.389766206 304.971018317 386.887248018 304.971018317 387.594891448 c 0
 304.971018317 387.827397772 305.071852913 387.942993903 305.1067666 388.023452593 c 0
 304.749648182 389.409794505 303.982592209 398.309557345 302.831664082 411.916427755 c 1
EndSplineSet
EndChar

StartChar: guillemotleft
Encoding: 171 171 107
Width: 486
GlyphClass: 2
Flags: HW
LayerCount: 2
Fore
SplineSet
225.178228483 249.368111716 m 1
 225.178228483 279.27734375 l 1
 225.178228483 282.214727896 l 1
 384.952628223 455.041149757 l 1
 436.653584041 394.651038708 l 1
 316.747217843 264.723645574 l 1
 443.396353105 110.807393303 l 1
 390.327341561 51.8426290351 l 1
 225.178228483 249.368111716 l 1
44.9985409834 252.088867188 m 1
 44.9985409834 279.282226562 l 1
 44.9985409834 282.233833077 l 1
 205.788236922 455.01317482 l 1
 257.464095863 394.65096082 l 1
 137.556822083 264.723643206 l 1
 264.206930532 110.807394548 l 1
 211.161967996 51.8697530712 l 1
 44.9985409834 249.350983886 l 1
 44.9985409834 252.088867188 l 1
EndSplineSet
EndChar

StartChar: logicalnot
Encoding: 172 172 108
Width: 486
GlyphClass: 2
Flags: HMW
HStem: 296.5 67<66.3496 361.189 66.3496 419.65>
VStem: 361.189 58.4609
LayerCount: 2
Fore
SplineSet
353.690923796 289.001470671 m 1
 58.8510800459 289.001470671 l 1
 58.8510800459 370.998529329 l 1
 427.148919954 370.998529329 l 1
 427.148919954 94.0014706709 l 1
 353.690923796 94.0014706709 l 1
 353.690923796 289.001470671 l 1
EndSplineSet
EndChar

StartChar: uni00AD
Encoding: 173 173 109
Width: 486
GlyphClass: 2
Flags: HMW
HStem: 296.5 67<66.3496 419.65 66.3496 419.65>
LayerCount: 2
Fore
SplineSet
58.8510800459 289.001470671 m 1
 58.8510800459 370.998529329 l 1
 427.148919954 370.998529329 l 1
 427.148919954 289.001470671 l 1
 58.8510800459 289.001470671 l 1
EndSplineSet
EndChar

StartChar: registered
Encoding: 174 174 110
Width: 486
GlyphClass: 2
Flags: HMW
HStem: 18.4004 52.2998 279.1 49 419.9 50.0996 534.3 51.2002
VStem: 0.920898 49.5498 140.511 50.5391 307.82 49.5508 437.511 47.5684
LayerCount: 2
Fore
SplineSet
243 597.997552767 m 0
 381.21409304 597.997552767 493.576654329 464.782686904 493.576654329 301.400390625 c 0
 493.576654329 136.76078124 383.007372517 5.90283785845 242.010742188 5.90283785845 c 0
 101.947116901 5.90283785845 -7.57665432905 138.964933415 -7.57665432905 301.400390625 c 0
 -7.57665432905 464.893129814 102.907482047 597.997552767 243 597.997552767 c 0
243.989257812 521.802251921 m 0
 144.56394863 521.802251921 62.9682558916 425.068640816 62.9682558916 301.400390625 c 0
 62.9682558916 179.909553352 144.574075101 83.1977480791 243.989257812 83.1977480791 c 0
 268.764665162 83.1977480791 322.558830978 90.5308747777 370.006160618 146.904323022 c 1
 303.45839438 135.891066364 l 1
 244.409943302 268.165533171 l 1
 206.450677767 268.165533171 l 1
 206.450677767 139.631353483 l 1
 133.943853483 139.631353483 l 1
 133.943853483 474.016107454 l 1
 236.97265625 474.016107454 l 2
 281.009541779 474.016107454 364.456537141 461.95876136 364.456537141 370.568359375 c 0
 364.456537141 334.531940557 346.8913614 299.910374025 315.731625555 282.718840928 c 1
 375.298992685 153.450140186 l 1
 405.815780877 192.73670793 425.013189421 245.32959546 425.013189421 302.5 c 0
 425.013189421 421.844513413 343.294428043 521.802251921 243.989257812 521.802251921 c 0
240.733398438 339.211419954 m 2
 292.453027476 339.211419954 292.887212859 361.504896585 292.887212859 370.568359375 c 0
 292.887212859 378.864915956 292.887212859 401.926275359 237.913085938 401.926275359 c 2
 206.450677767 401.926275359 l 1
 206.450677767 339.211419954 l 1
 240.733398438 339.211419954 l 2
EndSplineSet
EndChar

StartChar: macron
Encoding: 175 175 111
Width: 486
GlyphClass: 2
Flags: HMW
HStem: 598.5 62
VStem: 132.77 220.461
LayerCount: 2
Fore
SplineSet
85.2710019209 579.001470671 m 1
 85.2710019209 667.998529329 l 1
 400.728998079 667.998529329 l 1
 400.728998079 579.001470671 l 1
 85.2710019209 579.001470671 l 1
EndSplineSet
EndChar

StartChar: degree
Encoding: 176 176 112
Width: 486
GlyphClass: 2
Flags: HMW
HStem: 426.5 51 636.5 51
VStem: 138.845 45.5 301.655 45.5
LayerCount: 2
Fore
SplineSet
180.111810579 555.799804688 m 0
 180.111810579 505.844550518 205.444243765 469.098138704 242.513671875 469.098138704 c 0
 280.694251806 469.098138704 305.888189421 505.974745273 305.888189421 555.799804688 c 0
 305.888189421 588.432206663 296.08499339 613.784142341 281.122518283 628.746617447 c 0
 270.649732544 639.219403187 257.585773916 644.901861296 242.513671875 644.901861296 c 0
 205.287509835 644.901861296 180.111810579 607.865170928 180.111810579 555.799804688 c 0
375.484857454 555.799804688 m 0
 375.484857454 457.7728884 313.656532617 392.901861296 242.513671875 392.901861296 c 0
 171.40854769 392.901861296 110.515142546 457.716378566 110.515142546 555.799804688 c 0
 110.515142546 656.328472419 171.440548792 721.098138704 242.513671875 721.098138704 c 0
 313.626769948 721.098138704 375.484857454 656.267612488 375.484857454 555.799804688 c 0
EndSplineSet
EndChar

StartChar: plusminus
Encoding: 177 177 113
Width: 486
GlyphClass: 2
Flags: HMW
HStem: -2.5 67<66.3496 419.65 66.3496 419.65> 301.5 67<66.3496 213.77 66.3496 213.77 272.23 419.65 66.3496 272.23>
VStem: 213.77 58.4609
LayerCount: 2
Fore
SplineSet
58.8510800459 -9.99852932905 m 1
 58.8510800459 71.9985293291 l 1
 427.148919954 71.9985293291 l 1
 427.148919954 -9.99852932905 l 1
 58.8510800459 -9.99852932905 l 1
279.728998079 375.998529329 m 1
 427.148919954 375.998529329 l 1
 427.148919954 294.001470671 l 1
 279.728998079 294.001470671 l 1
 279.728998079 117.001470671 l 1
 206.271001921 117.001470671 l 1
 206.271001921 294.001470671 l 1
 58.8510800459 294.001470671 l 1
 58.8510800459 375.998529329 l 1
 206.271001921 375.998529329 l 1
 206.271001921 565.998529329 l 1
 279.728998079 565.998529329 l 1
 279.728998079 375.998529329 l 1
EndSplineSet
EndChar

StartChar: uni00B2
Encoding: 178 178 114
Width: 486
GlyphClass: 2
Flags: HW
HStem: 389.021 51.0918<223.156 335.771> 671.588 52.418<194.298 274.589>
VStem: 279.972 54.75<558.129 667.222>
LayerCount: 2
Fore
SplineSet
272.473150359 624.9765625 m 0
 272.473150359 643.836779527 266.299399152 664.089361296 239.780273438 664.089361296 c 0
 213.136528346 664.089361296 206.665436438 655.505172782 182.436262262 623.36410577 c 1
 133.307466595 665.718617143 l 1
 146.877112422 684.068014115 151.386106519 690.165249347 160.042176408 698.821319236 c 0
 177.308290012 716.08743284 202.473234202 731.504388704 241.395507812 731.504388704 c 0
 302.777783746 731.504388704 342.220209017 685.402092713 342.220209017 626.32421875 c 0
 342.220209017 567.406320816 310.523190642 521.083546468 240.734673064 447.611810579 c 1
 351.07859292 447.611810579 l 1
 342.344727957 381.522955046 l 1
 145.016119109 381.522955046 l 1
 145.016119109 435.9961665 l 1
 251.247199375 549.241179689 272.473150359 580.247639922 272.473150359 624.9765625 c 0
EndSplineSet
EndChar

StartChar: uni00B3
Encoding: 179 179 115
Width: 486
GlyphClass: 2
Flags: HW
HStem: 387.007 50.1934<188.66 282.398> 539.849 48.8467<215.062 277.791> 642.777 21G<164.216 190.049> 676.082 49.0713<192.791 278.415>
VStem: 283.093 53.1338<593.632 670.707> 290.566 54.5479<445.103 534.687>
LayerCount: 2
Fore
SplineSet
275.594244109 633.0625 m 0
 275.594244109 641.143410651 273.158614554 668.583501921 240.07421875 668.583501921 c 0
 215.891306264 668.583501921 207.253437288 659.66124054 179.978137699 631.487931493 c 1
 139.651701235 681.111819977 l 1
 161.313401972 703.746433639 188.976364568 732.651849641 241.28515625 732.651849641 c 0
 303.46500349 732.651849641 343.725091829 689.594798412 343.725091829 638.44921875 c 0
 343.725091829 623.853264647 340.219636099 593.214207312 313.819211277 569.376156254 c 1
 335.227859112 555.085320595 352.612787141 529.566044202 352.612787141 490.768554688 c 0
 352.612787141 428.059259662 306.214036139 379.508306609 239.0625 379.508306609 c 0
 227.125955113 379.508306609 174.295893912 380.879889724 139.90150471 427.756627722 c 2
 130.833342883 440.113723942 l 1
 178.725175805 483.43820201 l 1
 195.79576291 461.14157414 198.980974703 456.981232049 211.686204514 450.882063213 c 0
 220.473041859 446.662650066 229.102877768 444.698724641 238.255859375 444.698724641 c 0
 256.257798472 444.698724641 283.067876921 451.320818674 283.067876921 490.768554688 c 0
 283.067876921 521.089875572 270.536513698 532.350103483 242.497070312 532.350103483 c 0
 199.483395311 532.350103483 199.483395311 532.350103483 199.483395311 532.350103483 c 1
 208.553420795 596.193841829 l 1
 239.669921875 596.193841829 l 2
 247.475913501 596.193841829 275.594244109 598.58643508 275.594244109 633.0625 c 0
EndSplineSet
EndChar

StartChar: acute
Encoding: 180 180 116
Width: 486
GlyphClass: 2
Flags: HMW
HStem: 564.114 217.016
VStem: 158.801 168.398
LayerCount: 2
Fore
SplineSet
196.854575219 552.455608867 m 1
 149.37512504 608.347671185 l 1
 276.153459142 793.522337373 l 1
 336.97083384 721.030146215 l 1
 196.854575219 552.455608867 l 1
EndSplineSet
EndChar

StartChar: mu
Encoding: 181 181 117
Width: 486
GlyphClass: 2
Flags: HMW
HStem: -217 21G<54 131 54 54> -14.5 80<191.328 220.995 174.345 225.716> 466.5 20G<53.834 130.434 130.434 130.434>
VStem: 53.834 76.5996<486 486> 330.634 81.3662 343 69<-71 -71>
LayerCount: 2
Fore
SplineSet
137.932123079 231 m 2
 137.932123079 111.254586705 152.846540156 72.9985293291 208.033203125 72.9985293291 c 0
 234.699885088 72.9985293291 264.340433686 80.2438934171 297.591646142 113.495105874 c 0
 306.872798732 122.776258463 315.388555985 133.258385283 323.135259733 144.975842079 c 1
 323.135259733 494.498529329 l 1
 414.455681885 494.498529329 l 1
 414.489808538 488.543428302 419.498529329 -37.8555245324 419.498529329 -101 c 2
 419.498529329 -108.498529329 l 1
 335.820355562 -108.498529329 l 1
 334.362995293 -74.9792431437 334.144774141 -6.9104036005 332.429113261 42.6258755137 c 1
 322.857078613 30.2781253651 278.488903296 -21.9985293291 213.43359375 -21.9985293291 c 0
 175.022188439 -21.9985293291 153.661796011 -11.5493285992 134.852077697 9.14093255164 c 1
 138.620456115 -224.498529329 l 1
 46.5050279767 -224.498528903 l 1
 46.333666432 493.998529329 l 1
 137.932123079 493.998529329 l 1
 137.932123079 231 l 2
EndSplineSet
EndChar

StartChar: paragraph
Encoding: 182 182 118
Width: 486
GlyphClass: 2
Flags: HMW
HStem: 638.5 20G<266.084 303.416 303.416 303.416 342.154 412.766 412.766 412.766>
VStem: 73.2344 230.182 342.154 70.6113
LayerCount: 2
Fore
SplineSet
334.655767546 -89.9985293291 m 1
 334.655767546 665.998529329 l 1
 420.264154329 665.998529329 l 1
 420.264154329 -89.9985293291 l 1
 334.655767546 -89.9985293291 l 1
274.99609375 216.001470671 m 2
 215.700156796 216.001470671 163.018165431 233.364001413 125.25731859 271.124848255 c 0
 87.6728865335 308.709280311 65.7358456709 365.673832504 65.7358456709 443 c 0
 65.7358456709 522.890620695 86.6460713904 578.816683231 122.599040343 614.769652183 c 0
 158.977609906 651.148221746 209.646307285 665.998529329 266.083984375 665.998529329 c 2
 310.914544954 665.998529329 l 1
 310.914544954 216.001470671 l 1
 274.99609375 216.001470671 l 2
EndSplineSet
EndChar

StartChar: periodcentered
Encoding: 183 183 119
Width: 486
GlyphClass: 2
Flags: HMW
HStem: 260.5 174<223.875 262.125>
VStem: 174.89 136.221
LayerCount: 2
Fore
SplineSet
318.608880891 347 m 0
 318.608880891 291.309673129 284.976907279 253.001470671 243 253.001470671 c 0
 201.022774966 253.001470671 167.391119109 291.310057978 167.391119109 347 c 0
 167.391119109 403.749711426 201.062691886 441.998529329 243 441.998529329 c 0
 284.938950713 441.998529329 318.608880891 403.747708549 318.608880891 347 c 0
EndSplineSet
EndChar

StartChar: cedilla
Encoding: 184 184 120
Width: 486
GlyphClass: 2
Flags: HMW
HStem: -228.627 44.8809
VStem: 258.923 56.8408
LayerCount: 2
Fore
SplineSet
266.455411627 -57.4993780892 m 1
 295.256379078 -67.8492655335 323.262201204 -87.5020568239 323.262201204 -135 c 0
 323.262201204 -227.651392868 214.443340519 -233.987580451 171.18628169 -236.506305948 c 1
 161.544058017 -176.984839794 l 1
 225.690117145 -171.327595579 251.424322233 -163.826284762 251.424322233 -136 c 0
 251.424322233 -109.038500018 228.552365654 -103.259911703 185.846202405 -95.8605639037 c 1
 224.272553456 17.9985293291 l 1
 229.658203125 17.9985293291 l 1
 278.53125 17.9985293291 l 1
 288.539248114 17.9985293291 l 1
 266.455411627 -57.4993780892 l 1
EndSplineSet
EndChar

StartChar: uni00B9
Encoding: 185 185 121
Width: 486
GlyphClass: 2
Flags: HW
HStem: 626.102 20G<198.053 227.677>
LayerCount: 2
Fore
SplineSet
238.901367188 731.573724641 m 1
 289.294427767 731.573724641 l 1
 289.294427767 446.573724641 l 1
 347.197748079 446.573724641 l 1
 347.197748079 380.626470671 l 1
 152.021978483 380.626470671 l 1
 152.021978483 446.573724641 l 1
 220.178228483 446.573724641 l 1
 220.178228483 631.988444011 l 1
 168.128783942 596.848282373 l 1
 136.647976842 654.344976306 l 1
 236.333005885 731.573724641 l 1
 238.901367188 731.573724641 l 1
EndSplineSet
EndChar

StartChar: ordmasculine
Encoding: 186 186 122
Width: 486
GlyphClass: 2
Flags: HMW
HStem: 387 52<217.35 268.65 217.35 281.25> 672 52<217.35 268.65>
VStem: 100.8 59.4004 325.8 59.4004
LayerCount: 2
Fore
SplineSet
243 664.501470671 m 0
 193.604451501 664.501470671 167.698724641 616.830961524 167.698724641 555 c 0
 167.698724641 514.865856833 178.805006439 483.454546626 197.006146036 465.253407029 c 0
 209.092162994 453.167390071 224.40807059 446.498529329 243 446.498529329 c 0
 292.249130258 446.498529329 318.301275359 493.895994892 318.301275359 555 c 0
 318.301275359 595.845359851 307.132242897 627.544561086 288.86352579 645.813278194 c 0
 276.798922564 657.877881419 261.532021794 664.501470671 243 664.501470671 c 0
392.698724641 555 m 0
 392.698724641 444.621058245 323.446670044 379.501470671 243 379.501470671 c 0
 163.388024688 379.501470671 93.3012753589 444.696242667 93.3012753589 555 c 0
 93.3012753589 667.350659614 163.43124349 731.498529329 243 731.498529329 c 0
 323.3998504 731.498529329 392.698724641 667.430395441 392.698724641 555 c 0
EndSplineSet
EndChar

StartChar: guillemotright
Encoding: 187 187 123
Width: 486
GlyphClass: 2
Flags: HW
LayerCount: 2
Fore
SplineSet
285.748529329 281.466981413 m 1
 285.748529329 253 l 1
 285.748529329 250.052144982 l 1
 105.749665906 56.2941230016 l 1
 51.1762604041 110.867528503 l 1
 191.913933331 264.800639449 l 1
 58.7105725389 394.702600673 l 1
 111.945514403 450.666545248 l 1
 285.748529329 281.466981413 l 1
485.947748079 281.481560994 m 1
 485.947748079 253 l 1
 485.947748079 250.038463494 l 1
 304.831864905 56.3115333775 l 1
 250.275869779 110.867528503 l 1
 391.013542706 264.800639449 l 1
 257.810181914 394.702600673 l 1
 311.027911371 450.648450475 l 1
 485.947748079 281.481560994 l 1
EndSplineSet
EndChar

StartChar: questiondown
Encoding: 191 191 124
Width: 486
GlyphClass: 2
Flags: HMW
HStem: -110.891 69.2998 460.339 132.661
VStem: 61.6816 78.4092 198.005 119.393 222.952 74.8438
LayerCount: 2
Fore
SplineSet
324.895990267 526.668945312 m 0
 324.895990267 485.654408056 295.522031194 452.840337859 257.702148438 452.840337859 c 0
 219.096952445 452.840337859 190.506353483 485.531315146 190.506353483 526.668945312 c 0
 190.506353483 568.806345675 219.121289188 600.498529329 257.702148438 600.498529329 c 0
 295.510248396 600.498529329 324.895990267 568.669476546 324.895990267 526.668945312 c 0
147.589349641 47.509765625 m 0
 147.589349641 -6.1735206155 191.636115646 -34.0922909834 245.227539062 -34.0922909834 c 0
 284.561766896 -34.0922909834 329.629105489 -12.5620872611 365.718511088 36.1294147981 c 2
 370.490104298 42.5672055218 l 1
 434.619815407 -11.7794217211 l 1
 412.329827855 -40.8160499357 352.780781097 -118.389154329 238.099609375 -118.389154329 c 0
 124.485093093 -118.389154329 54.1831112959 -39.9119154621 54.1831112959 42.5595703125 c 0
 54.1831112959 127.042777143 99.0441610252 162.943330179 140.198119177 195.877242029 c 0
 180.634194738 228.236660367 215.453619109 256.722785413 215.453619109 323.71875 c 2
 215.453619109 364.878412141 l 1
 305.294427767 364.878412141 l 1
 305.294427767 318.768554688 l 2
 305.294427767 155.299159565 147.589349641 153.835831973 147.589349641 47.509765625 c 0
EndSplineSet
EndChar

StartChar: Agrave
Encoding: 192 192 125
Width: 486
GlyphClass: 2
Flags: HW
LayerCount: 2
Fore
SplineSet
267.706186789 685.600385072 m 1
 133.515192129 810.942101297 l 1
 180.693215773 879.101716814 l 1
 305.184809383 739.579843245 l 1
 267.706186789 685.600385072 l 1
199.201504482 663.498529329 m 1
 286.798495518 663.498529329 l 1
 469.900669611 -7.49852932905 l 1
 382.949885887 -7.49852932905 l 1
 332.730159324 192.501470671 l 1
 151.626829277 192.501470671 l 1
 100.596555839 -7.49852932905 l 1
 16.0993303885 -7.49852932905 l 1
 199.201504482 663.498529329 l 1
242.08191308 560.574422441 m 1
 221.943203725 471.704401254 219.693478718 462.744679327 172.426155637 274.498529329 c 1
 311.954612173 274.498529329 l 1
 256.123756256 496.840971007 256.123756256 496.840971007 242.08191308 560.574422441 c 1
EndSplineSet
EndChar

StartChar: Aacute
Encoding: 193 193 126
Width: 486
GlyphClass: 2
Flags: HW
LayerCount: 2
Fore
SplineSet
218.293813211 685.600385072 m 1
 180.815190617 739.579843245 l 1
 305.306784227 879.101716814 l 1
 352.484807871 810.942101297 l 1
 218.293813211 685.600385072 l 1
199.201504482 663.498529329 m 1
 286.798495518 663.498529329 l 1
 469.900669611 -7.49852932905 l 1
 382.949885887 -7.49852932905 l 1
 332.730159324 192.501470671 l 1
 151.626829277 192.501470671 l 1
 100.596555839 -7.49852932905 l 1
 16.0993303885 -7.49852932905 l 1
 199.201504482 663.498529329 l 1
242.08191308 560.574422441 m 1
 221.943203725 471.704401254 219.693478718 462.744679327 172.426155637 274.498529329 c 1
 311.954612173 274.498529329 l 1
 256.123756256 496.840971007 256.123756256 496.840971007 242.08191308 560.574422441 c 1
EndSplineSet
EndChar

StartChar: Acircumflex
Encoding: 194 194 127
Width: 486
GlyphClass: 2
Flags: HMW
HStem: 0 21G<25.9199 25.9199 25.9199 94.7695 388.8 388.8 388.8 460.08> 200 67<162.811 321.57 162.811 338.58 145.8 321.57> 636 20G<204.93 281.07 281.07 281.07>
LayerCount: 2
Fore
SplineSet
199.201504482 663.498529329 m 1
 286.798495518 663.498529329 l 1
 469.900669611 -7.49852932905 l 1
 382.949885887 -7.49852932905 l 1
 332.730159324 192.501470671 l 1
 151.626829277 192.501470671 l 1
 100.596555839 -7.49852932905 l 1
 16.0993303885 -7.49852932905 l 1
 199.201504482 663.498529329 l 1
242.751953125 850.386657939 m 1
 372.328741314 728.006333121 l 1
 328.846450821 683.477915258 l 1
 242.751899644 752.392507669 l 1
 156.65529333 683.477844906 l 1
 113.175326954 728.006486141 l 1
 242.751953125 850.386657939 l 1
242.08191308 560.574422441 m 1
 221.943203725 471.704401254 219.693478718 462.744679327 172.426155637 274.498529329 c 1
 311.954612173 274.498529329 l 1
 256.123756256 496.840971007 256.123756256 496.840971007 242.08191308 560.574422441 c 1
EndSplineSet
EndChar

StartChar: Atilde
Encoding: 195 195 128
Width: 486
GlyphClass: 2
Flags: HW
LayerCount: 2
Fore
SplineSet
182.25 848.498529329 m 0
 245.848529583 848.498529329 269.629264292 777.498529329 302.129882812 777.498529329 c 0
 327.967680721 777.498529329 332.705385391 827.790383724 334.244133465 844.12455807 c 1
 394.163193218 838.840617561 l 1
 393.154656941 814.874050838 390.732747158 757.320481678 356.902913985 723.490648505 c 0
 342.671748799 709.259483319 324.487705545 701.501470671 303.75 701.501470671 c 0
 240.151470417 701.501470671 216.370735708 772.501470671 183.870117188 772.501470671 c 0
 165.707374575 772.501470671 154.926492643 746.069108512 152.466420856 713.432205561 c 2
 151.895883986 705.863094542 l 1
 91.8328569624 711.159730752 l 1
 92.838951491 734.757771915 95.2980527925 792.436222687 129.361144069 826.499313964 c 0
 143.528199791 840.666369685 161.609160008 848.498529329 182.25 848.498529329 c 0
199.201504482 663.498529329 m 1
 286.798495518 663.498529329 l 1
 469.900669611 -7.49852932905 l 1
 382.949885887 -7.49852932905 l 1
 332.730159324 192.501470671 l 1
 151.626829277 192.501470671 l 1
 100.596555839 -7.49852932905 l 1
 16.0993303885 -7.49852932905 l 1
 199.201504482 663.498529329 l 1
242.08191308 560.574422441 m 1
 221.943203725 471.704401254 219.693478718 462.744679327 172.426155637 274.498529329 c 1
 311.954612173 274.498529329 l 1
 256.123756256 496.840971007 256.123756256 496.840971007 242.08191308 560.574422441 c 1
EndSplineSet
EndChar

StartChar: Adieresis
Encoding: 196 196 129
Width: 486
GlyphClass: 2
Flags: HW
LayerCount: 2
Fore
SplineSet
365.518060579 766 m 0
 365.518060579 731.209275387 343.893177275 707.501470671 316.709960938 707.501470671 c 0
 289.717492349 707.501470671 268.711431609 730.929272666 268.711431609 766 c 0
 268.711431609 801.044752226 289.750179711 823.498529329 316.709960938 823.498529329 c 0
 343.876930043 823.498529329 365.518060579 800.756392343 365.518060579 766 c 0
217.288568391 766 m 0
 217.288568391 730.932550238 196.285268162 707.501470671 169.290039062 707.501470671 c 0
 142.1076445 707.501470671 120.481939421 731.208316258 120.481939421 766 c 0
 120.481939421 800.759411177 142.125720515 823.498529329 169.290039062 823.498529329 c 0
 196.251842571 823.498529329 217.288568391 801.042410146 217.288568391 766 c 0
199.201504482 663.498529329 m 1
 286.798495518 663.498529329 l 1
 469.900669611 -7.49852932905 l 1
 382.949885887 -7.49852932905 l 1
 332.730159324 192.501470671 l 1
 151.626829277 192.501470671 l 1
 100.596555839 -7.49852932905 l 1
 16.0993303885 -7.49852932905 l 1
 199.201504482 663.498529329 l 1
242.08191308 560.574422441 m 1
 221.943203725 471.704401254 219.693478718 462.744679327 172.426155637 274.498529329 c 1
 311.954612173 274.498529329 l 1
 256.123756256 496.840971007 256.123756256 496.840971007 242.08191308 560.574422441 c 1
EndSplineSet
EndChar

StartChar: Aring
Encoding: 197 197 130
Width: 486
GlyphClass: 2
Flags: HW
LayerCount: 2
Fore
SplineSet
329.068841829 789 m 0
 329.068841829 730.483638505 291.378023546 691.501470671 243 691.501470671 c 0
 193.920876185 691.501470671 156.931158171 730.355045244 156.931158171 789 c 0
 156.931158171 848.716071556 193.974877865 887.498529329 243 887.498529329 c 0
 291.336326906 887.498529329 329.068841829 848.571836068 329.068841829 789 c 0
208.378412141 789 m 0
 208.378412141 782.311684467 209.773907697 742.498529329 243 742.498529329 c 0
 261.324664406 742.498529329 276.812017546 759.054362071 276.812017546 789 c 0
 276.812017546 818.189042334 261.106515883 835.501470671 243 835.501470671 c 0
 222.80339054 835.501470671 208.378412141 817.579337917 208.378412141 789 c 0
199.201504482 663.498529329 m 1
 286.798495518 663.498529329 l 1
 469.900669611 -7.49852932905 l 1
 382.949885887 -7.49852932905 l 1
 332.730159324 192.501470671 l 1
 151.626829277 192.501470671 l 1
 100.596555839 -7.49852932905 l 1
 16.0993303885 -7.49852932905 l 1
 199.201504482 663.498529329 l 1
242.08191308 560.574422441 m 1
 221.943203725 471.704401254 219.693478718 462.744679327 172.426155637 274.498529329 c 1
 311.954612173 274.498529329 l 1
 256.123756256 496.840971007 256.123756256 496.840971007 242.08191308 560.574422441 c 1
EndSplineSet
EndChar

StartChar: AE
Encoding: 198 198 131
Width: 486
GlyphClass: 2
Flags: HW
LayerCount: 2
Fore
SplineSet
478.918451204 663.498529329 m 1
 478.918451204 578.501470671 l 1
 325.828607454 578.501470671 l 1
 325.828607454 388.498529329 l 1
 444.898919954 388.498529329 l 1
 444.898919954 302.501470671 l 1
 325.828607454 302.501470671 l 1
 325.828607454 78.4985293291 l 1
 486.208490267 78.4985293291 l 1
 486.208490267 -7.49852932905 l 1
 249.271001921 -7.49852932905 l 1
 249.271001921 183.501470671 l 1
 134.320306177 183.501470671 l 1
 75.1904233649 -7.49852932905 l 1
 -11.1439415944 -7.49852932905 l 1
 207.585572813 663.498529329 l 1
 478.918451204 663.498529329 l 1
249.271001921 265.498529329 m 1
 249.271001921 548.166923886 l 1
 248.384897313 545.338342433 237.219936314 511.934844023 160.057085828 265.498529329 c 1
 249.271001921 265.498529329 l 1
EndSplineSet
EndChar

StartChar: Ccedilla
Encoding: 199 199 132
Width: 486
GlyphClass: 2
Flags: HW
LayerCount: 2
Fore
SplineSet
296.793132822 -59.0641513209 m 1
 327.135183654 -69.4061519615 354.178216829 -88.5036200997 354.178216829 -135 c 0
 354.178216829 -223.896205982 250.783665895 -231.312770123 206.70983334 -233.879399134 c 1
 197.857396448 -179.238679561 l 1
 262.00816022 -173.581648966 287.341314421 -164.731156319 287.341314421 -136 c 0
 287.341314421 -107.593002367 262.91717133 -100.886765936 222.604613239 -93.9016888208 c 1
 248.461903169 -16.0901651513 l 1
 131.983250634 4.15440651815 45.1518612959 127.371700978 45.1518612959 328 c 0
 45.1518612959 454.70808133 80.6245377285 553.207877302 140.136888151 612.720227725 c 0
 180.806671332 653.390010905 232.607786508 675.498529329 290.790039062 675.498529329 c 0
 343.313534019 675.498529329 387.502355758 650.505109407 419.299239243 618.708225921 c 0
 430.950589888 607.056875277 437.574635064 598.240924679 445.047497795 588.044126547 c 1
 397.899798442 522.406943619 l 1
 379.720228667 546.171053408 348.102414614 587.501470671 290.790039062 587.501470671 c 0
 190.461202357 587.501470671 129.809076204 484.00471866 129.809076204 330 c 0
 129.809076204 227.420995378 155.944194208 149.896477122 198.68714882 107.153522511 c 0
 223.894640477 81.9460308534 254.874227401 68.4985293291 290.790039062 68.4985293291 c 0
 353.919983605 68.4985293291 388.354570235 115.962812545 410.576797739 146.664137763 c 1
 457.976176312 83.1650446539 l 1
 437.662128078 53.8166826344 393.541527802 -7.35608692802 308.746771162 -17.8973348978 c 1
 296.793132822 -59.0641513209 l 1
EndSplineSet
EndChar

StartChar: Egrave
Encoding: 200 200 133
Width: 486
GlyphClass: 2
Flags: HW
LayerCount: 2
Fore
SplineSet
292.816538352 685.600385072 m 1
 158.625543691 810.942101297 l 1
 205.803567336 879.101716814 l 1
 330.295160946 739.579843245 l 1
 292.816538352 685.600385072 l 1
84.8413144209 -7.49852932905 m 1
 84.8413144209 663.498529329 l 1
 428.698724641 663.498529329 l 1
 428.698724641 578.501470671 l 1
 167.878412141 578.501470671 l 1
 167.878412141 387.498529329 l 1
 388.198724641 387.498529329 l 1
 388.198724641 301.501470671 l 1
 167.878412141 301.501470671 l 1
 167.878412141 78.4985293291 l 1
 436.798334017 78.4985293291 l 1
 436.798334017 -7.49852932905 l 1
 84.8413144209 -7.49852932905 l 1
EndSplineSet
EndChar

StartChar: Eacute
Encoding: 201 201 134
Width: 486
GlyphClass: 2
Flags: HW
LayerCount: 2
Fore
SplineSet
243.403087688 685.600291178 m 1
 205.925620354 739.579893157 l 1
 330.416135521 879.101751063 l 1
 377.594182871 810.942101297 l 1
 243.403087688 685.600291178 l 1
84.8413144209 -7.49852932905 m 1
 84.8413144209 663.498529329 l 1
 428.698724641 663.498529329 l 1
 428.698724641 578.501470671 l 1
 167.878412141 578.501470671 l 1
 167.878412141 387.498529329 l 1
 388.198724641 387.498529329 l 1
 388.198724641 301.501470671 l 1
 167.878412141 301.501470671 l 1
 167.878412141 78.4985293291 l 1
 436.798334017 78.4985293291 l 1
 436.798334017 -7.49852932905 l 1
 84.8413144209 -7.49852932905 l 1
EndSplineSet
EndChar

StartChar: Ecircumflex
Encoding: 202 202 135
Width: 486
GlyphClass: 2
Flags: HMW
HStem: 0 71<92.3398 429.3 160.38 429.3 160.38 429.3> 309 71<160.38 380.7 160.38 380.7> 586 70<160.38 421.2 160.38 160.38>
VStem: 92.3398 68.04
LayerCount: 2
Fore
SplineSet
84.8413144209 -7.49852932905 m 1
 84.8413144209 663.498529329 l 1
 428.698724641 663.498529329 l 1
 428.698724641 578.501470671 l 1
 167.878412141 578.501470671 l 1
 167.878412141 387.498529329 l 1
 388.198724641 387.498529329 l 1
 388.198724641 301.501470671 l 1
 167.878412141 301.501470671 l 1
 167.878412141 78.4985293291 l 1
 436.798334017 78.4985293291 l 1
 436.798334017 -7.49852932905 l 1
 84.8413144209 -7.49852932905 l 1
249.751953125 850.386657939 m 1
 379.328741314 728.006333121 l 1
 335.846450821 683.477915258 l 1
 249.751899644 752.392507669 l 1
 163.65529333 683.477844906 l 1
 120.175326954 728.006486141 l 1
 249.751953125 850.386657939 l 1
EndSplineSet
EndChar

StartChar: Edieresis
Encoding: 203 203 136
Width: 486
GlyphClass: 2
Flags: HW
LayerCount: 2
Fore
SplineSet
390.628412141 766 m 0
 390.628412141 731.209275386 369.003528837 707.501470671 341.8203125 707.501470671 c 0
 314.827843912 707.501470671 293.821783171 730.929272665 293.821783171 766 c 0
 293.821783171 801.044752225 314.860531273 823.498529329 341.8203125 823.498529329 c 0
 368.987281606 823.498529329 390.628412141 800.756392343 390.628412141 766 c 0
242.398919954 766 m 0
 242.398919954 730.933668383 221.395556603 707.501470671 194.400390625 707.501470671 c 0
 167.218081135 707.501470671 145.591314421 731.208275681 145.591314421 766 c 0
 145.591314421 800.758784167 167.235567758 823.498529329 194.400390625 823.498529329 c 0
 221.361098062 823.498529329 242.398919954 801.042516091 242.398919954 766 c 0
84.8413144209 -7.49852932905 m 1
 84.8413144209 663.498529329 l 1
 428.698724641 663.498529329 l 1
 428.698724641 578.501470671 l 1
 167.878412141 578.501470671 l 1
 167.878412141 387.498529329 l 1
 388.198724641 387.498529329 l 1
 388.198724641 301.501470671 l 1
 167.878412141 301.501470671 l 1
 167.878412141 78.4985293291 l 1
 436.798334017 78.4985293291 l 1
 436.798334017 -7.49852932905 l 1
 84.8413144209 -7.49852932905 l 1
EndSplineSet
EndChar

StartChar: Igrave
Encoding: 204 204 137
Width: 486
GlyphClass: 2
Flags: HW
LayerCount: 2
Fore
SplineSet
267.706186789 685.600385072 m 1
 133.515192129 810.942101297 l 1
 180.693215773 879.101716814 l 1
 305.184809383 739.579843245 l 1
 267.706186789 685.600385072 l 1
69.4516659834 -7.49852932905 m 1
 69.4516659834 78.4985293291 l 1
 201.481939421 78.4985293291 l 1
 201.481939421 578.501470671 l 1
 69.4516659834 578.501470671 l 1
 69.4516659834 663.498529329 l 1
 416.548334017 663.498529329 l 1
 416.548334017 578.501470671 l 1
 284.518060579 578.501470671 l 1
 284.518060579 78.4985293291 l 1
 416.548334017 78.4985293291 l 1
 416.548334017 -7.49852932905 l 1
 69.4516659834 -7.49852932905 l 1
EndSplineSet
EndChar

StartChar: Iacute
Encoding: 205 205 138
Width: 486
GlyphClass: 2
Flags: HW
LayerCount: 2
Fore
SplineSet
218.293813211 685.600385072 m 1
 180.815190617 739.579843245 l 1
 305.306784227 879.101716814 l 1
 352.484807871 810.942101297 l 1
 218.293813211 685.600385072 l 1
69.4516659834 -7.49852932905 m 1
 69.4516659834 78.4985293291 l 1
 201.481939421 78.4985293291 l 1
 201.481939421 578.501470671 l 1
 69.4516659834 578.501470671 l 1
 69.4516659834 663.498529329 l 1
 416.548334017 663.498529329 l 1
 416.548334017 578.501470671 l 1
 284.518060579 578.501470671 l 1
 284.518060579 78.4985293291 l 1
 416.548334017 78.4985293291 l 1
 416.548334017 -7.49852932905 l 1
 69.4516659834 -7.49852932905 l 1
EndSplineSet
EndChar

StartChar: Icircumflex
Encoding: 206 206 139
Width: 486
GlyphClass: 2
Flags: HMW
HStem: 0 71<76.9502 208.98 76.9502 208.98 277.02 409.05> 586 70<76.9502 208.98 76.9502 409.05 277.02 277.02 277.02 409.05>
VStem: 208.98 68.0391
LayerCount: 2
Fore
SplineSet
69.4516659834 -7.49852932905 m 1
 69.4516659834 78.4985293291 l 1
 201.481939421 78.4985293291 l 1
 201.481939421 578.501470671 l 1
 69.4516659834 578.501470671 l 1
 69.4516659834 663.498529329 l 1
 416.548334017 663.498529329 l 1
 416.548334017 578.501470671 l 1
 284.518060579 578.501470671 l 1
 284.518060579 78.4985293291 l 1
 416.548334017 78.4985293291 l 1
 416.548334017 -7.49852932905 l 1
 69.4516659834 -7.49852932905 l 1
242.751953125 850.386657939 m 1
 372.328741314 728.006333121 l 1
 328.846450821 683.477915258 l 1
 242.751899644 752.392507669 l 1
 156.65529333 683.477844906 l 1
 113.175326954 728.006486141 l 1
 242.751953125 850.386657939 l 1
EndSplineSet
EndChar

StartChar: Idieresis
Encoding: 207 207 140
Width: 486
GlyphClass: 2
Flags: HW
LayerCount: 2
Fore
SplineSet
365.518060579 766 m 0
 365.518060579 731.209275387 343.893177275 707.501470671 316.709960938 707.501470671 c 0
 289.717492349 707.501470671 268.711431609 730.929272666 268.711431609 766 c 0
 268.711431609 801.044752226 289.750179711 823.498529329 316.709960938 823.498529329 c 0
 343.876930043 823.498529329 365.518060579 800.756392343 365.518060579 766 c 0
217.288568391 766 m 0
 217.288568391 730.932550238 196.285268162 707.501470671 169.290039062 707.501470671 c 0
 142.1076445 707.501470671 120.481939421 731.208316258 120.481939421 766 c 0
 120.481939421 800.759411177 142.125720515 823.498529329 169.290039062 823.498529329 c 0
 196.251842571 823.498529329 217.288568391 801.042410146 217.288568391 766 c 0
69.4516659834 -7.49852932905 m 1
 69.4516659834 78.4985293291 l 1
 201.481939421 78.4985293291 l 1
 201.481939421 578.501470671 l 1
 69.4516659834 578.501470671 l 1
 69.4516659834 663.498529329 l 1
 416.548334017 663.498529329 l 1
 416.548334017 578.501470671 l 1
 284.518060579 578.501470671 l 1
 284.518060579 78.4985293291 l 1
 416.548334017 78.4985293291 l 1
 416.548334017 -7.49852932905 l 1
 69.4516659834 -7.49852932905 l 1
EndSplineSet
EndChar

StartChar: Eth
Encoding: 208 208 141
Width: 486
GlyphClass: 2
Flags: HW
LayerCount: 2
Fore
SplineSet
369.961431609 331 m 0
 369.961431609 453.765485801 336.209072861 580.501470671 196.830078125 580.501470671 c 2
 145.198724641 580.501470671 l 1
 145.198724641 383.498529329 l 1
 261.838373079 383.498529329 l 1
 261.838373079 306.501470671 l 1
 145.198724641 306.501470671 l 1
 145.198724641 75.4985293291 l 1
 196.830078125 75.4985293291 l 2
 331.355401035 75.4985293291 369.961431609 199.662379288 369.961431609 331 c 0
62.9711972334 663.498529329 m 1
 201.689453125 663.498529329 l 2
 271.265997984 663.498529329 328.157457619 641.628300623 370.166309824 599.619448418 c 0
 426.712240004 543.073518237 455.428216829 451.466590441 455.428216829 331 c 0
 455.428216829 207.848752922 425.712097537 113.284133551 367.929475855 55.5015118684 c 0
 326.729293177 14.3013291901 271.633871247 -7.49852932905 204.9296875 -7.49852932905 c 2
 62.9711972334 -7.49852932905 l 1
 62.9711972334 306.501470671 l 1
 2.22119723345 306.501470671 l 1
 2.22119723345 376.794689415 l 1
 62.9711972334 382.794689415 l 1
 62.9711972334 663.498529329 l 1
EndSplineSet
EndChar

StartChar: Ntilde
Encoding: 209 209 142
Width: 486
GlyphClass: 2
Flags: HW
LayerCount: 2
Fore
SplineSet
190.349609375 848.498529329 m 0
 253.948173757 848.498529329 277.728799489 777.498529329 310.23046875 777.498529329 c 0
 336.068634795 777.498529329 340.805246207 827.790903033 342.343575798 844.1245728 c 1
 402.262712142 838.840625537 l 1
 401.254486925 814.874227607 398.833310535 757.320740698 365.003397154 723.490827317 c 0
 350.772092729 709.259522892 332.587745675 701.501470671 311.849609375 701.501470671 c 0
 248.251032887 701.501470671 224.471373522 772.501470671 191.969726562 772.501470671 c 0
 173.80692222 772.501470671 163.02633842 746.069122393 160.567019608 713.432375582 c 2
 159.996640691 705.863079483 l 1
 99.9335345843 711.159722667 l 1
 100.939313769 734.757479461 103.397685006 792.436190093 137.460926352 826.499431438 c 0
 151.62791483 840.666419916 169.70883447 848.498529329 190.349609375 848.498529329 c 0
131.772149732 505.747576007 m 1
 138.718255891 376.884960311 138.718255891 376.884960311 138.718255891 343 c 2
 138.718255891 -7.49852932905 l 1
 58.9213925459 -7.49852932905 l 1
 58.9213925459 663.498529329 l 1
 145.958904667 663.498529329 l 1
 318.06398388 246.643453582 l 1
 354.193304993 150.344490078 l 1
 347.281744109 278.480482238 347.281744109 278.480482238 347.281744109 316 c 2
 347.281744109 663.498529329 l 1
 427.078607454 663.498529329 l 1
 427.078607454 -7.49852932905 l 1
 340.041095333 -7.49852932905 l 1
 167.93601612 409.356546418 l 1
 131.772149732 505.747576007 l 1
EndSplineSet
EndChar

StartChar: Ograve
Encoding: 210 210 143
Width: 486
GlyphClass: 2
Flags: HW
LayerCount: 2
Fore
SplineSet
267.706186789 685.600385072 m 1
 133.515192129 810.942101297 l 1
 180.693215773 879.101716814 l 1
 305.184809383 739.579843245 l 1
 267.706186789 685.600385072 l 1
243 587.501470671 m 0
 163.686162422 587.501470671 116.038568391 484.460202748 116.038568391 331 c 0
 116.038568391 217.035543604 141.196867265 135.109601272 180.483933358 95.8225351793 c 0
 198.588548454 77.7179200831 219.480978706 68.4985293291 243 68.4985293291 c 0
 322.08170244 68.4985293291 369.961431609 174.397342018 369.961431609 331 c 0
 369.961431609 441.834861182 345.299117749 521.216479923 306.688034129 559.827563543 c 0
 288.355875781 578.159721891 267.062504589 587.501470671 243 587.501470671 c 0
243 675.498529329 m 0
 364.67884249 675.498529329 454.618646517 551.82518932 454.618646517 331 c 0
 454.618646517 192.989732396 420.381436726 89.2770674567 362.499209013 31.3948397438 c 0
 329.427725927 -1.67664334282 288.590993738 -19.4985293291 243 -19.4985293291 c 0
 121.246412437 -19.4985293291 31.3813534834 107.1270696 31.3813534834 331 c 0
 31.3813534834 465.963744649 65.0586499932 567.221167768 122.081347509 624.243865283 c 0
 155.428940684 657.591458458 196.779710645 675.498529329 243 675.498529329 c 0
EndSplineSet
EndChar

StartChar: Oacute
Encoding: 211 211 144
Width: 486
GlyphClass: 2
Flags: HW
LayerCount: 2
Fore
SplineSet
218.293813211 685.600385072 m 1
 180.815190617 739.579843245 l 1
 305.306784227 879.101716814 l 1
 352.484807871 810.942101297 l 1
 218.293813211 685.600385072 l 1
243 587.501470671 m 0
 163.686162422 587.501470671 116.038568391 484.460202748 116.038568391 331 c 0
 116.038568391 217.035543604 141.196867265 135.109601272 180.483933358 95.8225351793 c 0
 198.588548454 77.7179200831 219.480978706 68.4985293291 243 68.4985293291 c 0
 322.08170244 68.4985293291 369.961431609 174.397342018 369.961431609 331 c 0
 369.961431609 441.834861182 345.299117749 521.216479923 306.688034129 559.827563543 c 0
 288.355875781 578.159721891 267.062504589 587.501470671 243 587.501470671 c 0
243 675.498529329 m 0
 364.67884249 675.498529329 454.618646517 551.82518932 454.618646517 331 c 0
 454.618646517 192.989732396 420.381436726 89.2770674567 362.499209013 31.3948397438 c 0
 329.427725927 -1.67664334282 288.590993738 -19.4985293291 243 -19.4985293291 c 0
 121.246412437 -19.4985293291 31.3813534834 107.1270696 31.3813534834 331 c 0
 31.3813534834 465.963744649 65.0586499932 567.221167768 122.081347509 624.243865283 c 0
 155.428940684 657.591458458 196.779710645 675.498529329 243 675.498529329 c 0
EndSplineSet
EndChar

StartChar: Ocircumflex
Encoding: 212 212 145
Width: 486
GlyphClass: 2
Flags: HMW
HStem: -12 73<202.5 283.5 202.5 302.94> 595 73<202.5 283.5>
VStem: 38.8799 69.6602 377.46 69.6602
LayerCount: 2
Fore
SplineSet
243 587.501470671 m 0
 163.686162422 587.501470671 116.038568391 484.460202748 116.038568391 331 c 0
 116.038568391 217.035543604 141.196867265 135.109601272 180.483933358 95.8225351793 c 0
 198.588548454 77.7179200831 219.480978706 68.4985293291 243 68.4985293291 c 0
 322.08170244 68.4985293291 369.961431609 174.397342018 369.961431609 331 c 0
 369.961431609 441.834861182 345.299117749 521.216479923 306.688034129 559.827563543 c 0
 288.355875781 578.159721891 267.062504589 587.501470671 243 587.501470671 c 0
243 675.498529329 m 0
 364.67884249 675.498529329 454.618646517 551.82518932 454.618646517 331 c 0
 454.618646517 192.989732396 420.381436726 89.2770674567 362.499209013 31.3948397438 c 0
 329.427725927 -1.67664334282 288.590993738 -19.4985293291 243 -19.4985293291 c 0
 121.246412437 -19.4985293291 31.3813534834 107.1270696 31.3813534834 331 c 0
 31.3813534834 465.963744649 65.0586499932 567.221167768 122.081347509 624.243865283 c 0
 155.428940684 657.591458458 196.779710645 675.498529329 243 675.498529329 c 0
242.751953125 850.386657939 m 1
 372.328741314 728.006333121 l 1
 328.846450821 683.477915258 l 1
 242.751899644 752.392507669 l 1
 156.65529333 683.477844906 l 1
 113.175326954 728.006486141 l 1
 242.751953125 850.386657939 l 1
EndSplineSet
EndChar

StartChar: Otilde
Encoding: 213 213 146
Width: 486
GlyphClass: 2
Flags: HW
LayerCount: 2
Fore
SplineSet
182.25 848.498529329 m 0
 245.848529583 848.498529329 269.629264292 777.498529329 302.129882812 777.498529329 c 0
 327.967680721 777.498529329 332.705385391 827.790383724 334.244133465 844.12455807 c 1
 394.163193218 838.840617561 l 1
 393.154656941 814.874050838 390.732747158 757.320481678 356.902913985 723.490648505 c 0
 342.671748799 709.259483319 324.487705545 701.501470671 303.75 701.501470671 c 0
 240.151470417 701.501470671 216.370735708 772.501470671 183.870117188 772.501470671 c 0
 165.707374575 772.501470671 154.926492643 746.069108512 152.466420856 713.432205561 c 2
 151.895883986 705.863094542 l 1
 91.8328569624 711.159730752 l 1
 92.838951491 734.757771915 95.2980527925 792.436222687 129.361144069 826.499313964 c 0
 143.528199791 840.666369685 161.609160008 848.498529329 182.25 848.498529329 c 0
243 587.501470671 m 0
 163.686162422 587.501470671 116.038568391 484.460202748 116.038568391 331 c 0
 116.038568391 217.035543604 141.196867265 135.109601272 180.483933358 95.8225351793 c 0
 198.588548454 77.7179200831 219.480978706 68.4985293291 243 68.4985293291 c 0
 322.08170244 68.4985293291 369.961431609 174.397342018 369.961431609 331 c 0
 369.961431609 441.834861182 345.299117749 521.216479923 306.688034129 559.827563543 c 0
 288.355875781 578.159721891 267.062504589 587.501470671 243 587.501470671 c 0
243 675.498529329 m 0
 364.67884249 675.498529329 454.618646517 551.82518932 454.618646517 331 c 0
 454.618646517 192.989732396 420.381436726 89.2770674567 362.499209013 31.3948397438 c 0
 329.427725927 -1.67664334282 288.590993738 -19.4985293291 243 -19.4985293291 c 0
 121.246412437 -19.4985293291 31.3813534834 107.1270696 31.3813534834 331 c 0
 31.3813534834 465.963744649 65.0586499932 567.221167768 122.081347509 624.243865283 c 0
 155.428940684 657.591458458 196.779710645 675.498529329 243 675.498529329 c 0
EndSplineSet
EndChar

StartChar: Odieresis
Encoding: 214 214 147
Width: 486
GlyphClass: 2
Flags: HW
LayerCount: 2
Fore
SplineSet
365.518060579 766 m 0
 365.518060579 731.209275387 343.893177275 707.501470671 316.709960938 707.501470671 c 0
 289.717492349 707.501470671 268.711431609 730.929272666 268.711431609 766 c 0
 268.711431609 801.044752226 289.750179711 823.498529329 316.709960938 823.498529329 c 0
 343.876930043 823.498529329 365.518060579 800.756392343 365.518060579 766 c 0
217.288568391 766 m 0
 217.288568391 730.932550238 196.285268162 707.501470671 169.290039062 707.501470671 c 0
 142.1076445 707.501470671 120.481939421 731.208316258 120.481939421 766 c 0
 120.481939421 800.759411177 142.125720515 823.498529329 169.290039062 823.498529329 c 0
 196.251842571 823.498529329 217.288568391 801.042410146 217.288568391 766 c 0
243 587.501470671 m 0
 163.686162422 587.501470671 116.038568391 484.460202748 116.038568391 331 c 0
 116.038568391 217.035543604 141.196867265 135.109601272 180.483933358 95.8225351793 c 0
 198.588548454 77.7179200831 219.480978706 68.4985293291 243 68.4985293291 c 0
 322.08170244 68.4985293291 369.961431609 174.397342018 369.961431609 331 c 0
 369.961431609 441.834861182 345.299117749 521.216479923 306.688034129 559.827563543 c 0
 288.355875781 578.159721891 267.062504589 587.501470671 243 587.501470671 c 0
243 675.498529329 m 0
 364.67884249 675.498529329 454.618646517 551.82518932 454.618646517 331 c 0
 454.618646517 192.989732396 420.381436726 89.2770674567 362.499209013 31.3948397438 c 0
 329.427725927 -1.67664334282 288.590993738 -19.4985293291 243 -19.4985293291 c 0
 121.246412437 -19.4985293291 31.3813534834 107.1270696 31.3813534834 331 c 0
 31.3813534834 465.963744649 65.0586499932 567.221167768 122.081347509 624.243865283 c 0
 155.428940684 657.591458458 196.779710645 675.498529329 243 675.498529329 c 0
EndSplineSet
EndChar

StartChar: multiply
Encoding: 215 215 148
Width: 486
GlyphClass: 2
Flags: HMW
HStem: 557.74 20G
LayerCount: 2
Fore
SplineSet
243 261.03315083 m 1
 93.3746856114 69.1124042421 l 1
 37.8086163046 139.269996805 l 1
 187.506820708 330.080151567 l 1
 37.7951438927 519.710514605 l 1
 93.3512281619 589.856429923 l 1
 243.000976562 399.104016563 l 1
 392.650724964 589.856429923 l 1
 448.206809232 519.710514605 l 1
 298.495108602 330.080121403 l 1
 448.191359805 139.269966642 l 1
 392.625314389 69.1124042421 l 1
 243 261.03315083 l 1
EndSplineSet
EndChar

StartChar: Oslash
Encoding: 216 216 149
Width: 486
GlyphClass: 2
Flags: HMW
HStem: -12 73<225.585 283.5 225.585 302.94> 595 73<202.5 260.01>
VStem: 38.8799 69.6602<301.5 413.5 301.5 437> 377.46 69.6602<247 360.5>
LayerCount: 2
Fore
SplineSet
166.296146756 113.356925431 m 1
 190.756234945 77.7060622449 217.818306328 68.4985293291 243 68.4985293291 c 0
 322.08170244 68.4985293291 369.961431609 174.397342018 369.961431609 331 c 0
 369.961431609 381.262346692 366.654797667 423.14507472 357.7921655 458.522588846 c 1
 166.296146756 113.356925431 l 1
315.982208212 546.45479789 m 1
 292.976759537 577.253157793 269.853957801 587.501470671 243 587.501470671 c 0
 163.686162422 587.501470671 116.038568391 484.460202748 116.038568391 331 c 0
 116.038568391 280.812845572 117.892098438 239.003994867 125.749958143 203.133901938 c 1
 315.982208212 546.45479789 l 1
243 -19.4985293291 m 0
 191.142759753 -19.4985293291 152.15941987 1.57782971028 121.809511192 33.1960143672 c 1
 78.8699921271 -45.3377402201 l 1
 15.4908083976 4.02359544997 l 1
 70.9752463489 104.217475773 l 1
 43.0859119392 162.363391723 31.3813534834 238.296879395 31.3813534834 331 c 0
 31.3813534834 465.963744649 65.0586499932 567.221167768 122.081347509 624.243865283 c 0
 155.428940684 657.591458458 196.779710645 675.498529329 243 675.498529329 c 0
 289.489819249 675.498529329 327.117281434 658.834953422 360.448326221 625.575100254 c 1
 401.890041939 701.336667632 l 1
 465.259995386 651.983459159 l 1
 412.254377426 555.867776879 l 1
 440.956659771 498.765808626 454.618646517 423.76059804 454.618646517 331 c 0
 454.618646517 192.989732396 420.381436726 89.2770674567 362.499209013 31.3948397438 c 0
 329.427725927 -1.67664334282 288.590993738 -19.4985293291 243 -19.4985293291 c 0
EndSplineSet
EndChar

StartChar: Ugrave
Encoding: 217 217 150
Width: 486
GlyphClass: 2
Flags: HW
LayerCount: 2
Fore
SplineSet
267.706186789 685.600385072 m 1
 133.515192129 810.942101297 l 1
 180.693215773 879.101716814 l 1
 305.184809383 739.579843245 l 1
 267.706186789 685.600385072 l 1
243.810546875 68.4985293291 m 0
 294.426117566 68.4985293291 348.901861296 101.959511842 348.901861296 246 c 2
 348.901861296 663.498529329 l 1
 429.509271517 663.498529329 l 1
 429.509271517 248 l 2
 429.509271517 139.960383091 405.229037483 68.2832117892 363.199787455 26.2539617607 c 0
 331.375226238 -5.57059945581 289.967329968 -19.4985293291 243.810546875 -19.4985293291 c 0
 162.699234433 -19.4985293291 56.4907284834 23.3868874233 56.4907284834 248 c 2
 56.4907284834 663.498529329 l 1
 139.528802767 663.498529329 l 1
 139.528802767 246 l 2
 139.528802767 156.77850526 160.563250078 68.4985293291 243.810546875 68.4985293291 c 0
EndSplineSet
EndChar

StartChar: Uacute
Encoding: 218 218 151
Width: 486
GlyphClass: 2
Flags: HW
LayerCount: 2
Fore
SplineSet
218.293813211 685.600385072 m 1
 180.815190617 739.579843245 l 1
 305.306784227 879.101716814 l 1
 352.484807871 810.942101297 l 1
 218.293813211 685.600385072 l 1
243.810546875 68.4985293291 m 0
 294.426117566 68.4985293291 348.901861296 101.959511842 348.901861296 246 c 2
 348.901861296 663.498529329 l 1
 429.509271517 663.498529329 l 1
 429.509271517 248 l 2
 429.509271517 139.960383091 405.229037483 68.2832117892 363.199787455 26.2539617607 c 0
 331.375226238 -5.57059945581 289.967329968 -19.4985293291 243.810546875 -19.4985293291 c 0
 162.699234433 -19.4985293291 56.4907284834 23.3868874233 56.4907284834 248 c 2
 56.4907284834 663.498529329 l 1
 139.528802767 663.498529329 l 1
 139.528802767 246 l 2
 139.528802767 156.77850526 160.563250078 68.4985293291 243.810546875 68.4985293291 c 0
EndSplineSet
EndChar

StartChar: Ucircumflex
Encoding: 219 219 152
Width: 486
GlyphClass: 2
Flags: HMW
HStem: -12 73<211.815 275.805 211.815 295.65> 636 20G<63.9893 132.03 132.03 132.03 356.4 422.011 422.011 422.011>
VStem: 63.9893 68.041 356.4 65.6104
LayerCount: 2
Fore
SplineSet
243.810546875 68.4985293291 m 0
 294.426117566 68.4985293291 348.901861296 101.959511842 348.901861296 246 c 2
 348.901861296 663.498529329 l 1
 429.509271517 663.498529329 l 1
 429.509271517 248 l 2
 429.509271517 139.960383091 405.229037483 68.2832117892 363.199787455 26.2539617607 c 0
 331.375226238 -5.57059945581 289.967329968 -19.4985293291 243.810546875 -19.4985293291 c 0
 162.699234433 -19.4985293291 56.4907284834 23.3868874233 56.4907284834 248 c 2
 56.4907284834 663.498529329 l 1
 139.528802767 663.498529329 l 1
 139.528802767 246 l 2
 139.528802767 156.77850526 160.563250078 68.4985293291 243.810546875 68.4985293291 c 0
242.751953125 850.386657939 m 1
 372.328741314 728.006333121 l 1
 328.846450821 683.477915258 l 1
 242.751899644 752.392507669 l 1
 156.65529333 683.477844906 l 1
 113.175326954 728.006486141 l 1
 242.751953125 850.386657939 l 1
EndSplineSet
EndChar

StartChar: Udieresis
Encoding: 220 220 153
Width: 486
GlyphClass: 2
Flags: HW
LayerCount: 2
Fore
SplineSet
365.518060579 766 m 0
 365.518060579 731.209275387 343.893177275 707.501470671 316.709960938 707.501470671 c 0
 289.717492349 707.501470671 268.711431609 730.929272666 268.711431609 766 c 0
 268.711431609 801.044752226 289.750179711 823.498529329 316.709960938 823.498529329 c 0
 343.876930043 823.498529329 365.518060579 800.756392343 365.518060579 766 c 0
217.288568391 766 m 0
 217.288568391 730.932550238 196.285268162 707.501470671 169.290039062 707.501470671 c 0
 142.1076445 707.501470671 120.481939421 731.208316258 120.481939421 766 c 0
 120.481939421 800.759411177 142.125720515 823.498529329 169.290039062 823.498529329 c 0
 196.251842571 823.498529329 217.288568391 801.042410146 217.288568391 766 c 0
243.810546875 68.4985293291 m 0
 294.426117566 68.4985293291 348.901861296 101.959511842 348.901861296 246 c 2
 348.901861296 663.498529329 l 1
 429.509271517 663.498529329 l 1
 429.509271517 248 l 2
 429.509271517 139.960383091 405.229037483 68.2832117892 363.199787455 26.2539617607 c 0
 331.375226238 -5.57059945581 289.967329968 -19.4985293291 243.810546875 -19.4985293291 c 0
 162.699234433 -19.4985293291 56.4907284834 23.3868874233 56.4907284834 248 c 2
 56.4907284834 663.498529329 l 1
 139.528802767 663.498529329 l 1
 139.528802767 246 l 2
 139.528802767 156.77850526 160.563250078 68.4985293291 243.810546875 68.4985293291 c 0
EndSplineSet
EndChar

StartChar: Yacute
Encoding: 221 221 154
Width: 486
GlyphClass: 2
Flags: HW
LayerCount: 2
Fore
SplineSet
218.293813211 685.600385072 m 1
 180.815190617 739.579843245 l 1
 305.306784227 879.101716814 l 1
 352.484807871 810.942101297 l 1
 218.293813211 685.600385072 l 1
284.518060579 -7.49852932905 m 1
 201.481939421 -7.49852932905 l 1
 201.481939421 232.474802099 l 1
 19.4712465851 663.498529329 l 1
 107.087591291 663.49853029 l 1
 195.495767401 448.512414799 195.495767401 448.512414799 215.394954209 397.588883532 c 0
 224.832434203 373.437655033 234.374179083 349.020352445 244.550434 324.003378305 c 1
 245.115610553 325.413368375 294.808606191 447.566359107 301.640151447 464.771732341 c 2
 380.465233108 663.498529329 l 1
 466.528753414 663.498529329 l 1
 284.518060579 232.474802099 l 1
 284.518060579 -7.49852932905 l 1
EndSplineSet
EndChar

StartChar: Thorn
Encoding: 222 222 155
Width: 486
GlyphClass: 2
Flags: HW
LayerCount: 2
Fore
SplineSet
245.4296875 553.498529329 m 2
 348.132423519 553.498529329 448.948724641 516.019054204 448.948724641 353 c 0
 448.948724641 283.351948331 429.148579405 231.009225885 394.033796702 195.894443182 c 0
 357.640937531 159.501584011 305.758757305 142.501470671 245.4296875 142.501470671 c 2
 157.348138704 142.501470671 l 1
 157.348138704 -7.49852932905 l 1
 74.3120175459 -7.49852932905 l 1
 74.3120175459 663.498529329 l 1
 157.348138704 663.498529329 l 1
 157.348138704 553.498529329 l 1
 245.4296875 553.498529329 l 2
366.721197233 353 m 0
 366.721197233 439.338284 327.651127945 470.501470671 236.51953125 470.501470671 c 2
 157.348138704 470.501470671 l 1
 157.348138704 225.498529329 l 1
 236.51953125 225.498529329 l 2
 326.757414522 225.498529329 366.721197233 264.485669595 366.721197233 353 c 0
EndSplineSet
EndChar

StartChar: germandbls
Encoding: 223 223 156
Width: 486
GlyphClass: 2
Flags: HW
LayerCount: 2
Fore
SplineSet
464.338373079 137 m 0
 464.338373079 48.0850546533 408.528317556 -19.4985293291 324.810546875 -19.4985293291 c 0
 260.34981553 -19.4985293291 219.168515673 14.2332828352 198.935904774 30.885866935 c 1
 232.268975816 103.21224993 l 1
 255.941048851 82.6757295982 282.656985565 59.4985293291 323.189453125 59.4985293291 c 0
 365.353211973 59.4985293291 386.161626921 94.4513454811 386.161626921 130 c 0
 386.161626921 240.093787217 222.541509733 220.709900704 222.541509733 364 c 0
 222.541509733 457.462941673 295.440923796 488.90190494 295.440923796 571 c 0
 295.440923796 597.736262587 287.508134012 619.866911395 273.864851008 633.510194398 c 0
 263.788570885 643.586474521 250.399309794 649.501470671 233.280273438 649.501470671 c 0
 170.115900879 649.501470671 145.198724641 587.115577975 145.198724641 507 c 2
 145.198724641 -7.49852932905 l 1
 63.7817441084 -7.49852932905 l 1
 63.7817441084 519 l 2
 63.7817441084 590.399174828 84.0821385778 649.23087029 121.817782227 686.96651394 c 0
 150.384440567 715.533172279 188.680391877 731.498529329 234.08984375 731.498529329 c 0
 323.12534897 731.498529329 374.428216829 660.403351723 374.428216829 576 c 0
 374.428216829 474.147131443 301.528802767 439.345662332 301.528802767 374 c 0
 301.528802767 283.883412382 464.338373079 298.240927207 464.338373079 137 c 0
EndSplineSet
EndChar

StartChar: agrave
Encoding: 224 224 157
Width: 486
GlyphClass: 2
Flags: HMW
HStem: -12 67.3604 227.6 60.6289 416.488 75.2031 433.933 64.0674
VStem: 68.5117 71.0156 348.244 68.1543
LayerCount: 2
Fore
SplineSet
341.835429705 311.175555139 m 1
 341.792934898 406.765535963 288.727998543 426.434087859 238.76953125 426.434087859 c 0
 195.460408347 426.434087859 156.292051937 419.714890968 126.598783164 409.405148808 c 2
 117.903170476 406.385962021 l 1
 107.724872515 483.311844442 l 1
 128.66972204 492.7618019 145.0172981 495.843768669 164.218292242 499.084695503 c 0
 189.566167528 503.364051891 216.646573867 505.498529329 245.455078125 505.498529329 c 0
 272.157716373 505.498529329 388.529105362 505.465334941 416.338280184 392.149769186 c 0
 422.108943299 368.630950267 424.986763394 342.987489231 424.986763388 315.278962604 c 2
 423.875028153 0.70072337231 l 1
 330.470606953 -16.9215027061 300.542213169 -19.4985293291 254.8671875 -19.4985293291 c 0
 162.133116043 -19.4985293291 106.387260029 6.30848671713 77.478149695 61.1078407194 c 0
 66.4439005965 82.0314334423 61.0131894209 108.52036249 61.0131894209 140.545898438 c 0
 61.0131894209 167.419992489 65.0357651658 207.71909548 101.976987147 244.660317461 c 0
 123.244102827 265.927433141 150.666892021 280.096797005 182.968380183 287.681053863 c 0
 205.807247068 293.042543906 228.832350959 295.727044954 252.001953125 295.727044954 c 0
 282.350585749 295.727044954 312.502866385 291.537427516 341.031778641 284.749405389 c 1
 341.835429705 311.175555139 l 1
272.907020637 556.341442244 m 1
 136.028238988 721.022313976 l 1
 193.386541274 789.392532781 l 1
 317.2255134 608.510667839 l 1
 272.907020637 556.341442244 l 1
261.548828125 220.101080046 m 0
 217.157701346 220.101080046 185.248482163 210.379301701 165.80756861 190.938388148 c 0
 154.744457878 179.875277416 147.025873079 164.971563547 147.025873079 143.559570312 c 0
 147.025873079 117.311841393 154.10915354 93.5960756043 174.931026965 80.583126159 c 0
 193.698286311 68.8526902523 219.276181972 62.8588808916 252.001953125 62.8588808916 c 0
 284.427440549 62.8588808916 315.438530479 65.0869648061 340.745611296 69.6815928765 c 1
 340.745611296 209.371374535 l 1
 319.040724473 215.972707504 290.248726997 220.101080046 261.548828125 220.101080046 c 0
EndSplineSet
EndChar

StartChar: aacute
Encoding: 225 225 158
Width: 486
GlyphClass: 2
Flags: HMW
HStem: -12 67.3604 227.6 60.6289 416.488 75.2031 433.933 64.0674
VStem: 68.5117 71.0156 348.244 68.1543
LayerCount: 2
Fore
SplineSet
341.835429705 311.175555139 m 1
 341.792934898 406.765535963 288.727998543 426.434087859 238.76953125 426.434087859 c 0
 195.460408347 426.434087859 156.292051937 419.714890968 126.598783164 409.405148808 c 2
 117.903170476 406.385962021 l 1
 107.724872515 483.311844442 l 1
 128.66972204 492.7618019 145.0172981 495.843768669 164.218292242 499.084695503 c 0
 189.566167528 503.364051891 216.646573867 505.498529329 245.455078125 505.498529329 c 0
 272.157716373 505.498529329 388.529105362 505.465334941 416.338280184 392.149769186 c 0
 422.108943299 368.630950267 424.986763394 342.987489231 424.986763388 315.278962604 c 2
 423.875028153 0.70072337231 l 1
 330.470606953 -16.9215027061 300.542213169 -19.4985293291 254.8671875 -19.4985293291 c 0
 162.133116043 -19.4985293291 106.387260029 6.30848671713 77.478149695 61.1078407194 c 0
 66.4439005965 82.0314334423 61.0131894209 108.52036249 61.0131894209 140.545898438 c 0
 61.0131894209 167.419992489 65.0357651658 207.71909548 101.976987147 244.660317461 c 0
 123.244102827 265.927433141 150.666892021 280.096797005 182.968380183 287.681053863 c 0
 205.807247068 293.042543906 228.832350959 295.727044954 252.001953125 295.727044954 c 0
 282.350585749 295.727044954 312.502866385 291.537427516 341.031778641 284.749405389 c 1
 341.835429705 311.175555139 l 1
239.012901237 556.341442244 m 1
 194.694408476 608.51066784 l 1
 318.533380602 789.392532781 l 1
 375.891682888 721.022313976 l 1
 239.012901237 556.341442244 l 1
261.548828125 220.101080046 m 0
 217.157701346 220.101080046 185.248482163 210.379301701 165.80756861 190.938388148 c 0
 154.744457878 179.875277416 147.025873079 164.971563547 147.025873079 143.559570312 c 0
 147.025873079 117.311841393 154.10915354 93.5960756043 174.931026965 80.583126159 c 0
 193.698286311 68.8526902523 219.276181972 62.8588808916 252.001953125 62.8588808916 c 0
 284.427440549 62.8588808916 315.438530479 65.0869648061 340.745611296 69.6815928765 c 1
 340.745611296 209.371374535 l 1
 319.040724473 215.972707504 290.248726997 220.101080046 261.548828125 220.101080046 c 0
EndSplineSet
EndChar

StartChar: acircumflex
Encoding: 226 226 159
Width: 486
GlyphClass: 2
Flags: HMW
HStem: -12 67.3604 227.6 60.6289 416.488 75.2031 433.933 64.0674
VStem: 68.5117 71.0156 348.244 68.1543
LayerCount: 2
Fore
SplineSet
258 717.486267314 m 1
 387.57670718 595.106019006 l 1
 344.095578744 550.577489458 l 1
 258 619.492117044 l 1
 171.904421256 550.577489458 l 1
 128.42329282 595.106019006 l 1
 258 717.486267314 l 1
341.835429705 311.175555139 m 1
 341.792934898 406.765535963 288.727998543 426.434087859 238.76953125 426.434087859 c 0
 195.460408347 426.434087859 156.292051937 419.714890968 126.598783164 409.405148808 c 2
 117.903170476 406.385962021 l 1
 107.724872515 483.311844442 l 1
 128.66972204 492.7618019 145.0172981 495.843768669 164.218292242 499.084695503 c 0
 189.566167528 503.364051891 216.646573867 505.498529329 245.455078125 505.498529329 c 0
 272.157716373 505.498529329 388.529105362 505.465334941 416.338280184 392.149769186 c 0
 422.108943299 368.630950267 424.986763394 342.987489231 424.986763388 315.278962604 c 2
 423.875028153 0.70072337231 l 1
 330.470606953 -16.9215027061 300.542213169 -19.4985293291 254.8671875 -19.4985293291 c 0
 162.133116043 -19.4985293291 106.387260029 6.30848671713 77.478149695 61.1078407194 c 0
 66.4439005965 82.0314334423 61.0131894209 108.52036249 61.0131894209 140.545898438 c 0
 61.0131894209 167.419992489 65.0357651658 207.71909548 101.976987147 244.660317461 c 0
 123.244102827 265.927433141 150.666892021 280.096797005 182.968380183 287.681053863 c 0
 205.807247068 293.042543906 228.832350959 295.727044954 252.001953125 295.727044954 c 0
 282.350585749 295.727044954 312.502866385 291.537427516 341.031778641 284.749405389 c 1
 341.835429705 311.175555139 l 1
261.548828125 220.101080046 m 0
 217.157701346 220.101080046 185.248482163 210.379301701 165.80756861 190.938388148 c 0
 154.744457878 179.875277416 147.025873079 164.971563547 147.025873079 143.559570312 c 0
 147.025873079 117.311841393 154.10915354 93.5960756043 174.931026965 80.583126159 c 0
 193.698286311 68.8526902523 219.276181972 62.8588808916 252.001953125 62.8588808916 c 0
 284.427440549 62.8588808916 315.438530479 65.0869648061 340.745611296 69.6815928765 c 1
 340.745611296 209.371374535 l 1
 319.040724473 215.972707504 290.248726997 220.101080046 261.548828125 220.101080046 c 0
EndSplineSet
EndChar

StartChar: atilde
Encoding: 227 227 160
Width: 486
GlyphClass: 2
Flags: HMW
HStem: -12 67.3604 227.6 60.6289 416.488 75.2031 433.933 64.0674 577 60<282.285 313.065 282.285 329.265> 661 60<173.339 204.12>
VStem: 68.5117 71.0156 102.87 44.5498 338.58 44.5498 348.244 68.1543
LayerCount: 2
Fore
SplineSet
341.835429705 311.175555139 m 1
 341.792934898 406.765535963 288.727998543 426.434087859 238.76953125 426.434087859 c 0
 195.460408347 426.434087859 156.292051937 419.714890968 126.598783164 409.405148808 c 2
 117.903170476 406.385962021 l 1
 107.724872515 483.311844442 l 1
 128.66972204 492.7618019 145.0172981 495.843768669 164.218292242 499.084695503 c 0
 189.566167528 503.364051891 216.646573867 505.498529329 245.455078125 505.498529329 c 0
 272.157716373 505.498529329 388.529105362 505.465334941 416.338280184 392.149769186 c 0
 422.108943299 368.630950267 424.986763394 342.987489231 424.986763388 315.278962604 c 2
 423.875028153 0.70072337231 l 1
 330.470606953 -16.9215027061 300.542213169 -19.4985293291 254.8671875 -19.4985293291 c 0
 162.133116043 -19.4985293291 106.387260029 6.30848671713 77.478149695 61.1078407194 c 0
 66.4439005965 82.0314334423 61.0131894209 108.52036249 61.0131894209 140.545898438 c 0
 61.0131894209 167.419992489 65.0357651658 207.71909548 101.976987147 244.660317461 c 0
 123.244102827 265.927433141 150.666892021 280.096797005 182.968380183 287.681053863 c 0
 205.807247068 293.042543906 228.832350959 295.727044954 252.001953125 295.727044954 c 0
 282.350585749 295.727044954 312.502866385 291.537427516 341.031778641 284.749405389 c 1
 341.835429705 311.175555139 l 1
184.6796875 728.498529329 m 0
 245.738702764 728.498529329 269.317411492 644.498529329 301.3203125 644.498529329 c 0
 305.791962836 644.498529329 309.404452372 646.068131693 312.980608322 649.644287644 c 0
 328.379514086 665.043193407 330.631933468 707.687069035 331.502255375 724.164417549 c 1
 390.847876784 718.835943332 l 1
 389.965932122 690.885954316 387.897498459 625.334564674 353.011232776 590.448298991 c 0
 339.697301424 577.134367639 322.294335399 569.501470671 301.3203125 569.501470671 c 0
 240.291913081 569.501470671 216.603476848 653.501470671 185.489257812 653.501470671 c 0
 158.624843059 653.501470671 155.59399016 594.872496248 154.515315244 574.006553193 c 1
 95.1500060054 578.004234641 l 1
 96.0394139175 606.556802467 98.0972872474 672.620491616 133.072290372 707.595494741 c 0
 146.376538645 720.899743014 163.754679142 728.498529329 184.6796875 728.498529329 c 0
261.548828125 220.101080046 m 0
 217.157701346 220.101080046 185.248482163 210.379301701 165.80756861 190.938388148 c 0
 154.744457878 179.875277416 147.025873079 164.971563547 147.025873079 143.559570312 c 0
 147.025873079 117.311841393 154.10915354 93.5960756043 174.931026965 80.583126159 c 0
 193.698286311 68.8526902523 219.276181972 62.8588808916 252.001953125 62.8588808916 c 0
 284.427440549 62.8588808916 315.438530479 65.0869648061 340.745611296 69.6815928765 c 1
 340.745611296 209.371374535 l 1
 319.040724473 215.972707504 290.248726997 220.101080046 261.548828125 220.101080046 c 0
EndSplineSet
EndChar

StartChar: adieresis
Encoding: 228 228 161
Width: 486
GlyphClass: 2
Flags: HMW
HStem: -12 67.3604 227.6 60.6289 416.488 75.2031 433.933 64.0674 588 112<164.43 190.35 321.57 347.49>
VStem: 68.5117 71.0156 132.84 89.0996 289.98 89.0996 348.244 68.1543
LayerCount: 2
Fore
SplineSet
341.835429705 311.175555139 m 1
 341.792934898 406.765535963 288.727998543 426.434087859 238.76953125 426.434087859 c 0
 195.460408347 426.434087859 156.292051937 419.714890968 126.598783164 409.405148808 c 2
 117.903170476 406.385962021 l 1
 107.724872515 483.311844442 l 1
 128.66972204 492.7618019 145.0172981 495.843768669 164.218292242 499.084695503 c 0
 189.566167528 503.364051891 216.646573867 505.498529329 245.455078125 505.498529329 c 0
 272.157716373 505.498529329 388.529105362 505.465334941 416.338280184 392.149769186 c 0
 422.108943299 368.630950267 424.986763394 342.987489231 424.986763388 315.278962604 c 2
 423.875028153 0.70072337231 l 1
 330.470606953 -16.9215027061 300.542213169 -19.4985293291 254.8671875 -19.4985293291 c 0
 162.133116043 -19.4985293291 106.387260029 6.30848671713 77.478149695 61.1078407194 c 0
 66.4439005965 82.0314334423 61.0131894209 108.52036249 61.0131894209 140.545898438 c 0
 61.0131894209 167.419992489 65.0357651658 207.71909548 101.976987147 244.660317461 c 0
 123.244102827 265.927433141 150.666892021 280.096797005 182.968380183 287.681053863 c 0
 205.807247068 293.042543906 228.832350959 295.727044954 252.001953125 295.727044954 c 0
 282.350585749 295.727044954 312.502866385 291.537427516 341.031778641 284.749405389 c 1
 341.835429705 311.175555139 l 1
386.578607454 644 m 0
 386.578607454 607.01127983 364.050063091 580.501470671 334.530273438 580.501470671 c 0
 305.011830374 580.501470671 282.481939421 607.009654631 282.481939421 644 c 0
 282.481939421 679.885546862 304.895662557 707.498529329 334.530273438 707.498529329 c 0
 364.162239457 707.498529329 386.578607454 679.888782988 386.578607454 644 c 0
229.437982454 644 m 0
 229.437982454 607.012319311 206.91129952 580.501470671 177.389648438 580.501470671 c 0
 147.871205374 580.501470671 125.341314421 607.009654631 125.341314421 644 c 0
 125.341314421 679.885546862 147.755037557 707.498529329 177.389648438 707.498529329 c 0
 207.022628951 707.498529329 229.437982454 679.888761835 229.437982454 644 c 0
261.548828125 220.101080046 m 0
 217.157701346 220.101080046 185.248482163 210.379301701 165.80756861 190.938388148 c 0
 154.744457878 179.875277416 147.025873079 164.971563547 147.025873079 143.559570312 c 0
 147.025873079 117.311841393 154.10915354 93.5960756043 174.931026965 80.583126159 c 0
 193.698286311 68.8526902523 219.276181972 62.8588808916 252.001953125 62.8588808916 c 0
 284.427440549 62.8588808916 315.438530479 65.0869648061 340.745611296 69.6815928765 c 1
 340.745611296 209.371374535 l 1
 319.040724473 215.972707504 290.248726997 220.101080046 261.548828125 220.101080046 c 0
EndSplineSet
EndChar

StartChar: aring
Encoding: 229 229 162
Width: 486
GlyphClass: 2
Flags: HMW
HStem: -12 67.3604 227.6 60.6289 416.488 75.2031 433.933 64.0674 555.64 38.6396 685.359 38.6406
VStem: 68.5117 71.0156 176.74 40.7246 302.535 40.7246 348.244 68.1543
LayerCount: 2
Fore
SplineSet
341.835429705 311.175555139 m 1
 341.792934898 406.765535963 288.727998543 426.434087859 238.76953125 426.434087859 c 0
 195.460408347 426.434087859 156.292051937 419.714890968 126.598783164 409.405148808 c 2
 117.903170476 406.385962021 l 1
 107.724872515 483.311844442 l 1
 128.66972204 492.7618019 145.0172981 495.843768669 164.218292242 499.084695503 c 0
 189.566167528 503.364051891 216.646573867 505.498529329 245.455078125 505.498529329 c 0
 272.157716373 505.498529329 388.529105362 505.465334941 416.338280184 392.149769186 c 0
 422.108943299 368.630950267 424.986763394 342.987489231 424.986763388 315.278962604 c 2
 423.875028153 0.70072337231 l 1
 330.470606953 -16.9215027061 300.542213169 -19.4985293291 254.8671875 -19.4985293291 c 0
 162.133116043 -19.4985293291 106.387260029 6.30848671713 77.478149695 61.1078407194 c 0
 66.4439005965 82.0314334423 61.0131894209 108.52036249 61.0131894209 140.545898438 c 0
 61.0131894209 167.419992489 65.0357651658 207.71909548 101.976987147 244.660317461 c 0
 123.244102827 265.927433141 150.666892021 280.096797005 182.968380183 287.681053863 c 0
 205.807247068 293.042543906 228.832350959 295.727044954 252.001953125 295.727044954 c 0
 282.350585749 295.727044954 312.502866385 291.537427516 341.031778641 284.749405389 c 1
 341.835429705 311.175555139 l 1
260 601.777826204 m 0
 272.548968966 601.777826204 295.036626921 607.952596363 295.036626921 640.279296875 c 0
 295.036626921 668.899819201 275.553778478 677.860845671 260 677.860845671 c 0
 244.462058591 677.860845671 224.963373079 668.914096534 224.963373079 640.279296875 c 0
 224.963373079 627.116274985 228.45663752 617.934675407 234.928019094 611.599843785 c 0
 241.667400915 605.001875852 249.669742926 601.777826204 260 601.777826204 c 0
350.758294954 640.279296875 m 0
 350.758294954 616.459064561 344.244117534 591.491900085 323.402898962 572.617042511 c 0
 305.520454758 556.420846797 284.097638649 548.141119109 260 548.141119109 c 0
 220.608490155 548.141119109 169.241705046 574.340612488 169.241705046 640.279296875 c 0
 169.241705046 663.433525495 175.683002846 688.08151448 196.596288878 707.022754823 c 0
 214.47950927 723.218700213 235.901393544 731.498529329 260 731.498529329 c 0
 300.803371795 731.498529329 350.758294954 703.781108866 350.758294954 640.279296875 c 0
261.548828125 220.101080046 m 0
 217.157701346 220.101080046 185.248482163 210.379301701 165.80756861 190.938388148 c 0
 154.744457878 179.875277416 147.025873079 164.971563547 147.025873079 143.559570312 c 0
 147.025873079 117.311841393 154.10915354 93.5960756043 174.931026965 80.583126159 c 0
 193.698286311 68.8526902523 219.276181972 62.8588808916 252.001953125 62.8588808916 c 0
 284.427440549 62.8588808916 315.438530479 65.0869648061 340.745611296 69.6815928765 c 1
 340.745611296 209.371374535 l 1
 319.040724473 215.972707504 290.248726997 220.101080046 261.548828125 220.101080046 c 0
EndSplineSet
EndChar

StartChar: ae
Encoding: 230 230 163
Width: 486
GlyphClass: 2
Flags: HMW
HStem: -11.6396 71.2949<129.902 148.748> 218.559 69.0508<135.576 152.021> 415.645 82.3555<324.978 366.622> 424.889 73.1113<126.258 148.356 126.258 161.015>
VStem: 9.16699 56.7109<128.624 153.475> 198.851 62.3252<282.755 346.979>
LayerCount: 2
Fore
SplineSet
415.21137911 290.253412141 m 1
 411.705357288 339.421204288 397.449179067 408.146001921 345.141601562 408.146001921 c 0
 308.038615674 408.146001921 278.890431325 363.951500676 269.583331015 290.253412141 c 1
 415.21137911 290.253412141 l 1
141.040039062 67.1538027666 m 0
 186.960458854 67.1538027666 190.188057935 101.737328606 190.278747664 206.78396868 c 1
 161.814147182 210.636973787 157.92832962 211.060064421 144.793945312 211.060064421 c 0
 134.190145881 211.060064421 104.596818449 209.640909659 89.510657184 194.554748394 c 0
 80.4752775614 185.519368772 73.3764590166 169.162318829 73.3764590166 144.102539062 c 0
 73.3764590166 133.162536405 74.1360007244 100.186788939 91.6140549486 85.0500043668 c 0
 104.008301076 74.3165872203 120.599593338 67.1538027666 141.040039062 67.1538027666 c 0
351.51171875 -19.1381777666 m 0
 330.92015929 -19.1381777666 280.055669669 -14.6830460592 240.845541458 45.976229735 c 1
 234.041478578 33.8487563494 226.308533935 23.8454884606 218.110044206 15.646998731 c 0
 189.273860412 -13.1891850621 155.477807774 -19.1381777666 137.16015625 -19.1381777666 c 0
 122.415613822 -19.1381777666 71.948789086 -16.8625381417 42.1822314274 12.9040195169 c 0
 30.0318968763 25.054354068 20.8954155735 40.9729988347 13.2839666687 61.2462637658 c 0
 5.43557391078 82.1497777928 1.66846285845 108.223237917 1.66846285845 139.76953125 c 0
 1.66846285845 167.86764613 5.56457009036 191.758098793 13.6683711749 211.637833106 c 0
 28.2512344948 247.413398999 49.1908378759 276.934303837 91.191874373 287.888698272 c 0
 102.858038685 290.93143704 121.157775861 295.107904329 148.731445312 295.107904329 c 0
 160.741811408 295.107904329 174.61380806 294.322162307 190.699503613 292.350201903 c 1
 191.29327235 309.676587785 191.347613333 320.736057841 191.352056609 320.930664062 c 0
 191.352056609 389.308014954 173.851617295 417.390142546 131.765625 417.390142546 c 0
 131.64284564 417.390142546 131.518685064 417.390150043 131.393149225 417.390150043 c 0
 118.046638248 417.390150043 89.1553206565 417.305415086 51.8762076717 399.118524204 c 2
 41.0864316084 393.85465218 l 1
 41.0864316084 405.859375 l 1
 39.1123671268 430.50133822 34.8561294337 472.347331955 34.8561294337 473.021840175 c 0
 34.8561294337 473.438698216 34.909204826 473.613206648 34.9980801998 473.613206648 c 0
 35.455309962 473.613206648 36.8600608565 468.994477215 36.8600608565 468.994477215 c 1
 47.4630293866 468.994477215 l 1
 49.6498965166 474.188476562 l 1
 38.1379394556 480.525822483 l 1
 52.4011299871 489.570636232 64.2768884473 492.444732815 85.6913632763 497.627329711 c 0
 100.968195119 501.324532744 117.958712275 505.498529329 136.346679688 505.498529329 c 0
 145.504964823 505.498529329 209.492120666 505.282691266 241.852765336 437.920290097 c 1
 256.133305121 460.021567727 291.842631739 505.498529329 343.908203125 505.498529329 c 0
 429.292122362 505.498529329 482.331537141 409.349412467 482.331537141 263.858398438 c 0
 482.331537141 250.348128724 482.331537141 242.250598133 479.010007189 205.016119109 c 1
 264.927332769 205.016119109 l 1
 269.748647299 147.925058365 286.114419863 108.792932902 307.77939047 87.1279622945 c 0
 322.262869793 72.6444829715 339.103160974 65.6606387041 357.515625 65.6606387041 c 0
 395.447112807 65.6606387041 420.540565799 92.8961248356 438.317833999 112.512056781 c 2
 451.377435579 126.922384225 l 1
 451.377435579 107.479492188 l 2
 451.723652825 106.967550025 465.876603432 60.7004981106 470.324464237 48.6532931152 c 0
 470.610875999 47.8775356533 470.72173404 47.4899686823 470.69526197 47.2975763334 c 0
 470.510388493 47.2975763334 469.419733927 49.392737663 469.419733927 49.392737663 c 1
 458.85090137 49.3811342257 l 1
 456.670415983 44.1552734375 l 1
 469.845716568 39.2533724354 l 1
 454.994422089 22.0857047944 416.965570537 -19.1381777666 351.51171875 -19.1381777666 c 0
EndSplineSet
EndChar

StartChar: ccedilla
Encoding: 231 231 164
Width: 486
GlyphClass: 2
Flags: HMW
HStem: -226 40<195.615 202.096> 430 68<233.685 299.7>
VStem: 57.1055 68.8496 283.904 51.8398
LayerCount: 2
Fore
SplineSet
285.858664934 -59.0642450656 m 1
 316.200108897 -69.406340052 343.242669954 -88.5039815212 343.242669954 -135 c 0
 343.242669954 -223.894533743 239.854252604 -231.312469805 195.775263027 -233.879399134 c 1
 186.922827759 -179.23868958 l 1
 251.073053934 -173.581625198 276.405767546 -164.731055373 276.405767546 -136 c 0
 276.405767546 -107.578256411 251.956766375 -100.882289491 211.63624246 -93.8958321131 c 1
 237.432472032 -17.263283348 l 1
 192.738031737 -10.5553637042 152.983968731 9.07853313304 121.721538592 40.3409632714 c 0
 76.5927972695 85.4697045941 49.6069394209 154.269021338 49.6069394209 242 c 0
 49.6069394209 409.379726587 153.610761655 505.498529329 276.615234375 505.498529329 c 0
 303.346204816 505.498529329 368.468004351 500.751172825 425.758504599 431.787059673 c 2
 429.222985069 427.616650581 l 1
 387.929007499 361.71337614 l 1
 365.497294902 385.944872296 331.655921552 422.501470671 279.044921875 422.501470671 c 0
 191.546626908 422.501470671 133.453607454 348.553888424 133.453607454 242 c 0
 133.453607454 136.644505276 189.779041717 63.4985293291 277.42578125 63.4985293291 c 0
 337.581257793 63.4985293291 378.770941499 106.721750377 400.476143715 129.498539826 c 1
 438.08688218 62.983615492 l 1
 421.657022918 44.8122208623 375.00223645 -6.78788859619 297.840685032 -17.8023037736 c 1
 285.858664934 -59.0642450656 l 1
EndSplineSet
EndChar

StartChar: egrave
Encoding: 232 232 165
Width: 486
GlyphClass: 2
Flags: HMW
HStem: -12 66<232.065 296.46 232.065 296.46> 220 64<121.5 372.6 121.5 430.109 119.881 372.6> 433 65<222.75 288.766>
VStem: 52.6504 67.2305
LayerCount: 2
Fore
SplineSet
270.476356575 556.341442244 m 1
 133.597574925 721.022313976 l 1
 190.955877211 789.392532781 l 1
 314.794849337 608.510667839 l 1
 270.476356575 556.341442244 l 1
253.529296875 505.498529329 m 0
 368.918668363 505.498529329 440.848138704 414.139584325 440.848138704 270 c 0
 440.848138704 248.472603478 439.153546306 231.925794272 436.731342491 212.501470671 c 1
 128.062181563 212.501470671 l 1
 133.170328981 162.069146879 150.476739712 124.647267538 175.360948838 99.763058412 c 0
 200.730953935 74.3930533151 234.424632073 61.4985293291 272.970703125 61.4985293291 c 0
 331.700517779 61.4985293291 369.232528695 90.9844405793 395.755634404 111.821531956 c 1
 426.343045484 43.8516925794 l 1
 404.528154626 25.8974467457 349.370824565 -19.4985293291 264.869140625 -19.4985293291 c 0
 142.998399615 -19.4985293291 45.1518612959 77.2015335967 45.1518612959 244 c 0
 45.1518612959 406.458176318 144.273517514 505.498529329 253.529296875 505.498529329 c 0
364.57181612 291.498529329 m 1
 361.871263944 325.171164788 349.515060124 425.501470671 255.150390625 425.501470671 c 0
 195.245601292 425.501470671 143.783403034 377.301423117 130.143252042 291.498529329 c 1
 364.57181612 291.498529329 l 1
EndSplineSet
EndChar

StartChar: eacute
Encoding: 233 233 166
Width: 486
GlyphClass: 2
Flags: HMW
HStem: -12 66<232.065 296.46 232.065 296.46> 220 64<121.5 372.6 121.5 430.109 119.881 372.6> 433 65<222.75 288.766>
VStem: 52.6504 67.2305
LayerCount: 2
Fore
SplineSet
236.582237175 556.341442244 m 1
 192.263744413 608.510667839 l 1
 316.102716539 789.392532781 l 1
 373.461018825 721.022313976 l 1
 236.582237175 556.341442244 l 1
253.529296875 505.498529329 m 0
 368.918668363 505.498529329 440.848138704 414.139584325 440.848138704 270 c 0
 440.848138704 248.472603478 439.153546306 231.925794272 436.731342491 212.501470671 c 1
 128.062181563 212.501470671 l 1
 133.170328981 162.069146879 150.476739712 124.647267538 175.360948838 99.763058412 c 0
 200.730953935 74.3930533151 234.424632073 61.4985293291 272.970703125 61.4985293291 c 0
 331.700517779 61.4985293291 369.232528695 90.9844405793 395.755634404 111.821531956 c 1
 426.343045484 43.8516925794 l 1
 404.528154626 25.8974467457 349.370824565 -19.4985293291 264.869140625 -19.4985293291 c 0
 142.998399615 -19.4985293291 45.1518612959 77.2015335967 45.1518612959 244 c 0
 45.1518612959 406.458176318 144.273517514 505.498529329 253.529296875 505.498529329 c 0
364.57181612 291.498529329 m 1
 361.871263944 325.171164788 349.515060124 425.501470671 255.150390625 425.501470671 c 0
 195.245601292 425.501470671 143.783403034 377.301423117 130.143252042 291.498529329 c 1
 364.57181612 291.498529329 l 1
EndSplineSet
EndChar

StartChar: ecircumflex
Encoding: 234 234 167
Width: 486
GlyphClass: 2
Flags: HMW
HStem: -12 69<232.424 297.512 232.424 297.793> 218.5 67<121.708 372.509 121.708 432.636 119.999 372.509> 430 68<222.998 288.914>
VStem: 49.9502 70.0488
LayerCount: 2
Fore
SplineSet
253.69921875 505.498529329 m 0
 371.147897207 505.498529329 443.548334017 413.621601126 443.548334017 269.724609375 c 0
 443.548334017 247.605135432 441.736105349 230.80827827 439.253500464 211.001470671 c 1
 128.23561944 211.001470671 l 1
 133.467335145 162.905214014 150.235815452 127.072060172 174.344726937 102.963148687 c 0
 199.846382944 77.4614926797 234.049812441 64.4985293291 273.453125 64.4985293291 c 0
 332.623506405 64.4985293291 370.243349141 94.0544843574 397.610045007 115.555074829 c 1
 429.4074547 44.8967340855 l 1
 405.876985379 25.5296937143 350.716138637 -19.4985293291 265.221679688 -19.4985293291 c 0
 140.903143951 -19.4985293291 42.4516659834 77.4311932143 42.4516659834 243.994140625 c 0
 42.4516659834 406.242044117 142.13767408 505.498529329 253.69921875 505.498529329 c 0
255.299804688 717.486267314 m 1
 384.876511868 595.106019006 l 1
 341.395383432 550.577489458 l 1
 255.299804688 619.492117044 l 1
 169.204225943 550.577489458 l 1
 125.723097508 595.106019006 l 1
 255.299804688 717.486267314 l 1
364.435902055 292.998529329 m 1
 360.881395968 334.156895872 345.472246194 422.501470671 255.345703125 422.501470671 c 0
 195.61404602 422.501470671 144.444406064 376.213117061 130.424634101 292.998529329 c 1
 364.435902055 292.998529329 l 1
EndSplineSet
EndChar

StartChar: edieresis
Encoding: 235 235 168
Width: 486
GlyphClass: 2
Flags: HMW
HStem: -12 66<232.065 296.46 232.065 296.46> 220 64<121.5 372.6 121.5 430.109 119.881 372.6> 433 65<222.75 288.766> 588 112<161.999 187.92 319.14 345.06>
VStem: 52.6504 67.2305 130.41 89.0996 287.551 89.0996
LayerCount: 2
Fore
SplineSet
384.148919954 644 m 0
 384.148919954 607.011994201 361.619934196 580.501470671 332.099609375 580.501470671 c 0
 302.581091404 580.501470671 280.052251921 607.009676507 280.052251921 644 c 0
 280.052251921 679.886279735 302.465542836 707.498529329 332.099609375 707.498529329 c 0
 361.735338424 707.498529329 384.148919954 679.884111893 384.148919954 644 c 0
227.008294954 644 m 0
 227.008294954 607.014073099 204.483031956 580.501470671 174.958984375 580.501470671 c 0
 145.440466404 580.501470671 122.911626921 607.009676507 122.911626921 644 c 0
 122.911626921 679.886279735 145.324917836 707.498529329 174.958984375 707.498529329 c 0
 204.592921635 707.498529329 227.008294954 679.888744451 227.008294954 644 c 0
253.529296875 505.498529329 m 0
 368.918668363 505.498529329 440.848138704 414.139584325 440.848138704 270 c 0
 440.848138704 248.472603478 439.153546306 231.925794272 436.731342491 212.501470671 c 1
 128.062181563 212.501470671 l 1
 133.170328981 162.069146879 150.476739712 124.647267538 175.360948838 99.763058412 c 0
 200.730953935 74.3930533151 234.424632073 61.4985293291 272.970703125 61.4985293291 c 0
 331.700517779 61.4985293291 369.232528695 90.9844405793 395.755634404 111.821531956 c 1
 426.343045484 43.8516925794 l 1
 404.528154626 25.8974467457 349.370824565 -19.4985293291 264.869140625 -19.4985293291 c 0
 142.998399615 -19.4985293291 45.1518612959 77.2015335967 45.1518612959 244 c 0
 45.1518612959 406.458176318 144.273517514 505.498529329 253.529296875 505.498529329 c 0
364.57181612 291.498529329 m 1
 361.871263944 325.171164788 349.515060124 425.501470671 255.150390625 425.501470671 c 0
 195.245601292 425.501470671 143.783403034 377.301423117 130.143252042 291.498529329 c 1
 364.57181612 291.498529329 l 1
EndSplineSet
EndChar

StartChar: igrave
Encoding: 236 236 169
Width: 486
GlyphClass: 2
Flags: HMW
HStem: 0 21G<295.65 295.65 295.65 362.07> 419 67<112.59 295.65 112.59 362.07>
VStem: 295.65 66.4199
LayerCount: 2
Fore
SplineSet
338.5173722 556.341442244 m 1
 201.63859055 721.022313976 l 1
 258.996892836 789.392532781 l 1
 382.835864962 608.510667839 l 1
 338.5173722 556.341442244 l 1
288.151861296 411.501470671 m 1
 105.091314421 411.501470671 l 1
 105.091314421 493.498529329 l 1
 369.568841829 493.498529329 l 1
 369.568841829 -7.49852932905 l 1
 288.151861296 -7.49852932905 l 1
 288.151861296 411.501470671 l 1
EndSplineSet
EndChar

StartChar: iacute
Encoding: 237 237 170
Width: 486
GlyphClass: 2
Flags: HMW
HStem: 0 21G<266.49 266.49 266.49 332.91> 419 67<83.4297 266.49 83.4297 332.91>
VStem: 266.49 66.4199
LayerCount: 2
Fore
SplineSet
275.46309655 556.341442244 m 1
 231.144603788 608.510667839 l 1
 354.983575914 789.392532781 l 1
 412.3418782 721.022313976 l 1
 275.46309655 556.341442244 l 1
258.991705046 411.501470671 m 1
 75.9311581709 411.501470671 l 1
 75.9311581709 493.498529329 l 1
 340.408685579 493.498529329 l 1
 340.408685579 -7.49852932905 l 1
 258.991705046 -7.49852932905 l 1
 258.991705046 411.501470671 l 1
EndSplineSet
EndChar

StartChar: icircumflex
Encoding: 238 238 171
Width: 486
GlyphClass: 2
Flags: HMW
HStem: 0 21G<274.068 274.068 274.068 342.288> 417 69<91.0088 274.068 91.0088 342.288>
VStem: 274.068 68.2197
LayerCount: 2
Fore
SplineSet
276.108398438 717.486267314 m 1
 405.685105618 595.106019006 l 1
 362.203977182 550.577489458 l 1
 276.108398438 619.492117044 l 1
 190.012819693 550.577489458 l 1
 146.531691258 595.106019006 l 1
 276.108398438 717.486267314 l 1
266.569830046 409.501470671 m 1
 83.5102597334 409.501470671 l 1
 83.5102597334 493.498529329 l 1
 349.786615267 493.498529329 l 1
 349.786615267 -7.49852932905 l 1
 266.569830046 -7.49852932905 l 1
 266.569830046 409.501470671 l 1
EndSplineSet
EndChar

StartChar: idieresis
Encoding: 239 239 172
Width: 486
GlyphClass: 2
Flags: HMW
HStem: 0 21G<260.01 260.01 260.01 326.43> 419 67<76.9502 260.01 76.9502 326.43> 588 112<194.4 220.32 351.54 377.46>
VStem: 162.811 89.0996 260.01 66.4199 319.95 89.0996
LayerCount: 2
Fore
SplineSet
416.548334017 644 m 0
 416.548334017 607.011279829 394.019789653 580.501470671 364.5 580.501470671 c 0
 334.981556937 580.501470671 312.451665983 607.009654631 312.451665983 644 c 0
 312.451665983 679.885546861 334.865389119 707.498529329 364.5 707.498529329 c 0
 394.13196602 707.498529329 416.548334017 679.888782988 416.548334017 644 c 0
259.408685579 644 m 0
 259.408685579 607.011279828 236.880141215 580.501470671 207.360351562 580.501470671 c 0
 177.840866469 580.501470671 155.312017546 607.009705115 155.312017546 644 c 0
 155.312017546 679.886732101 177.725712165 707.498529329 207.360351562 707.498529329 c 0
 236.992317583 707.498529329 259.408685579 679.888782988 259.408685579 644 c 0
252.511236296 411.501470671 m 1
 69.4516659834 411.501470671 l 1
 69.4516659834 493.498529329 l 1
 333.928216829 493.498529329 l 1
 333.928216829 -7.49852932905 l 1
 252.511236296 -7.49852932905 l 1
 252.511236296 411.501470671 l 1
EndSplineSet
EndChar

StartChar: eth
Encoding: 240 240 173
Width: 486
GlyphClass: 2
Flags: HMW
HStem: -12 68<208.575 287.55 208.575 302.13> 383 64<201.285 260.01 181.44 265.68> 494 21G<147.42 147.42> 696 20G<393.66 393.66>
VStem: 50.2197 62.3701 371.79 63.9902
LayerCount: 2
Fore
SplineSet
42.7211972334 222 m 0
 42.7211972334 363.069672448 124.529929468 454.498529329 234.900390625 454.498529329 c 0
 256.889910397 454.498529329 306.439985874 448.344380804 349.746920131 398.897713373 c 1
 334.060907205 466.633517325 306.894773722 518.976651149 269.166221078 562.249684063 c 1
 144.23302983 483.101051492 l 1
 113.516061525 548.833363848 l 1
 215.759324825 612.917579369 l 1
 188.772620187 635.298347169 160.71562735 653.477474049 125.064602101 675.484582988 c 1
 163.38450309 740.224036247 l 1
 223.229673411 705.455238682 255.321446634 680.927703815 283.530333619 655.398865466 c 1
 396.744626252 726.814743741 l 1
 427.626784354 663.270697815 l 1
 333.559048595 603.235273884 l 1
 399.703453487 521.567778127 443.278802767 412.283792482 443.278802767 257 c 0
 443.278802767 159.934755052 416.324663384 80.378238932 367.600577379 31.6541529273 c 0
 334.875176514 -1.07124793782 292.422516085 -19.4985293291 243 -19.4985293291 c 0
 136.94497189 -19.4985293291 42.7211972334 72.6381823941 42.7211972334 222 c 0
244.620117188 375.501470671 m 0
 159.619506937 375.501470671 120.088373079 306.264745113 120.088373079 222 c 0
 120.088373079 126.66741861 176.361570489 63.4985293291 244.620117188 63.4985293291 c 0
 332.76942829 63.4985293291 364.291509733 154.956274893 364.291509733 254 c 0
 364.291509733 268.310808462 364.28677872 282.508306648 363.598497673 295.674367374 c 1
 351.412951695 315.225124573 311.441188801 375.501470671 244.620117188 375.501470671 c 0
EndSplineSet
EndChar

StartChar: ntilde
Encoding: 241 241 174
Width: 486
GlyphClass: 2
Flags: HMW
HStem: 432.08 65.9199 577 60<282.285 313.065 282.285 329.265> 661 60<173.339 204.12>
VStem: 102.87 44.5498 338.58 44.5498 339.73 67.752
LayerCount: 2
Fore
SplineSet
332.161626921 277.3203125 m 2
 332.161626921 386.884902537 300.839240922 424.581548796 232.201171875 424.581548796 c 0
 206.3100734 424.581548796 178.403150684 420.510005295 154.704597677 415.748159487 c 1
 154.773182016 -7.49852932907 l 1
 71.0895825896 -7.49852916894 l 1
 71.0182066114 480.907794664 l 1
 138.19070058 498.821340095 189.138373242 505.498529329 235.9453125 505.498529329 c 0
 290.401488266 505.498529329 337.43835007 490.95117143 369.860678753 454.547347938 c 0
 400.136163334 420.554277736 414.912591623 366.630416877 414.912591623 292.921685242 c 2
 414.982701358 -7.49852932905 l 1
 332.235792458 -7.49852932905 l 1
 332.161626921 277.3203125 l 2
184.6796875 728.498529329 m 0
 245.738702764 728.498529329 269.317411492 644.498529329 301.3203125 644.498529329 c 0
 305.791962836 644.498529329 309.404452372 646.068131693 312.980608322 649.644287644 c 0
 328.379514086 665.043193407 330.631933468 707.687069035 331.502255375 724.164417549 c 1
 390.847876784 718.835943332 l 1
 389.965932122 690.885954316 387.897498459 625.334564674 353.011232776 590.448298991 c 0
 339.697301424 577.134367639 322.294335399 569.501470671 301.3203125 569.501470671 c 0
 240.291913081 569.501470671 216.603476848 653.501470671 185.489257812 653.501470671 c 0
 158.624843059 653.501470671 155.59399016 594.872496248 154.515315244 574.006553193 c 1
 95.1500060054 578.004234641 l 1
 96.0394139175 606.556802467 98.0972872474 672.620491616 133.072290372 707.595494741 c 0
 146.376538645 720.899743014 163.754679142 728.498529329 184.6796875 728.498529329 c 0
EndSplineSet
EndChar

StartChar: ograve
Encoding: 242 242 175
Width: 486
GlyphClass: 2
Flags: HMW
HStem: -12 68<205.335 280.665 205.335 294.84> 430 68<205.335 280.665>
VStem: 48.5996 68.8506 368.55 68.8506
LayerCount: 2
Fore
SplineSet
259.948138623 556.34137185 m 1
 123.068262625 721.02229559 l 1
 180.426580336 789.392532781 l 1
 304.265506104 608.51073555 l 1
 259.948138623 556.34137185 l 1
243 422.501470671 m 0
 170.342310198 422.501470671 124.948724641 346.781076341 124.948724641 242 c 0
 124.948724641 175.201543791 143.616841135 122.706668137 173.644574438 92.6789348342 c 0
 192.528268304 73.795240968 215.903886999 63.4985293291 243 63.4985293291 c 0
 315.69501715 63.4985293291 361.051275359 138.199676509 361.051275359 242 c 0
 361.051275359 309.786912169 342.169501855 363.119442562 311.842625304 393.446319112 c 0
 293.033900534 412.255043882 269.838674747 422.501470671 243 422.501470671 c 0
444.898919954 242 m 0
 444.898919954 76.1731838137 350.371859773 -19.4985293291 243 -19.4985293291 c 0
 135.630639588 -19.4985293291 41.1010800459 76.1701723034 41.1010800459 242 c 0
 41.1010800459 409.891920496 135.671258382 505.498529329 243 505.498529329 c 0
 350.332179619 505.498529329 444.898919954 409.887756089 444.898919954 242 c 0
EndSplineSet
EndChar

